<svg width="71" height="70" viewBox="0 0 71 70" fill="none" xmlns="http://www.w3.org/2000/svg">
<path d="M63.1826 0H8.18261C4.04199 0 0.682617 3.35937 0.682617 7.5V62.5C0.682617 66.6406 4.04199 70 8.18261 70H63.1826C67.3232 70 70.6826 66.6406 70.6826 62.5V7.5C70.6826 3.35937 67.3232 0 63.1826 0Z" fill="#E5E5E5"/>
<path d="M38.126 52L34.9839 43.0791H22.7012L19.5591 52H14L25.9531 19.7441H31.7979L43.729 52H38.126ZM33.6216 38.5527L30.5674 29.7637C30.4502 29.3828 30.2817 28.8481 30.062 28.1597C29.8423 27.4565 29.6226 26.7461 29.4028 26.0283C29.1831 25.2959 29 24.6807 28.8535 24.1826C28.707 24.7832 28.5239 25.457 28.3042 26.2041C28.0991 26.9365 27.894 27.625 27.689 28.2695C27.4985 28.9141 27.3521 29.4121 27.2495 29.7637L24.1733 38.5527H33.6216ZM52.606 27.6763V52H47.4424V27.6763H52.606ZM50.0571 18.3599C50.8481 18.3599 51.5293 18.5723 52.1006 18.9971C52.6865 19.4219 52.9795 20.1543 52.9795 21.1943C52.9795 22.2197 52.6865 22.9521 52.1006 23.3916C51.5293 23.8164 50.8481 24.0288 50.0571 24.0288C49.2368 24.0288 48.541 23.8164 47.9697 23.3916C47.4131 22.9521 47.1348 22.2197 47.1348 21.1943C47.1348 20.1543 47.4131 19.4219 47.9697 18.9971C48.541 18.5723 49.2368 18.3599 50.0571 18.3599Z" fill="white"/>
</svg>
