<svg width="61" height="70" viewBox="0 0 61 70" fill="none" xmlns="http://www.w3.org/2000/svg">
<path d="M0 19.7958V50.1804C0 51.6081 0.760937 52.9276 1.99666 53.6426L28.26 68.8396C29.5005 69.5573 31.0301 69.5567 32.2698 68.8378L58.5628 53.5923C59.7968 52.8768 60.5564 51.5583 60.5564 50.1319V19.773C60.5564 18.343 59.793 17.0217 58.5541 16.3076L32.2655 1.15295C31.0278 0.439465 29.5036 0.440221 28.2666 1.15493L1.99884 16.3323C0.76189 17.0471 0 18.3672 0 19.7958Z" fill="#E5E5E5"/>
<circle cx="30.291" cy="35.0255" r="20.2109" fill="white"/>
<circle cx="30.3163" cy="35" r="10.2582" fill="#E5E5E5"/>
<path d="M60.5564 52.6145L30.24 35L60.5564 17.4618V52.6145Z" fill="#E5E5E5"/>
<rect x="45.2073" y="31.6654" width="2.24" height="6.72" fill="white"/>
<rect x="42.9673" y="36.1454" width="2.24" height="6.72" transform="rotate(-90 42.9673 36.1454)" fill="white"/>
<rect x="53.6072" y="31.6654" width="2.24" height="6.72" fill="white"/>
<rect x="51.3672" y="36.1454" width="2.24" height="6.72" transform="rotate(-90 51.3672 36.1454)" fill="white"/>
</svg>
