<svg width="23" height="17" viewBox="0 0 23 17" fill="none" xmlns="http://www.w3.org/2000/svg">
<path d="M6.85916 12.5823H13.7163C15.6092 12.5823 17.1449 11.0465 17.1449 9.15345H18.2878C20.8092 9.15345 22.8592 7.10327 22.8592 4.58161C22.8592 2.05995 20.8092 0.00976562 18.2878 0.00976562H4.28773C3.81272 0.00976562 3.43058 0.391943 3.43058 0.866986V9.15345C3.43058 11.0465 4.9663 12.5823 6.85916 12.5823ZM18.2878 2.29569C19.5485 2.29569 20.5735 3.32078 20.5735 4.58161C20.5735 5.84244 19.5485 6.86753 18.2878 6.86753H17.1449V2.29569H18.2878ZM19.9913 16.0112H1.727C0.0269971 16.0112 -0.451576 13.7253 0.441284 13.7253H21.2735C22.1664 13.7253 21.6949 16.0112 19.9913 16.0112Z" fill="#F2ACAC"/>
</svg>
