<svg width="60" height="61" viewBox="0 0 60 61" fill="none" xmlns="http://www.w3.org/2000/svg">
<path d="M30.7392 58.2802C45.6753 58.2802 57.7833 46.1667 57.7833 31.2241C57.7833 16.2814 45.6753 4.16797 30.7392 4.16797C15.8032 4.16797 3.69513 16.2814 3.69513 31.2241C3.69513 46.1667 15.8032 58.2802 30.7392 58.2802Z" stroke="black" stroke-width="1.5" stroke-miterlimit="10"/>
<mask id="path-2-inside-1_601_15" fill="white">
<path d="M29.8167 16.5845C29.7387 15.8355 29.8971 15.081 30.2694 14.4266C30.4765 14.0735 30.7706 13.7793 31.1236 13.5721C31.4105 13.418 31.7251 13.3224 32.0491 13.2909C32.3732 13.2593 32.7003 13.2924 33.0114 13.3883C33.4632 13.5391 33.864 13.8128 34.1689 14.1788C34.4826 14.5325 34.717 14.9491 34.8565 15.4009C35.1463 16.3055 35.2707 17.2551 35.2238 18.2039C35.2396 19.9631 34.9713 21.7133 34.4294 23.3869C34.098 24.3622 33.5206 25.6113 33 26.5"/>
</mask>
<path d="M30.2694 14.4266L29.4067 13.9207L29.4003 13.932L30.2694 14.4266ZM31.1236 13.5721L30.6505 12.6911L30.6338 12.7001L30.6175 12.7096L31.1236 13.5721ZM33.0114 13.3883L33.328 12.4398L33.317 12.4361L33.3059 12.4327L33.0114 13.3883ZM34.1689 14.1788L33.4006 14.8189L33.4105 14.8308L33.4208 14.8424L34.1689 14.1788ZM34.8565 15.4009L33.901 15.6959L33.9042 15.7059L34.8565 15.4009ZM35.2238 18.2039L34.225 18.1545L34.2236 18.1837L34.2239 18.2129L35.2238 18.2039ZM34.4294 23.3869L35.3762 23.7087L35.3786 23.7019L35.3808 23.695L34.4294 23.3869ZM30.8113 16.4809C30.755 15.9396 30.8694 15.3942 31.1386 14.9212L29.4003 13.932C28.9247 14.7678 28.7225 15.7315 28.8221 16.688L30.8113 16.4809ZM31.1321 14.9325C31.2528 14.7266 31.4242 14.5552 31.6298 14.4345L30.6175 12.7096C30.1171 13.0033 29.7003 13.4203 29.4068 13.9208L31.1321 14.9325ZM31.5968 14.453C31.7671 14.3616 31.9537 14.3049 32.146 14.2862L31.9523 12.2956C31.4964 12.3399 31.0539 12.4744 30.6505 12.6911L31.5968 14.453ZM32.146 14.2862C32.3383 14.2674 32.5323 14.2871 32.717 14.344L33.3059 12.4327C32.8682 12.2978 32.4081 12.2512 31.9523 12.2956L32.146 14.2862ZM32.6948 14.3369C32.9702 14.4288 33.2146 14.5957 33.4006 14.8189L34.9372 13.5387C34.5133 13.03 33.9561 12.6494 33.328 12.4398L32.6948 14.3369ZM33.4208 14.8424C33.6398 15.0894 33.8036 15.3804 33.901 15.6959L35.812 15.1058C35.6304 14.5179 35.3253 13.9756 34.917 13.5152L33.4208 14.8424ZM33.9042 15.7059C34.1573 16.4962 34.266 17.3257 34.225 18.1545L36.2226 18.2533C36.2754 17.1845 36.1353 16.1149 35.8088 15.0958L33.9042 15.7059ZM34.2239 18.2129C34.2386 19.8645 33.9868 21.5076 33.478 23.0789L35.3808 23.695C35.9558 21.919 36.2405 20.0617 36.2238 18.1949L34.2239 18.2129ZM33.4826 23.0652C33.1739 23.9735 32.6253 25.1613 32.1372 25.9945L33.8628 27.0055C34.4159 26.0614 35.0221 24.7509 35.3762 23.7087L33.4826 23.0652Z" fill="black" mask="url(#path-2-inside-1_601_15)"/>
<mask id="path-4-inside-2_601_15" fill="white">
<path d="M29.8167 16.5851C29.5321 16.3756 29.2355 16.183 28.9283 16.0083C28.5822 15.782 28.2034 15.6105 27.805 15.4998C27.6058 15.4179 27.3911 15.3801 27.1759 15.389C26.9606 15.3978 26.7498 15.4531 26.5579 15.5511C26.1842 15.7788 25.9121 16.1412 25.7977 16.5637C25.6377 17.1596 25.5999 17.7817 25.6866 18.3925C25.6866 18.6062 25.7208 18.8198 25.7464 19.0036C25.1522 18.6296 24.4504 18.4643 23.7518 18.5335C23.2187 18.5736 22.7161 18.7981 22.3303 19.1684C21.9446 19.5388 21.6997 20.0319 21.6377 20.5632C21.5782 21.0369 21.6522 21.5179 21.8512 21.9519C22.0418 22.3756 22.3198 22.7542 22.667 23.0628C23.3551 23.7203 24.1568 24.2473 25.0332 24.6182C26.6111 25.3929 28.3047 25.9052 30.0473 26.1351C31.0707 26.2577 32.1039 26.2763 33.131 26.1906"/>
</mask>
<path d="M28.9283 16.0083L28.3812 16.8453L28.407 16.8622L28.4338 16.8774L28.9283 16.0083ZM27.805 15.4998L27.4251 16.4248L27.48 16.4473L27.5372 16.4632L27.805 15.4998ZM26.5579 15.5511L26.1033 14.6604L26.0697 14.6775L26.0375 14.6971L26.5579 15.5511ZM25.7977 16.5637L24.8324 16.3023L24.8319 16.3044L25.7977 16.5637ZM25.6866 18.3925L26.6866 18.3925V18.3219L26.6767 18.252L25.6866 18.3925ZM25.7464 19.0036L25.2138 19.8499L27.0339 20.9953L26.7368 18.8654L25.7464 19.0036ZM23.7518 18.5335L23.8268 19.5307L23.8387 19.5298L23.8505 19.5287L23.7518 18.5335ZM21.6377 20.5632L22.6299 20.6877L22.631 20.6791L21.6377 20.5632ZM21.8512 21.9519L22.7633 21.5417L22.7602 21.535L21.8512 21.9519ZM22.667 23.0628L23.3578 22.3398L23.3448 22.3274L23.3314 22.3154L22.667 23.0628ZM25.0332 24.6182L25.4739 23.7205L25.4487 23.7082L25.4229 23.6973L25.0332 24.6182ZM30.0473 26.1351L29.9166 27.1265L29.9284 27.128L30.0473 26.1351ZM30.4095 15.7798C30.0934 15.5471 29.764 15.3331 29.4228 15.1391L28.4338 16.8774C28.707 17.0328 28.9708 17.2041 29.2239 17.3904L30.4095 15.7798ZM29.4755 15.1712C29.0433 14.8888 28.5703 14.6746 28.0729 14.5363L27.5372 16.4632C27.8364 16.5464 28.1211 16.6753 28.3812 16.8453L29.4755 15.1712ZM28.185 14.5748C27.8524 14.4381 27.4941 14.375 27.1348 14.3898L27.2169 16.3881C27.2881 16.3852 27.3591 16.3977 27.4251 16.4248L28.185 14.5748ZM27.1348 14.3898C26.7755 14.4046 26.4236 14.4969 26.1033 14.6604L27.0125 16.4417C27.076 16.4093 27.1458 16.391 27.2169 16.3881L27.1348 14.3898ZM26.0375 14.6971C25.4451 15.0581 25.0138 15.6327 24.8324 16.3023L26.7629 16.8252C26.8104 16.6498 26.9233 16.4994 27.0783 16.405L26.0375 14.6971ZM24.8319 16.3044C24.6369 17.0306 24.5909 17.7887 24.6965 18.5331L26.6767 18.252C26.6089 17.7747 26.6385 17.2886 26.7635 16.823L24.8319 16.3044ZM24.6866 18.3925C24.6866 18.6926 24.7347 18.9892 24.756 19.1417L26.7368 18.8654C26.7068 18.6504 26.6866 18.5197 26.6866 18.3925L24.6866 18.3925ZM26.279 18.1572C25.4967 17.6649 24.5729 17.4472 23.6532 17.5384L23.8505 19.5287C24.328 19.4813 24.8076 19.5943 25.2138 19.8499L26.279 18.1572ZM23.6769 17.5364C22.9121 17.5938 22.1911 17.9158 21.6378 18.447L23.0229 19.8898C23.2411 19.6803 23.5253 19.5534 23.8268 19.5307L23.6769 17.5364ZM21.6378 18.447C21.0845 18.9782 20.7333 19.6854 20.6444 20.4473L22.631 20.6791C22.666 20.3783 22.8046 20.0993 23.0229 19.8898L21.6378 18.447ZM20.6455 20.4386C20.5628 21.0971 20.6656 21.7656 20.9423 22.3688L22.7602 21.535C22.6388 21.2702 22.5936 20.9768 22.6299 20.6877L20.6455 20.4386ZM20.9392 22.362C21.1876 22.9144 21.55 23.4079 22.0026 23.8102L23.3314 22.3154C23.0896 22.1005 22.896 21.8368 22.7632 21.5417L20.9392 22.362ZM21.9762 23.7858C22.7518 24.527 23.6555 25.121 24.6434 25.5391L25.4229 23.6973C24.6581 23.3736 23.9584 22.9137 23.3578 22.3398L21.9762 23.7858ZM24.5924 25.5158C26.2679 26.3384 28.0662 26.8824 29.9166 27.1265L30.1781 25.1436C28.5432 24.928 26.9543 24.4473 25.4739 23.7205L24.5924 25.5158ZM29.9284 27.128C31.0188 27.2586 32.1197 27.2784 33.2141 27.1872L33.0479 25.1941C32.0881 25.2741 31.1226 25.2567 30.1663 25.1422L29.9284 27.128Z" fill="black" mask="url(#path-4-inside-2_601_15)"/>
<path d="M19.9079 41.4362C20.3711 42.3941 20.9444 43.2947 21.6163 44.1196C22.5218 45.2562 23.9483 47.0337 26.3999 47.8071C27.6994 48.2027 29.0751 48.2789 30.4104 48.0293C32.5796 47.6994 34.554 46.5888 35.9627 44.9058C36.9225 43.6328 37.5361 42.1327 37.7437 40.5517C38.1655 38.08 37.9359 35.541 37.0774 33.1852C36.2326 30.5767 34.8207 28.1879 32.9431 26.1904L32.5 25.5" stroke="black" stroke-miterlimit="10"/>
<path d="M35.5868 29.7881C36.5068 31.5626 37.2507 33.4231 37.8078 35.3429C38.2424 36.9426 38.3599 38.6119 38.1537 40.2567C38.061 40.8783 37.9182 41.4913 37.7266 42.0898C37.5211 42.8567 37.2076 43.5904 36.7955 44.269C36.4575 44.7939 36.059 45.2772 35.6082 45.709C34.9952 46.2946 34.2985 46.7856 33.541 47.166C32.4936 47.6881 31.358 48.0098 30.1925 48.1146C29.3395 48.1955 28.4802 48.1826 27.6299 48.0762C28.8248 48.2993 30.0477 48.3282 31.2518 48.1616C31.7344 48.0762 35.4331 47.3754 37.3978 44.0596C38.0985 42.8023 38.4991 41.3998 38.568 39.9619C38.7509 38.0644 38.5311 36.1497 37.9231 34.343C37.374 32.843 36.6576 31.4096 35.7876 30.0701L35.5868 29.7881Z" fill="#C4C2C3" stroke="black" stroke-miterlimit="10"/>
<path d="M41.6901 28.3662C40.9172 28.5224 40.1961 28.8706 39.5931 29.3789C38.9211 29.9774 38.4262 30.7489 38.1623 31.6094C37.8618 32.4878 37.7739 33.425 37.906 34.344C38.1958 34.3211 38.4822 34.2666 38.7602 34.1816C39.4011 33.9735 39.9851 33.6199 40.4667 33.1484C40.9483 32.677 41.3144 32.1005 41.5364 31.4641C41.7158 30.7895 41.8048 30.094 41.8012 29.396C41.8012 29.1097 41.8012 28.8747 41.8012 28.7166L41.6901 28.3662Z" stroke="black" stroke-miterlimit="10"/>
<path d="M37.6797 40.8637C37.4354 40.1773 36.9886 39.5813 36.3984 39.1545C35.8165 38.8308 35.1592 38.6671 34.4935 38.6802C33.8055 38.654 33.1165 38.6897 32.4348 38.787C32.0547 38.8255 31.7472 38.8639 31.5337 38.8896C31.7233 39.3004 31.9537 39.6912 32.2213 40.0561C32.7027 40.8044 33.379 41.4071 34.1774 41.7994C34.7963 42.059 35.4627 42.1856 36.1335 42.1712C36.5871 42.231 37.0462 42.1131 37.4149 41.8422L37.6797 40.8637Z" stroke="black" stroke-miterlimit="10"/>
<path d="M29.3817 16.8756L30.3442 17.8381V15.9131" stroke="black"/>
</svg>
