<svg width="75" height="77" viewBox="0 0 75 77" fill="none" xmlns="http://www.w3.org/2000/svg">
<path d="M37.9996 72.6279C56.8863 72.6279 72.197 57.3103 72.197 38.4152C72.197 19.5201 56.8863 4.20264 37.9996 4.20264C19.1128 4.20264 3.80212 19.5201 3.80212 38.4152C3.80212 57.3103 19.1128 72.6279 37.9996 72.6279Z" stroke="white" stroke-width="2.5" stroke-miterlimit="10"/>
<mask id="path-2-inside-1_1281_3167" fill="white">
<path d="M36.833 19.904C36.7344 18.957 36.9346 18.0029 37.4055 17.1754C37.6674 16.7288 38.0392 16.3568 38.4856 16.0948C38.8484 15.9 39.2461 15.7791 39.6559 15.7392C40.0657 15.6994 40.4793 15.7412 40.8727 15.8625C41.444 16.0531 41.9508 16.3993 42.3363 16.8621C42.733 17.3092 43.0295 17.8361 43.2059 18.4073C43.5723 19.5513 43.7297 20.752 43.6703 21.9518C43.6902 24.1763 43.351 26.3895 42.6658 28.5058C42.2467 29.739 41.7039 30.9265 41.0456 32.0502"/>
</mask>
<path d="M37.4055 17.1754L36.5428 16.6695L36.5364 16.6808L37.4055 17.1754ZM38.4856 16.0948L38.0124 15.2138L37.9958 15.2228L37.9794 15.2324L38.4856 16.0948ZM40.8727 15.8625L41.1894 14.9139L41.1783 14.9102L41.1672 14.9068L40.8727 15.8625ZM42.3363 16.8621L41.568 17.5021L41.578 17.514L41.5882 17.5256L42.3363 16.8621ZM43.2059 18.4073L42.2503 18.7024L42.2535 18.7124L43.2059 18.4073ZM43.6703 21.9518L42.6715 21.9024L42.6701 21.9316L42.6704 21.9608L43.6703 21.9518ZM42.6658 28.5058L43.6126 28.8276L43.6149 28.8207L43.6172 28.8138L42.6658 28.5058ZM37.8276 19.8005C37.7506 19.061 37.907 18.3161 38.2746 17.67L36.5364 16.6808C35.9622 17.6897 35.7182 18.853 35.8384 20.0075L37.8276 19.8005ZM38.2681 17.6813C38.4436 17.382 38.6928 17.1328 38.9918 16.9572L37.9794 15.2324C37.3857 15.5809 36.8911 16.0757 36.5429 16.6696L38.2681 17.6813ZM38.9588 16.9758C39.2049 16.8436 39.4748 16.7616 39.7528 16.7345L39.559 14.7439C39.0175 14.7966 38.4918 14.9564 38.0124 15.2138L38.9588 16.9758ZM39.7528 16.7345C40.0308 16.7075 40.3114 16.7359 40.5783 16.8181L41.1672 14.9068C40.6472 14.7466 40.1006 14.6912 39.559 14.7439L39.7528 16.7345ZM40.5561 16.811C40.951 16.9428 41.3014 17.1821 41.568 17.5021L43.1046 16.222C42.6001 15.6164 41.9369 15.1634 41.1894 14.9139L40.5561 16.811ZM41.5882 17.5256C41.8903 17.8661 42.116 18.2674 42.2504 18.7024L44.1613 18.1123C43.9429 17.4049 43.5757 16.7523 43.0845 16.1985L41.5882 17.5256ZM42.2535 18.7124C42.5833 19.742 42.7249 20.8226 42.6715 21.9024L44.6691 22.0012C44.7344 20.6814 44.5613 19.3607 44.1582 18.1023L42.2535 18.7124ZM42.6704 21.9608C42.6893 24.0777 42.3665 26.1838 41.7144 28.1977L43.6172 28.8138C44.3356 26.5951 44.6912 24.2749 44.6703 21.9428L42.6704 21.9608ZM41.719 28.184C41.3216 29.3533 40.8069 30.4793 40.1827 31.5448L41.9084 32.5557C42.6008 31.3737 43.1718 30.1246 43.6126 28.8276L41.719 28.184Z" fill="white" mask="url(#path-2-inside-1_1281_3167)"/>
<mask id="path-4-inside-2_1281_3167" fill="white">
<path d="M36.833 19.9038C36.4731 19.6389 36.098 19.3953 35.7096 19.1743C35.272 18.8883 34.7929 18.6714 34.2892 18.5314C34.0372 18.4279 33.7658 18.3801 33.4936 18.3912C33.2215 18.4024 32.9549 18.4724 32.7122 18.5962C32.2397 18.8842 31.8956 19.3425 31.7509 19.8768C31.5486 20.6302 31.5008 21.4169 31.6105 22.1893C31.6105 22.4595 31.6537 22.7296 31.6861 22.9619C30.9347 22.4891 30.0473 22.28 29.1639 22.3676C28.4898 22.4183 27.8542 22.7021 27.3664 23.1704C26.8786 23.6387 26.569 24.2623 26.4906 24.9341C26.4154 25.5332 26.5089 26.1413 26.7606 26.6901C27.0016 27.2259 27.3531 27.7047 27.7922 28.0949C28.6623 28.9263 29.676 29.5927 30.7842 30.0617C32.7795 31.0413 34.921 31.6891 37.1246 31.9798C38.4187 32.1348 39.7251 32.1583 41.024 32.05"/>
</mask>
<path d="M35.7096 19.1743L35.1625 20.0114L35.1883 20.0283L35.2152 20.0435L35.7096 19.1743ZM34.2892 18.5314L33.9093 19.4564L33.9642 19.4789L34.0214 19.4948L34.2892 18.5314ZM32.7122 18.5962L32.2576 17.7055L32.2241 17.7227L32.1919 17.7423L32.7122 18.5962ZM31.7509 19.8768L30.7857 19.6153L30.7851 19.6175L31.7509 19.8768ZM31.6105 22.1893L32.6105 22.1893V22.1187L32.6006 22.0488L31.6105 22.1893ZM31.6861 22.9619L31.1535 23.8083L32.9736 24.9536L32.6765 22.8238L31.6861 22.9619ZM29.1639 22.3676L29.2389 23.3648L29.2508 23.3639L29.2626 23.3627L29.1639 22.3676ZM26.4906 24.9341L27.4828 25.0586L27.4838 25.05L26.4906 24.9341ZM26.7606 26.6901L27.6727 26.2799L27.6696 26.2732L26.7606 26.6901ZM27.7922 28.0949L28.483 27.3719L28.47 27.3595L28.4565 27.3475L27.7922 28.0949ZM30.7842 30.0617L31.2249 29.164L31.1997 29.1517L31.1739 29.1407L30.7842 30.0617ZM37.1246 31.9798L36.9939 32.9713L37.0057 32.9727L37.1246 31.9798ZM37.4258 19.0984C37.0344 18.8103 36.6265 18.5455 36.2041 18.3052L35.2152 20.0435C35.5695 20.2451 35.9118 20.4674 36.2402 20.7091L37.4258 19.0984ZM36.2568 18.3373C35.7331 17.995 35.1598 17.7355 34.5571 17.5679L34.0214 19.4948C34.426 19.6073 34.8109 19.7816 35.1625 20.0114L36.2568 18.3373ZM34.6692 17.6064C34.2839 17.4481 33.8688 17.375 33.4526 17.3921L33.5347 19.3904C33.6629 19.3851 33.7906 19.4076 33.9093 19.4564L34.6692 17.6064ZM33.4526 17.3921C33.0363 17.4092 32.6287 17.5161 32.2576 17.7055L33.1668 19.4869C33.2811 19.4286 33.4066 19.3957 33.5347 19.3904L33.4526 17.3921ZM32.1919 17.7423C31.5006 18.1635 30.9973 18.834 30.7857 19.6153L32.7161 20.1382C32.7939 19.851 32.9788 19.6048 33.2326 19.4502L32.1919 17.7423ZM30.7851 19.6175C30.5478 20.5012 30.4918 21.4238 30.6204 22.3298L32.6006 22.0488C32.5099 21.4099 32.5494 20.7592 32.7167 20.1361L30.7851 19.6175ZM30.6105 22.1893C30.6105 22.5459 30.6676 22.899 30.6957 23.1001L32.6765 22.8238C32.6397 22.5602 32.6105 22.373 32.6105 22.1893L30.6105 22.1893ZM32.2187 22.1156C31.2792 21.5244 30.1698 21.2629 29.0653 21.3725L29.2626 23.3627C29.9249 23.297 30.5901 23.4538 31.1535 23.8083L32.2187 22.1156ZM29.089 21.3704C28.1831 21.4385 27.3293 21.8199 26.6739 22.449L28.059 23.8918C28.3792 23.5843 28.7964 23.398 29.2389 23.3648L29.089 21.3704ZM26.6739 22.449C26.0186 23.0782 25.6026 23.9158 25.4973 24.8182L27.4838 25.05C27.5353 24.6087 27.7387 24.1992 28.059 23.8918L26.6739 22.449ZM25.4984 24.8095C25.4 25.5933 25.5223 26.389 25.8517 27.107L27.6696 26.2732C27.4955 25.8937 27.4308 25.473 27.4828 25.0586L25.4984 24.8095ZM25.8486 27.1003C26.1474 27.7647 26.5833 28.3584 27.1278 28.8423L28.4565 27.3475C28.1229 27.051 27.8558 26.6872 27.6726 26.2799L25.8486 27.1003ZM27.1013 28.8179C28.059 29.733 29.1748 30.4664 30.3944 30.9826L31.1739 29.1407C30.1773 28.719 29.2656 28.1196 28.483 27.3719L27.1013 28.8179ZM30.3435 30.9593C32.4363 31.9868 34.6826 32.6663 36.9939 32.9712L37.2554 30.9884C35.1595 30.7119 33.1227 30.0957 31.2249 29.164L30.3435 30.9593ZM37.0057 32.9727C38.3668 33.1357 39.7409 33.1605 41.1071 33.0465L40.9409 31.0535C39.7093 31.1562 38.4706 31.1339 37.2436 30.9869L37.0057 32.9727Z" fill="white" mask="url(#path-4-inside-2_1281_3167)"/>
<path d="M24.3033 51.3287C24.889 52.54 25.614 53.6787 26.4636 54.7218C27.6086 56.1591 29.4124 58.4068 32.5125 59.3847C34.1557 59.8849 35.8953 59.9813 37.5837 59.6657C40.3268 59.2486 42.8233 57.8441 44.6047 55.716C45.8184 54.1063 46.5943 52.2094 46.8568 50.2102C47.3902 47.0847 47.0998 43.8741 46.0143 40.8952C44.9461 37.5968 43.1606 34.5761 40.7864 32.0503" stroke="white" stroke-miterlimit="10"/>
<path d="M44.1294 36.6001C45.2927 38.844 46.2333 41.1966 46.9378 43.6242C47.4873 45.647 47.636 47.7578 47.3753 49.8378C47.258 50.6237 47.0774 51.3989 46.8352 52.1557C46.5753 53.1254 46.1789 54.0532 45.6578 54.9113C45.2304 55.575 44.7265 56.1862 44.1564 56.7322C43.3813 57.4726 42.5003 58.0936 41.5425 58.5746C40.2181 59.2347 38.782 59.6415 37.3083 59.7741C36.2296 59.8764 35.143 59.8601 34.0679 59.7255C35.5787 60.0077 37.1252 60.0442 38.6477 59.8335C39.258 59.7255 43.935 58.8394 46.4193 54.6465C47.3055 53.0567 47.812 51.2832 47.8991 49.4649C48.1304 47.0655 47.8525 44.6443 47.0836 42.3598C46.3893 40.463 45.4835 38.6505 44.3833 36.9567L44.1294 36.6001Z" fill="#C4C2C3" stroke="white" stroke-miterlimit="10"/>
<path d="M51.847 34.8008C50.8697 34.9982 49.9577 35.4386 49.1952 36.0813C48.3455 36.8381 47.7197 37.8137 47.386 38.9018C47.006 40.0125 46.8949 41.1977 47.0619 42.3598C47.4284 42.3307 47.7905 42.2619 48.1421 42.1544C48.9524 41.8912 49.691 41.4441 50.3 40.8479C50.909 40.2518 51.3719 39.5229 51.6526 38.718C51.8794 37.865 51.992 36.9856 51.9874 36.1029C51.9874 35.7409 51.9874 35.4438 51.9874 35.2438L51.847 34.8008Z" stroke="white" stroke-miterlimit="10"/>
<path d="M46.7758 50.605C46.4669 49.7371 45.9019 48.9835 45.1556 48.4438C44.4198 48.0344 43.5886 47.8275 42.7469 47.844C41.8768 47.8109 41.0056 47.8561 40.1437 47.9791C39.663 48.0277 39.2742 48.0764 39.0042 48.1088C39.244 48.6283 39.5353 49.1225 39.8737 49.5838C40.4824 50.53 41.3376 51.2922 42.3472 51.7883C43.1297 52.1165 43.9724 52.2767 44.8207 52.2584C45.3942 52.3341 45.9748 52.185 46.441 51.8423L46.7758 50.605Z" stroke="white" stroke-miterlimit="10"/>
<path d="M36.283 20.2713L37.5 21.4883V19.0542" stroke="white"/>
<path d="M29.826 25.732L31.5805 26.3168L33.335 26.9017L35.0895 28.0713L38.0136 28.6561H39.1832L40.3529 26.3168V23.9775V21.0534L39.7681 19.2989V18.7141M33.9198 21.6382L38.5984 26.3168V27.4865L36.2591 26.9017L35.0895 25.1472L33.9198 23.9775V26.3168M47.3708 42.1071L48.5405 38.5982L50.2949 36.8437L50.8798 35.674V37.4285L50.2949 39.7678L47.9556 41.5223M39.7681 48.5402L42.1074 49.7099L43.8619 49.1251L46.2012 50.2947V51.4644H44.4467L42.1074 50.8795M32.7502 25.1472L29.826 23.9775L28.6564 24.5623V26.3168L29.2412 27.4865L30.9957 28.6561H32.7502L35.0895 29.8258L38.0136 30.4106H39.7681L40.9377 28.6561L41.5225 25.732L42.1074 22.223L41.5225 19.2989L40.9377 17.5444H39.7681L38.5984 18.1293V20.4686V23.3927L36.2591 21.6382L34.5046 20.4686H33.335V21.0534L32.7502 21.6382V22.8079V24.5623V25.1472Z" stroke="white" stroke-width="2.5"/>
</svg>
