<svg width="71" height="70" viewBox="0 0 71 70" fill="none" xmlns="http://www.w3.org/2000/svg">
<path d="M63.1826 0H8.18261C4.04199 0 0.682617 3.35937 0.682617 7.5V62.5C0.682617 66.6406 4.04199 70 8.18261 70H63.1826C67.3232 70 70.6826 66.6406 70.6826 62.5V7.5C70.6826 3.35937 67.3232 0 63.1826 0Z" fill="#E5E5E5"/>
<path d="M23.5571 19.876C27.7026 19.876 30.7275 20.7256 32.6318 22.4248C34.5361 24.124 35.4883 26.5044 35.4883 29.5659C35.4883 30.9575 35.2686 32.2832 34.8291 33.543C34.4043 34.7881 33.7012 35.894 32.7197 36.8608C31.7383 37.813 30.4419 38.5674 28.8306 39.124C27.2339 39.6807 25.2637 39.959 22.9199 39.959H19.4922V52H14.2188V19.876H23.5571ZM23.2056 24.2485H19.4922V35.5645H22.3706C24.0259 35.5645 25.4321 35.374 26.5894 34.9932C27.7466 34.5977 28.6255 33.9751 29.2261 33.1255C29.8267 32.2759 30.127 31.1553 30.127 29.7637C30.127 27.9033 29.563 26.519 28.4351 25.6108C27.3218 24.7026 25.5786 24.2485 23.2056 24.2485ZM57.7246 45.0566C57.7246 46.6533 57.3364 48.001 56.5601 49.0996C55.7837 50.1982 54.6484 51.0332 53.1543 51.6045C51.6748 52.1611 49.8584 52.4395 47.7051 52.4395C46.0059 52.4395 44.541 52.3149 43.3105 52.0659C42.0947 51.8315 40.9448 51.4653 39.8608 50.9673V46.5068C41.0181 47.0488 42.3145 47.5176 43.75 47.9131C45.2002 48.3086 46.5698 48.5063 47.8589 48.5063C49.5581 48.5063 50.7812 48.2427 51.5283 47.7153C52.2754 47.1733 52.6489 46.4556 52.6489 45.562C52.6489 45.0347 52.4951 44.5659 52.1875 44.1558C51.8945 43.731 51.3379 43.2988 50.5176 42.8594C49.7119 42.4053 48.5254 41.8633 46.958 41.2334C45.4199 40.6182 44.1235 40.0029 43.0688 39.3877C42.0142 38.7725 41.2158 38.0327 40.6738 37.1685C40.1318 36.2896 39.8608 35.1689 39.8608 33.8066C39.8608 31.6533 40.7104 30.02 42.4097 28.9067C44.1235 27.7788 46.3867 27.2148 49.1992 27.2148C50.6934 27.2148 52.0996 27.3687 53.418 27.6763C54.751 27.9692 56.0547 28.4014 57.3291 28.9727L55.7031 32.8618C54.6045 32.3784 53.4985 31.9829 52.3853 31.6753C51.2866 31.353 50.166 31.1919 49.0234 31.1919C47.6904 31.1919 46.6724 31.397 45.9692 31.8071C45.2808 32.2173 44.9365 32.8032 44.9365 33.5649C44.9365 34.1362 45.105 34.6196 45.4419 35.0151C45.7788 35.4106 46.3574 35.8062 47.1777 36.2017C48.0127 36.5972 49.1699 37.0879 50.6494 37.6738C52.0996 38.2305 53.3521 38.8164 54.4067 39.4316C55.4761 40.0322 56.2964 40.772 56.8677 41.6509C57.439 42.5298 57.7246 43.665 57.7246 45.0566Z" fill="white"/>
</svg>
