<svg width="265" height="124" viewBox="0 0 265 124" fill="none" xmlns="http://www.w3.org/2000/svg">
<circle cx="61.8148" cy="61.8148" r="61.8148" fill="#62768C" fill-opacity="0.53"/>
<mask id="mask0_1526_1759" style="mask-type:alpha" maskUnits="userSpaceOnUse" x="0" y="0" width="124" height="124">
<circle cx="61.8148" cy="61.8148" r="61.8148" fill="#45537A"/>
</mask>
<g mask="url(#mask0_1526_1759)">
<path d="M83.9955 50.1786C83.9955 53.868 83.6021 57.4148 82.8767 60.7235C82.742 61.338 82.5959 61.9442 82.4387 62.5416C79.2956 74.4866 71.7342 82.9041 62.9057 82.9041C56.0931 82.9041 50.035 77.8918 46.1794 70.114C44.9377 67.6092 43.9244 64.8177 43.188 61.8144C42.3014 58.199 41.816 54.2768 41.816 50.1786C41.816 48.4471 40.9218 46.3833 41.0887 44.7244C41.5257 40.3828 41.1202 36.6876 42.5432 33.0886C44.007 29.3865 44.2807 25.8073 46.543 23.271C50.0121 19.3816 58.2988 17.4531 62.9057 17.4531C67.9281 17.4531 73.8283 18.7229 77.4504 23.271C81.8303 28.7707 83.4745 38.3917 83.9327 47.6333C83.9743 48.4733 83.9955 49.3221 83.9955 50.1786Z" fill="#8C4E37"/>
<path d="M41.816 50.1786C41.816 50.1786 40.3215 48.8322 39.2707 49.0878C38.5808 49.2556 38.1622 49.5587 37.8162 50.1786C37.4009 50.9226 37.5433 51.5532 37.8162 52.3603C38.1074 53.2217 38.9366 53.3328 39.2707 54.1784C39.6881 55.235 39.0746 55.9684 39.2707 57.0874C39.48 58.2824 39.7382 58.9554 40.3615 59.9963C40.8286 60.7764 40.9542 61.5245 41.816 61.8144C42.3238 61.9852 43.188 61.8144 43.188 61.8144C42.3014 58.199 41.816 54.2768 41.816 50.1786Z" fill="#8C4E37"/>
<path d="M83.9327 47.6333C83.9743 48.4733 83.9955 49.3221 83.9955 50.1786C83.9955 53.868 83.6021 57.4148 82.8767 60.7235L83.9327 60.3599C83.9327 60.3599 84.7608 59.2442 85.0864 58.5418C85.4869 57.6776 85.6533 57.2991 85.8136 56.3601C85.9826 55.3703 85.8136 53.8148 85.8136 53.8148C85.8136 53.8148 85.5804 52.2357 85.8136 51.2695C86.0371 50.3435 86.5408 49.0878 86.5408 49.0878C86.5408 49.0878 86.9287 47.8644 86.5408 47.2697C86.2611 46.8408 85.9592 46.5952 85.45 46.5425C84.7241 46.4673 83.9327 47.6333 83.9327 47.6333Z" fill="#8C4E37"/>
<path d="M82.4387 62.5416C79.2956 74.4866 71.7342 82.9041 62.9057 82.9041C56.0931 82.9041 50.035 77.8918 46.1794 70.114V82.9041L45.4521 84.3586L43.6341 85.4495L41.816 90.5401L45.4521 96.7216L54.1789 103.63L72.3598 106.176L85.8136 102.903L90.9042 96.7216L83.9327 84.3586H81.8138L82.4387 62.5416Z" fill="#8C4E37"/>
<path d="M56.7239 22.9081H61.8146C61.8146 22.9081 65.1349 22.6045 67.2688 22.5445C68.8302 22.5006 69.7095 22.4497 71.2686 22.5445C72.5521 22.6225 73.3791 22.3576 74.5412 22.9081C75.3629 23.2973 75.9782 23.537 76.3592 24.3626C76.7163 25.1362 76.0655 25.7445 76.3592 26.5443C76.6041 27.2107 76.9915 27.4567 77.4501 27.9987C78.0987 28.7653 78.9923 28.8514 79.2682 29.8168C79.4242 30.363 79.1897 30.7087 79.2682 31.2713C79.4176 32.3424 79.7923 32.8955 80.359 33.8166C80.8355 34.591 81.4624 34.796 81.8135 35.6347C82.307 36.8136 81.762 37.6303 81.8135 38.9072C81.9115 41.3359 81.6137 42.8418 82.5407 45.0887C82.9773 46.1471 83.9952 47.634 83.9952 47.634L85.086 46.5432C85.086 46.5432 85.2394 42.5495 85.086 39.9981C84.9402 37.5718 84.7119 36.2215 84.3588 33.8166C84.0027 31.3913 83.8485 30.0167 83.268 27.6351C82.5235 24.5812 82.3511 22.6878 80.7226 19.9992C79.2132 17.5071 77.9702 16.2833 75.632 14.5449C73.6947 13.1046 72.4573 12.4304 70.1778 11.636C67.3332 10.6448 65.5533 10.4751 62.5418 10.5451C59.9512 10.6054 58.4814 10.9004 55.9967 11.636C52.8297 12.5735 51.1414 13.4898 48.3608 15.2722C45.728 16.9598 44.0545 17.8602 42.1793 20.3628C40.5795 22.4979 39.9701 23.9697 39.2703 26.5443C38.3756 29.8358 38.5431 31.6349 38.9067 35.2711C39.2179 38.3828 38.8777 40.1681 39.2703 43.2706C39.5606 45.564 40.3612 49.4521 40.3612 49.4521L42.1793 50.543C42.1793 50.543 41.8832 47.7466 41.8157 46.1796C41.7545 44.7609 41.8157 42.5434 41.8157 42.5434C41.8157 42.5434 41.3252 39.4591 42.1793 37.8164C42.4154 37.3621 42.6466 37.1666 42.9065 36.7255C43.2289 36.1784 43.3931 35.8588 43.6337 35.2711C44.4481 33.2825 43.7092 31.8645 44.361 29.8168C44.9388 28.0014 45.2611 26.8631 46.5427 25.4534C47.7881 24.0835 48.786 23.4936 50.5425 22.9081C52.8326 22.1447 54.3099 22.9081 56.7239 22.9081Z" fill="#1F140A"/>
<path fill-rule="evenodd" clip-rule="evenodd" d="M76.3592 62.5423C76.3592 62.5423 75.4768 60.7824 74.5412 59.997C73.6571 59.255 72.8703 59.0564 71.9082 58.8136C71.5954 58.7346 71.2642 58.651 70.905 58.5425C69.6517 58.1641 68.9248 58.0245 67.6324 57.8153C66.0841 57.5648 65.2 57.5114 63.6327 57.4517C63.3408 57.4406 63.081 57.4242 62.8369 57.4088C62.1319 57.3642 61.5585 57.328 60.7237 57.4517C59.3911 57.6491 57.8148 58.2395 57.0876 58.5425C55.9152 59.031 54.5422 59.6334 54.5422 59.6334C54.5422 59.6334 52.9581 60.8808 52.3605 61.8151C51.8766 62.5717 51.6333 63.9968 51.6333 63.9968C51.6333 63.9968 50.0485 63.6519 49.088 63.2696C49.0402 63.2505 48.993 63.2318 48.9463 63.2132C47.4892 62.6339 46.548 62.2596 45.4518 61.0879C44.5196 60.0913 44.2078 59.2901 43.7372 58.0807C43.7036 57.9944 43.6692 57.906 43.6337 57.8153C43.257 56.8526 42.9065 55.27 42.9065 55.27C42.9065 55.27 42.4736 59.296 42.9065 61.8151C43.1546 63.2587 43.4967 64.1827 43.9253 65.3403C44.0618 65.7091 44.2071 66.1016 44.361 66.5421C44.5289 67.0231 44.6741 67.4609 44.8108 67.873C45.2894 69.3166 45.6631 70.4435 46.5427 71.9964C47.4312 73.5651 48.1211 74.3951 49.212 75.7077C49.2898 75.8013 49.3696 75.8973 49.4516 75.9961C49.7789 76.3906 50.0763 76.7617 50.3584 77.1137C51.6238 78.6923 52.5813 79.8869 54.5422 81.0868C56.1169 82.0503 57.1303 82.399 58.9056 82.9049C61.5147 83.6483 63.1092 83.8379 65.8144 83.6321C67.8416 83.4779 69.0277 83.3219 70.905 82.5413C73.3439 81.5271 74.5133 80.4307 76.3592 78.5415C78.2861 76.5694 79.1205 75.1869 80.359 72.7236C81.509 70.4365 81.9649 69.0365 82.5407 66.5421C82.984 64.6219 83.0791 63.4377 83.2264 61.6024C83.2397 61.4366 83.2535 61.2654 83.268 61.0879C83.5448 57.6911 83.268 52.3611 83.268 52.3611L81.8135 56.7245C81.8135 56.7245 81.1751 59.0672 80.359 60.3606C80.2757 60.4927 80.1981 60.6188 80.1238 60.7397C79.6704 61.4768 79.337 62.0187 78.5409 62.5423C77.9021 62.9626 76.7229 63.2696 76.7229 63.2696L76.3592 62.5423ZM71.9328 62.6024C71.5637 61.9977 71.2569 61.495 70.5414 61.0879C69.1837 60.3154 66.5416 61.0879 66.5416 61.0879H63.6327C63.6327 61.0879 60.9391 60.7482 59.2693 61.0879C59.2125 61.0994 59.1565 61.1108 59.1012 61.122C57.6971 61.4065 56.7601 61.5963 55.6331 62.5423C54.6975 63.3277 54.1209 63.905 53.815 65.0876C53.6017 65.9125 53.6328 66.4371 53.815 67.2693C54.1016 68.578 54.5569 69.3806 55.6331 70.1783C56.1433 70.5564 56.4806 70.7188 57.0876 70.9055C57.2634 70.9596 57.4481 71.0241 57.6359 71.0896C58.6077 71.4289 59.6622 71.7969 59.9965 70.9055C59.9965 70.9055 59.9072 69.504 59.9965 69.0874C60.1264 68.481 60.3848 68.3976 60.7891 68.2672C60.9775 68.2064 61.1975 68.1355 61.451 67.9966C62.0445 67.6714 62.5601 67.8627 63.1201 68.0705C63.5001 68.2116 63.9007 68.3602 64.3599 68.3602C64.7154 68.3602 65.0214 68.2305 65.3127 68.1071C65.7195 67.9347 66.0975 67.7746 66.5416 67.9966C66.683 68.0673 66.8654 68.1358 67.0602 68.2089C67.6073 68.4144 68.2519 68.6564 68.3597 69.0874C68.6408 70.2121 68.6458 70.2117 69.0153 70.1831C69.1236 70.1747 69.2633 70.1639 69.4505 70.1783C70.187 70.2349 70.6271 69.8807 71.149 69.4606C71.3001 69.339 71.4581 69.2118 71.6322 69.0874C71.7723 68.9874 71.9074 68.8959 72.0369 68.8081C72.6629 68.384 73.1582 68.0484 73.4503 67.2693C73.7495 66.4716 73.681 65.9078 73.4503 65.0876C73.2844 64.4977 73.025 64.1578 72.7101 63.7452C72.5995 63.6003 72.4821 63.4464 72.3595 63.2696C72.1966 63.0347 72.0609 62.8124 71.9328 62.6024Z" fill="#1F140A"/>
<path d="M43.6339 87.9954C43.9225 86.4343 45.452 84.3593 45.452 84.3593C45.452 84.3593 39.8503 86.8963 36.3616 88.7227C31.3991 91.3206 28.6967 92.9449 23.9986 95.995C18.7096 99.4288 16.0179 101.753 10.9084 105.449C6.7887 108.429 3.6177 109.178 0.363522 113.085C-1.55372 115.387 -2.31771 116.94 -3.63626 119.63C-4.84344 122.093 -6.18158 126.175 -6.18158 126.175L137.083 127.993C137.083 127.993 137.345 123.77 137.083 121.085C136.686 117.005 136.213 114.644 134.538 110.903C133.602 108.814 132.92 107.704 131.629 105.813C129.475 102.657 127.979 101.034 125.084 98.5403C119.118 93.3996 114.161 92.8721 106.903 89.8135C97.3437 85.7847 81.8137 81.814 81.8137 81.814V84.3593C81.8137 84.3593 83.0122 84.5303 83.6318 85.4501C84.9133 87.3529 85.5006 88.6317 85.8135 90.9044C86.2274 93.9117 85.8852 95.9163 84.359 98.5403C82.0566 102.499 78.6148 103.225 74.1777 104.358C70.0501 105.412 67.465 105.095 63.2692 104.358C59.4212 103.682 57.2247 102.993 53.8152 101.086C50.6413 99.3096 46.5428 95.2678 46.5428 95.2678C46.5428 95.2678 43.0778 91.0033 43.6339 87.9954Z" fill="#34436F"/>
</g>
<circle cx="203.185" cy="61.8148" r="61.8148" fill="#62768C" fill-opacity="0.53"/>
<mask id="mask1_1526_1759" style="mask-type:alpha" maskUnits="userSpaceOnUse" x="141" y="0" width="124" height="124">
<circle cx="203.185" cy="61.8148" r="61.8148" fill="#D9D9D9"/>
</mask>
<g mask="url(#mask1_1526_1759)">
<path d="M193.751 65.3521L181.751 40.6261L179.186 39.6346L176.277 41.0891C176.277 41.0891 175.517 49.6934 175.914 57.3525C176.091 60.7677 175.934 58.4433 176.297 65.3521C176.381 66.9375 176.433 69.6629 175.934 71.1699C175.152 73.5278 173.931 74.4892 172.661 76.6242C168.303 83.951 161.752 95.5322 161.752 95.5322C161.752 95.5322 158.035 101.945 156.662 106.441C155.897 108.945 155.364 110.372 155.207 112.986C155.045 115.694 155.935 119.895 155.935 119.895L156.827 124.985H170.116L169.752 101.714L174.115 91.5325L199.569 82.442V69.7155L193.751 65.3521Z" fill="#D03032"/>
<path d="M223.567 39.1717L230.456 38.3555C230.456 38.3555 230.043 43.773 229.749 47.1712C229.464 50.4526 228.838 52.2457 228.658 55.5344C228.526 57.9448 228.408 59.3149 228.658 61.7159C228.883 63.8764 229.749 67.1701 229.749 67.1701C229.749 67.1701 230.641 70.7953 231.567 72.988C233.36 77.2327 235.601 78.9417 238.112 82.8057C240.13 85.9107 241.608 87.6624 243.566 90.8052C244.712 92.6449 244.657 92.6233 246.475 95.1686C247.519 96.6302 248.293 98.8048 248.293 98.8048C248.293 98.8048 248.657 100.657 248.657 102.077V102.077C248.657 103.497 248.657 104.623 247.566 108.986C246.475 113.349 246.307 113.145 246.112 115.895C245.93 118.448 246.005 119.923 246.475 122.44C246.772 124.031 247.566 126.44 247.566 126.44H238.839L239.566 104.623L232.658 94.4414L217.749 85.7146L210.477 79.5331V68.9882L219.204 54.4436L223.567 39.1717Z" fill="#D03032"/>
<path d="M223.911 42.0802C223.641 45.459 223.17 48.7876 222.404 51.8979C221.11 57.1556 218.975 61.7896 215.548 64.9881C214.378 66.0801 213.321 67.1065 212.276 68.0279C209.841 70.1747 207.474 71.7516 203.913 72.2604C202.22 71.8091 200.66 71.2178 199.186 70.4972C195.908 68.8957 193.051 66.6559 190.095 63.8972C187.21 61.2044 185.342 57.9011 184.061 53.9873C182.921 50.5023 182.246 46.5333 181.732 42.0802C181.732 41.5926 181.74 41.1077 181.757 40.6258C182.293 24.8341 191.519 12.2637 202.822 12.2637C213.95 12.2637 223.066 24.4499 223.856 39.8985C223.893 40.619 223.911 41.3465 223.911 42.0802Z" fill="#FFDFC1"/>
<path d="M181.732 42.0802C181.732 41.5926 181.74 41.1077 181.757 40.6258C181.757 40.6258 180.686 40.2173 180.277 40.6258C178.823 42.0802 178.917 42.9691 178.823 43.5347C178.672 44.4407 178.562 46.7979 178.823 48.6253C179.052 50.2281 179.394 51.067 179.914 52.6251C180.277 53.716 181.368 54.4432 181.368 54.4432C181.368 54.4432 182.459 55.1704 183.55 54.8068C183.908 54.6875 184.061 53.9873 184.061 53.9873C182.921 50.5023 182.246 46.5333 181.732 42.0802Z" fill="#FFDFC1"/>
<path d="M223.856 39.8985C223.893 40.619 223.911 41.3465 223.911 42.0802C223.641 45.459 223.17 48.7876 222.404 51.8979C222.404 51.8979 223.207 52.5422 223.911 52.6251C224.752 52.7242 226.093 51.8979 226.093 51.8979C226.093 51.8979 228.065 50.2363 228.639 48.6253C229.259 46.881 228.778 44.8271 228.275 43.1711L228.259 43.1181C227.636 41.0707 227.169 39.5318 225.366 39.1713C224.724 39.0429 223.856 39.8985 223.856 39.8985Z" fill="#FFDFC1"/>
<path d="M203.913 72.2604C202.22 71.8091 200.66 71.2178 199.186 70.4972C199.186 70.4972 200.196 74.6628 199.186 76.9875C198.856 77.7469 198.566 78.1251 198.095 78.8055C194.943 83.3506 191.55 84.2598 185.732 86.0779C180.446 87.7297 176.488 87.1839 172.642 91.1685C171.3 92.5582 170.583 93.434 169.733 95.1683C168.519 97.644 168.374 99.3215 168.278 102.077C168.193 104.506 169.005 108.258 169.005 108.258L169.733 115.894L170.46 124.985L239.547 126.439C239.547 126.439 241.04 120.507 241.365 116.622C241.637 113.367 241.779 111.527 241.729 108.258C241.692 105.841 241.365 101.086 241.365 101.086C241.365 101.086 241.033 99.4955 240.638 98.5402C240.113 97.2717 239.611 96.5252 238.82 95.5319C237.74 94.1763 235.184 92.9866 235.184 92.9866L224.639 87.5323C224.639 87.5323 217.631 84.3012 214.094 80.9872C213.508 80.438 213.379 80.2427 213.003 79.5328C212.599 78.7694 212.391 78.2071 212.276 77.3511C211.791 73.7426 212.276 68.0279 212.276 68.0279C209.841 70.1747 207.474 71.7516 203.913 72.2604Z" fill="#FFDFC1"/>
<path d="M215.548 57.8151C215.548 57.8151 214.904 55.476 214.094 54.179C212.483 51.6017 210.275 51.3637 207.912 49.4519C206.033 47.9307 204.737 47.3067 203.185 45.4522C202.2 44.2742 201.806 43.4892 201.004 42.1796C199.742 40.1215 198.896 39.0024 198.095 36.7254C197.42 34.8076 197.004 31.6347 197.004 31.6347V19.6354C197.004 19.6354 197.367 19.999 197.004 20.7262C196.64 21.4535 196.64 21.8171 195.913 23.2715C195.049 24.9991 194.469 26.0484 193.368 27.6349C191.728 29.9968 189.004 33.4528 189.004 33.4528L186.095 36.7254L181.912 40.8245C181.912 40.8245 181.184 40.4609 180.821 40.4609C180.457 40.4609 176.278 41.0888 176.278 41.0888C176.278 41.0888 176.227 33.7061 176.641 30.1803C176.963 27.4419 178.096 23.2715 178.096 23.2715C178.096 23.2715 179.618 17.9908 181.732 15.3713C183.31 13.4164 184.568 12.3795 186.823 11.2722C189.023 10.1917 191.55 9.81772 193.004 9.81772C194.459 9.81772 198.822 10.1813 198.822 10.1813C198.822 10.1813 200.369 8.28691 201.731 7.63602C203.909 6.59509 205.524 6.47043 207.912 6.81984C210.301 7.16925 212.737 7.95942 215.548 9.36516C218.457 10.8196 220.231 12.9566 221.73 14.4558C222.821 15.5466 226.093 21.7281 226.093 21.7281C226.093 21.7281 228.067 26.7999 229.002 30.1803C229.886 33.3754 230.457 38.4545 230.457 38.4545L224.091 39.37L223.548 46.543C223.548 46.543 222.779 44.274 222.093 42.9068C221.264 41.2517 220.717 40.343 219.548 38.9071C218.089 37.1143 215.185 34.9073 215.185 34.9073C215.185 34.9073 212.039 32.1917 209.73 30.9075C208.231 30.0733 205.731 29.0894 205.731 29.0894C205.731 29.0894 204.36 28.26 203.549 27.6349C201.559 26.1015 199.186 22.9079 199.186 22.9079C199.186 22.9079 199.008 28.9273 199.549 32.7256C199.671 33.5807 199.549 32.7256 199.913 34.9073C200.18 36.5113 200.298 36.8993 201.004 38.1798C201.862 39.7382 202.848 40.7538 203.913 42.1796C204.994 43.628 207.185 45.4522 207.185 45.4522C207.185 45.4522 209.18 47.4467 210.458 48.7247C211.452 49.7187 213.003 51.27 213.003 51.27C213.003 51.27 214.3 52.4726 214.821 53.4517C215.633 54.9768 215.548 57.8151 215.548 57.8151Z" fill="#D03032"/>
<path d="M194.095 93.8134C191.68 90.849 190.459 84.723 190.459 84.723L178.096 87.6319C178.096 87.6319 180.281 89.6972 181.368 91.2681C182.96 93.5681 183.853 95.1292 184.641 97.8132C185.449 100.569 185.606 102.224 185.368 105.086C185.159 107.593 184.325 108.873 183.55 111.267C182.526 114.43 180.641 119.267 180.641 119.267L183.55 123.994L213.366 127.63L230.82 117.449C230.82 117.449 228.638 113.771 227.547 111.267C226.525 108.92 225.82 107.605 225.366 105.086C224.861 102.291 224.939 100.621 225.366 97.8132C225.885 94.3945 228.275 89.45 228.275 89.45L219.184 84.3594C219.184 84.3594 217.73 90.5409 215.912 93.8134C214.399 96.5358 213 98.1473 210.094 99.2677C207.311 100.34 204.984 100.731 202.094 99.9949C198.354 99.0424 196.593 96.8808 194.169 93.905L194.095 93.8134Z" fill="#9C84A0"/>
</g>
</svg>
