<svg width="110" height="73" viewBox="0 0 110 73" fill="none" xmlns="http://www.w3.org/2000/svg">
<path d="M52.7143 31.9375V32.9375H53.7143H57.1429C60.3781 32.9375 63 35.5571 63 38.7812V66.1562C63 69.3804 60.3781 72 57.1429 72H6.85714C3.62187 72 1 69.3804 1 66.1562V38.7812C1 35.5571 3.62187 32.9375 6.85714 32.9375H10.2857H11.2857V31.9375V21.6719C11.2857 10.278 20.579 1 32 1C43.421 1 52.7143 10.278 52.7143 21.6719V31.9375ZM42.2857 32.9375H43.2857V31.9375V21.6719C43.2857 15.4574 38.2219 10.4062 32 10.4062C25.7781 10.4062 20.7143 15.4574 20.7143 21.6719V31.9375V32.9375H21.7143H42.2857Z" stroke="#DEAB03" stroke-width="2"/>
<path d="M109.707 37.7071C110.098 37.3166 110.098 36.6834 109.707 36.2929L103.343 29.9289C102.953 29.5384 102.319 29.5384 101.929 29.9289C101.538 30.3195 101.538 30.9526 101.929 31.3431L107.586 37L101.929 42.6569C101.538 43.0474 101.538 43.6805 101.929 44.0711C102.319 44.4616 102.953 44.4616 103.343 44.0711L109.707 37.7071ZM79 38H109V36H79V38Z" fill="#DEAB03"/>
</svg>
