<svg width="100" height="100" viewBox="0 0 100 100" fill="none" xmlns="http://www.w3.org/2000/svg">
<path d="M19.5805 74.4906L19.2629 75.0887L19.7003 75.6056C26.9774 84.2058 37.8565 89.7097 50 89.7097C62.1435 89.7097 73.0226 84.2058 80.2997 75.6056L80.7371 75.0887L80.4195 74.4906C76.467 67.0482 68.7202 61.9032 59.6774 61.9032C59.0833 61.9032 58.5011 62.0021 57.9548 62.1683L57.9456 62.1711L57.9364 62.1741C55.413 62.9957 52.7566 63.5161 50 63.5161C47.2444 63.5161 44.6077 62.9961 42.0615 62.1734L42.0534 62.1708L42.0452 62.1683C41.4989 62.0021 40.9167 61.9032 40.3226 61.9032C31.2798 61.9032 23.533 67.0482 19.5805 74.4906ZM1 50C1 22.9313 22.9313 1 50 1C77.0687 1 99 22.9313 99 50C99 77.0687 77.0687 99 50 99C22.9313 99 1 77.0687 1 50ZM68.7419 37.0968C68.7419 26.7461 60.3507 18.3548 50 18.3548C39.6493 18.3548 31.2581 26.7461 31.2581 37.0968C31.2581 47.4474 39.6493 55.8387 50 55.8387C60.3507 55.8387 68.7419 47.4474 68.7419 37.0968Z" stroke="#DEAB03" stroke-width="2"/>
</svg>
