<svg width="80" height="80" viewBox="0 0 80 80" fill="none" xmlns="http://www.w3.org/2000/svg">
<circle cx="40" cy="40" r="40" fill="#EF8184"/>
<path d="M30.408 31.552C30.6213 30.976 30.728 30.4747 30.728 30.048C30.728 29.6213 30.6213 29.28 30.408 29.024C30.8987 28.8107 31.3573 28.704 31.784 28.704C32.232 28.704 32.6053 28.8427 32.904 29.12C33.2027 29.3973 33.352 29.76 33.352 30.208C33.352 30.656 33.2667 31.0933 33.096 31.52L25.64 50.368C25.3413 51.1147 25.0533 51.6267 24.776 51.904C24.4987 52.16 24.0827 52.288 23.528 52.288C22.9947 52.288 22.5787 52.1493 22.28 51.872C22.0027 51.5947 21.736 51.0933 21.48 50.368L14.376 31.488C14.056 30.6133 13.6613 30.0373 13.192 29.76C13.7253 29.12 14.3547 28.8 15.08 28.8C15.528 28.8 15.9013 28.96 16.2 29.28C16.52 29.6 16.808 30.1013 17.064 30.784L23.72 49.472L30.408 31.552ZM51.3865 33.152C51.3865 33.7493 51.2158 34.2293 50.8745 34.592C50.5545 34.9333 50.1812 35.104 49.7545 35.104C49.3492 35.104 48.8905 35.0187 48.3785 34.848C48.4638 34.5067 48.5065 34.176 48.5065 33.856C48.5065 33.0667 48.0905 32.3413 47.2585 31.68C46.4478 30.9973 45.3065 30.656 43.8345 30.656C42.3838 30.656 41.2212 30.9653 40.3465 31.584C39.4718 32.2027 39.0345 33.0347 39.0345 34.08C39.0345 35.104 39.4825 36 40.3785 36.768C41.2745 37.5147 42.3625 38.1653 43.6425 38.72C44.9438 39.2747 46.2345 39.84 47.5145 40.416C48.8158 40.992 49.9145 41.728 50.8105 42.624C51.7065 43.4987 52.1545 44.5013 52.1545 45.632C52.1545 47.5307 51.3225 49.12 49.6585 50.4C48.0158 51.6587 46.0425 52.288 43.7385 52.288C41.4345 52.288 39.5252 51.776 38.0105 50.752C36.4958 49.7067 35.7385 48.3947 35.7385 46.816C35.7385 46.1333 35.9305 45.5787 36.3145 45.152C36.6985 44.704 37.2105 44.48 37.8505 44.48C38.4905 44.48 38.9918 44.736 39.3545 45.248C38.8638 45.696 38.6185 46.3253 38.6185 47.136C38.6185 47.9467 39.0665 48.672 39.9625 49.312C40.8585 49.952 42.0852 50.272 43.6425 50.272C45.2212 50.272 46.5865 49.8667 47.7385 49.056C48.8905 48.2453 49.4665 47.2533 49.4665 46.08C49.4665 45.3333 49.1358 44.6507 48.4745 44.032C47.8345 43.4133 47.0238 42.9013 46.0425 42.496C45.0825 42.0907 44.0372 41.632 42.9065 41.12C41.7758 40.608 40.7198 40.096 39.7385 39.584C38.7785 39.072 37.9678 38.3893 37.3065 37.536C36.6665 36.6613 36.3465 35.6907 36.3465 34.624C36.3465 32.896 37.1038 31.4773 38.6185 30.368C40.1545 29.2373 41.9785 28.672 44.0905 28.672C46.2025 28.672 47.9412 29.1093 49.3065 29.984C50.6932 30.8587 51.3865 31.9147 51.3865 33.152ZM60.0763 47.904C60.6523 47.904 61.1003 48.0747 61.4203 48.416C61.7403 48.736 61.9003 49.1733 61.9003 49.728C61.9003 50.2827 61.6549 50.816 61.1643 51.328C60.6736 51.8187 60.1403 52.064 59.5643 52.064C59.0096 52.064 58.5616 51.904 58.2203 51.584C57.9003 51.2427 57.7403 50.7947 57.7403 50.24C57.7403 49.6853 57.9856 49.1627 58.4763 48.672C58.9883 48.16 59.5216 47.904 60.0763 47.904Z" fill="white"/>
</svg>
