<svg xmlns="http://www.w3.org/2000/svg" viewBox="0 0 167.06 283.79"><defs><style>.cls-1,.cls-6{fill:#fff;}.cls-1,.cls-3,.cls-4,.cls-5,.cls-6,.cls-7{stroke:#000;}.cls-1,.cls-10,.cls-3,.cls-4,.cls-5,.cls-6,.cls-7{stroke-miterlimit:10;}.cls-1{stroke-width:2px;}.cls-2,.cls-5{fill:#f69ea3;}.cls-3{stroke-width:0.5px;}.cls-4{stroke-linecap:round;stroke-width:3px;}.cls-5,.cls-7{stroke-width:1.5px;}.cls-6{stroke-width:2.5px;}.cls-10,.cls-7{fill:none;}.cls-8{fill:#fcb540;}.cls-9{fill:#aad698;}.cls-10{stroke:#feca7e;stroke-width:0.75px;}</style></defs><g id="Layer_3" data-name="Layer 3"><path class="cls-1" d="M43.45,110,20.77,77.41a74.54,74.54,0,0,1-6.9-13.75C11.58,57.67,9,50.93,9.23,41.9,9.32,38,9.51,30.26,14,24.08a19.41,19.41,0,0,1,6.31-5.61,15.08,15.08,0,0,1,7.39-1.89c4.23.09,7.26,2.18,9.46,3.73,4.3,3.05,6.76,6.73,9.11,10.29a73.18,73.18,0,0,1,7.57,15.74,113.27,113.27,0,0,1,5.33,20.1L64.39,94.3Z"/><path class="cls-2" d="M47.68,104.05,36.6,87.11a43,43,0,0,1-3.49-7.22,34.11,34.11,0,0,1-2.73-11.57c-.07-2.1-.22-6.27,1.6-9.7a9.29,9.29,0,0,1,2.64-3.17,5.73,5.73,0,0,1,3.23-1.2A6.78,6.78,0,0,1,42.18,56a18.15,18.15,0,0,1,4.37,5.3,42.7,42.7,0,0,1,3.84,8.27,70.33,70.33,0,0,1,3,10.67l3.17,14.85Z"/><path class="cls-1" d="M130.69,104.26,151,71.63a69.31,69.31,0,0,0,5.88-13.55c1.83-5.84,3.89-12.41,3-20.9-.4-3.66-1.21-10.94-6.24-16.38a19.43,19.43,0,0,0-6.81-4.75,16.13,16.13,0,0,0-7.61-1.15c-4.27.45-7.16,2.67-9.26,4.32-4.1,3.24-6.3,6.92-8.38,10.48a67,67,0,0,0-6.39,15.47,100,100,0,0,0-3.78,19.4l-3.06,26.7Z"/><path class="cls-2" d="M124.85,99.45l11.09-16.94a45.05,45.05,0,0,0,3.49-7.22,34.18,34.18,0,0,0,2.72-11.58c.07-2.09.23-6.26-1.59-9.7a9.41,9.41,0,0,0-2.64-3.17,5.86,5.86,0,0,0-3.24-1.2,6.84,6.84,0,0,0-4.33,1.77,18.24,18.24,0,0,0-4.36,5.3A43.1,43.1,0,0,0,122.14,65a70.67,70.67,0,0,0-3,10.67L116,90.5Z"/><path class="cls-1" d="M84.17,89.31a79.25,79.25,0,0,0-21.6,5.26c-6.56,2.63-16.66,6.68-24.94,16.6-4.21,5-6.25,9.56-9,15.56a94.54,94.54,0,0,0-7.29,24.63c-1.29,8.48-2.17,14.27-.36,21.87a42.77,42.77,0,0,0,7.14,15.34,44.13,44.13,0,0,0,15.91,13.14c7,3.61,13,4.52,22.63,6a115.68,115.68,0,0,0,15.14,1.33c2.33,0,4.68,0,17.28-1,16.63-1.29,20.14-1.84,24.27-2.86a52.53,52.53,0,0,0,11.87-4.16,43.07,43.07,0,0,0,18.38-18.65c6.67-13.38,3.8-27.63,2-36.4a89,89,0,0,0-4.08-13.92c-3.1-8.15-9.12-24-24.13-33.84a55.25,55.25,0,0,0-9.61-4.92,57.07,57.07,0,0,0-13.61-3.43,66.61,66.61,0,0,0-10.57-.62Z"/><circle class="cls-3" cx="124.58" cy="161.9" r="8.58"/><line class="cls-4" x1="133.98" y1="154.37" x2="130.54" y2="157.91"/><circle class="cls-3" cx="54.22" cy="162.6" r="8.58"/><line class="cls-4" x1="43.84" y1="156.48" x2="47.75" y2="159.49"/><path class="cls-5" d="M90.05,173.07l3.2-4.57a1.12,1.12,0,0,0-1-1.76l-6.72.35a1.12,1.12,0,0,0-.8,1.83l3.52,4.22A1.12,1.12,0,0,0,90.05,173.07Z"/><line class="cls-6" x1="56.54" y1="249.48" x2="72.67" y2="208.49"/><line class="cls-6" x1="112.22" y1="207.46" x2="127.84" y2="247.15"/><line class="cls-6" x1="86.74" y1="260.8" x2="100.16" y2="260.38"/><circle class="cls-1" cx="69.52" cy="260.8" r="17.23"/><circle class="cls-1" cx="117.38" cy="260.38" r="17.23"/><g id="smile"><path class="cls-7" d="M89.32,173.52a9.22,9.22,0,0,1-1.2,3.62c-.41.69-2.22,3.74-5.17,3.93-2.58.17-5.31-1.92-6.41-5.19"/><path class="cls-7" d="M89.06,173.84a9.16,9.16,0,0,0,1.8,3.37c.51.6,2.81,3.31,5.74,3,2.58-.27,4.92-2.78,5.46-6.2"/><path class="cls-5" d="M94.47,180.35a8.19,8.19,0,0,1-.58,4.05,3.81,3.81,0,0,1-2,2,4.31,4.31,0,0,1-3.49-.65A5.8,5.8,0,0,1,86.65,184a10.16,10.16,0,0,1-1.49-3.3A8.75,8.75,0,0,0,86,180a12.62,12.62,0,0,0,3.21-5A8.14,8.14,0,0,0,90,176.5a9.32,9.32,0,0,0,1.64,1.95A10.08,10.08,0,0,0,94,180.07Z"/></g><path class="cls-8" d="M92.42,195.85l13,3.32c1.7.43,2.46,2.8,1.58,4.92l-17.93,43.1c-1.55,3.72-5.74,2.65-5.31-1.35l4.91-46.43C88.92,197.13,90.72,195.41,92.42,195.85Z"/><polyline class="cls-9" points="94.81 196.46 94.55 187.82 97.94 192.97 102.67 182.82 102.25 193.76 107.25 191.06 103.36 198.64"/><line class="cls-10" x1="88.68" y1="199.41" x2="95.19" y2="201.07"/><line class="cls-10" x1="105.23" y1="208.36" x2="98.13" y2="206.55"/><line class="cls-10" x1="87.69" y1="208.84" x2="93.92" y2="210.43"/><line class="cls-10" x1="100.56" y1="219.58" x2="94.74" y2="218.09"/><line class="cls-10" x1="86.51" y1="219.98" x2="92.71" y2="221.56"/><line class="cls-10" x1="97.31" y1="227.39" x2="93.08" y2="226.31"/><line class="cls-10" x1="85.67" y1="227.84" x2="89.24" y2="228.75"/><line class="cls-10" x1="94.04" y1="235.26" x2="91.73" y2="234.67"/><line class="cls-10" x1="84.84" y1="235.68" x2="88.92" y2="236.73"/><line class="cls-10" x1="90.86" y1="242.92" x2="88.03" y2="242.2"/><line class="cls-10" x1="83.89" y1="244.68" x2="86.63" y2="245.38"/><line class="cls-10" x1="107.31" y1="201.5" x2="101.78" y2="200.09"/><path class="cls-1" d="M113.17,214c-7.3,0-15,5.69-15,12.7,0,7.77,8.28,12.65,13.42,12.11a14.38,14.38,0,0,0,5-1.71,12.75,12.75,0,0,0,2.79-3.67c7.06-12.55-4.88-22.29-6.18-24Z"/><path class="cls-1" d="M71.23,215.35c7.3,0,15,5.69,15,12.7,0,7.76-8.27,12.65-13.42,12.1a14.7,14.7,0,0,1-5-1.7A12.6,12.6,0,0,1,65,234.77c-7.06-12.54,4.88-22.28,6.17-24Z"/></g></svg>