<svg id="Layer_1" data-name="Layer 1" xmlns="http://www.w3.org/2000/svg" viewBox="0 0 447.07 768"><defs><style>.cls-1,.cls-5{fill:#f69ea3;}.cls-2{fill:#fff;}.cls-2,.cls-3,.cls-4,.cls-5,.cls-6{stroke:#000;}.cls-2,.cls-3,.cls-4,.cls-5,.cls-6,.cls-9{stroke-miterlimit:10;}.cls-2,.cls-4{stroke-width:6px;}.cls-4{stroke-linecap:round;}.cls-5,.cls-6{stroke-width:3px;}.cls-6,.cls-9{fill:none;}.cls-7{fill:#fcb540;}.cls-8{fill:#aad698;}.cls-9{stroke:#feca7e;stroke-width:2px;}</style></defs><path class="cls-1" d="M446.76,533.31V587c-1.66-2.49-3.52-5.09-5.58-7.76-1.69-2.18-4.95-4.38-6.6-6.27Z"/><path class="cls-2" d="M278.47,272.79c-10.62-13.2-17.49-28.05-22.08-37.2-15.33-30.48-18.45-56.73-19.11-63a195.41,195.41,0,0,1-.64-29.86c.9-17,1-25.44,5.1-35.7,3.15-8,8.64-21.81,22.92-28.55,14.69-6.93,29.56-1.69,32.48-.65,31.5,11.16,41.31,53.54,43.94,64.9,1.12,4.85,2.87,13.69,3.19,37a555.13,555.13,0,0,1-5.66,86.75Z"/><path class="cls-2" d="M194,327.82c-6.75-15.53-16.7-28.53-22.65-36.85-19.85-27.74-41.64-42.72-46.84-46.2a196,196,0,0,0-26.13-14.45c-15.42-7.1-23-10.92-34-12.1-8.51-.91-23.33-2.51-35.94,7-13,9.77-15.25,25.38-15.69,28.44-4.77,33.08,28.18,61.48,37,69.09,3.77,3.25,10.78,8.91,31.26,20a555.51,555.51,0,0,0,79.43,35.36Z"/><path class="cls-1" d="M179.78,335.68c-4.15-8.21-10-15.19-13.52-19.65a117,117,0,0,0-27.15-25.13,125.55,125.55,0,0,0-14.84-8.16c-8.73-4.08-13-6.26-19.13-7.16-4.73-.7-13-1.91-19.71,2.67C78.52,283,77.67,291,77.51,292.54c-1.77,17,17.22,32.53,22.31,36.7,2.17,1.78,6.2,4.89,17.84,11.19a354.5,354.5,0,0,0,44.9,20.38Z"/><path class="cls-1" d="M294,267c-5.22-7.23-8.6-15.36-10.86-20.37a111.83,111.83,0,0,1-9.39-34.47,118.78,118.78,0,0,1-.31-16.35c.44-9.28.51-13.93,2.5-19.55,1.55-4.35,4.25-11.94,11.27-15.63,7.22-3.8,14.53-.93,16-.36,15.49,6.11,20.31,29.32,21.6,35.54.55,2.65,1.41,7.5,1.57,20.26a339.6,339.6,0,0,1-2.78,47.51Z"/><path class="cls-2" d="M449.07,308.54a185.22,185.22,0,0,0-37.42-23.83c-70.23-33.62-138.32-10.93-147.75-7.63a187,187,0,0,0-41.94,21c-12.54,8.4-34.27,22.94-49.57,49.57-13.25,23.05-15.14,43.78-17.16,65.78a226.51,226.51,0,0,0,9.53,87.69c7.05,22.47,12.75,40.65,29.55,58.15,20.28,21.11,44.06,28.23,53.39,30.51,26.35,6.43,47.76,1.12,75.3-5.72a270.27,270.27,0,0,0,45.76-16.21c15.5-7.07,35-16.16,55.28-34.32a178.8,178.8,0,0,0,25-27.64"/><circle class="cls-3" cx="406.61" cy="411.09" r="19.97"/><line class="cls-4" x1="415.47" y1="384.48" x2="413.21" y2="395.74"/><circle class="cls-3" cx="269.96" cy="501.33" r="19.97"/><line class="cls-4" x1="241.94" y1="502.47" x2="253.38" y2="503.42"/><path class="cls-5" d="M353.22,476.52l.48-13a2.59,2.59,0,0,0-4.11-2.2l-12.69,9.16a2.6,2.6,0,0,0,.74,4.58l12.21,3.81A2.59,2.59,0,0,0,353.22,476.52Z"/><path class="cls-6" d="M352.37,478.32a21.44,21.44,0,0,1,2.22,8.61c.07,1.85.38,10.1-5.13,14.2-4.84,3.6-12.81,2.95-19.09-2.05"/><path class="cls-6" d="M352.26,479.28a21.33,21.33,0,0,0,7.77,4.31c1.77.54,9.68,2.92,15-1.37,4.71-3.78,6.1-11.65,2.84-19"/><path class="cls-5" d="M371.06,485.18c.86,1.06,3.72,5.11,4,8.64a8.94,8.94,0,0,1-1.43,6.44c-2.13,2.76-6.25,3.18-7.64,3.15a13.63,13.63,0,0,1-5.6-1.26,23.51,23.51,0,0,1-7.09-4.56c.3-.77.58-1.58.83-2.45a29.71,29.71,0,0,0,0-13.78,19.55,19.55,0,0,0,3.3,2,22.69,22.69,0,0,0,5.69,1.75,24.74,24.74,0,0,0,6.6.22Z"/><path class="cls-7" d="M408,509.67l35.11,5.42c4.58.71,7.18,6.75,5.4,12.56L412.27,645.73c-3.12,10.19-14.43,8.45-14.33-2.21L399.05,520C399.11,513.93,403.41,509,408,509.67Z"/><polyline class="cls-8" points="414.44 510.66 411.54 487.99 421.79 500.68 431.67 472.76 433.34 501.68 445.83 493.29 437.51 514.23"/><line class="cls-9" x1="399.05" y1="520.01" x2="416.61" y2="522.72"/><line class="cls-9" x1="444.91" y1="539.36" x2="425.74" y2="536.4"/><line class="cls-9" x1="398.83" y1="545.08" x2="415.64" y2="547.68"/><line class="cls-9" x1="435.48" y1="570.09" x2="419.76" y2="567.66"/><line class="cls-9" x1="398.56" y1="574.72" x2="415.29" y2="577.31"/><line class="cls-9" x1="428.91" y1="591.5" x2="417.5" y2="589.73"/><line class="cls-9" x1="398.37" y1="595.65" x2="408" y2="597.14"/><line class="cls-9" x1="422.3" y1="613.04" x2="416.06" y2="612.08"/><line class="cls-9" x1="398.18" y1="616.51" x2="409.19" y2="618.21"/><line class="cls-9" x1="415.86" y1="634.03" x2="408.24" y2="632.85"/><line class="cls-9" x1="397.97" y1="640.44" x2="405.36" y2="641.58"/><line class="cls-9" x1="448.63" y1="520.75" x2="433.73" y2="518.45"/><path class="cls-2" d="M389.89,558l4.62,1.48c.54,6.59-.16,6.61,2.82,10.64,1.44,1.94,5.85,4.63,6.94,4.42a62.93,62.93,0,0,0,9.45-2.33,24.65,24.65,0,0,1,17.52,1.08,23.12,23.12,0,0,1,12.61,16.64c2.1,12.6-8.67,22.72-14.19,27.9-7.11,6.69-14.25,9.54-20.84,12.17-9.45,3.77-15.73,6.28-23.65,5-1.69-.27-13.9-2.67-20.55-14.56-4.52-8-4.29-11.09-4.47-15.19-.32-7,.32-7.47,1.14-16.52.78-8.57.54-5.81,1.49-12.7l.57-5.79Z"/><path class="cls-2" d="M449.07,604.83l-6.45-4a50.81,50.81,0,0,1-2.42,4.57,55.21,55.21,0,0,1-8.84,11,73.92,73.92,0,0,1-10,8.44l-5.49,2.45,32.77,27.92"/></svg>