<svg xmlns="http://www.w3.org/2000/svg" xmlns:xlink="http://www.w3.org/1999/xlink" viewBox="0 0 1100 250"><defs><style>.cls-1{fill:#606161;opacity:0.95;}.cls-2{fill:#c4c4c4;}.cls-3{fill:#f7f5bc;stroke:#231f20;stroke-width:0.75px;}.cls-10,.cls-11,.cls-12,.cls-3,.cls-5,.cls-6,.cls-7,.cls-8,.cls-9{stroke-miterlimit:10;}.cls-4{fill:#dac3ab;}.cls-10,.cls-11,.cls-5,.cls-6,.cls-7,.cls-8{stroke:#21366a;}.cls-5{fill:url(#linear-gradient);}.cls-6{fill:url(#linear-gradient-2);}.cls-7{fill:url(#linear-gradient-3);}.cls-8{fill:#172e56;}.cls-9{fill:#ededed;stroke:#172e56;}.cls-10{fill:#24508d;}.cls-11{fill:#2c4a87;}.cls-12{stroke:#7594cc;fill:url(#linear-gradient-4);}</style><linearGradient id="linear-gradient" x1="921.82" y1="176.78" x2="967.7" y2="176.78" gradientUnits="userSpaceOnUse"><stop offset="0.06" stop-color="#21366a"/><stop offset="0.52" stop-color="#30538c"/></linearGradient><linearGradient id="linear-gradient-2" x1="813.14" y1="121.09" x2="972.85" y2="121.09" gradientUnits="userSpaceOnUse"><stop offset="0.07" stop-color="#172e56"/><stop offset="0.29" stop-color="#21366a"/><stop offset="0.5" stop-color="#21386d"/><stop offset="0.64" stop-color="#213d76"/><stop offset="0.76" stop-color="#224785"/><stop offset="0.79" stop-color="#224a8a"/></linearGradient><linearGradient id="linear-gradient-3" x1="759.57" y1="213.45" x2="942.38" y2="213.45" gradientUnits="userSpaceOnUse"><stop offset="0.05" stop-color="#21366a"/><stop offset="0.52" stop-color="#30538c"/></linearGradient><linearGradient id="linear-gradient-4" x1="796.05" y1="144.76" x2="907.31" y2="144.76" gradientUnits="userSpaceOnUse"><stop offset="0.42" stop-color="#86a2d4"/><stop offset="1" stop-color="#6b8ec9"/></linearGradient></defs><g id="Layer_2" data-name="Layer 2"><rect class="cls-1" width="1100" height="250" transform="translate(1100 250) rotate(180)"/><rect class="cls-2" x="1028.8" y="80.98" width="10.48" height="168.64"/><path class="cls-3" d="M976.39,1,941,77.54c-2.15,4.64.53,10.44,4.82,10.44H1122c4.29,0,7-5.8,4.83-10.44L1091.49,1"/><g id="legs"><path class="cls-4" d="M935.78,234.12l14.32,58a6.13,6.13,0,0,1-2.64,1.44,6.89,6.89,0,0,1-5.51-1.2l-13.43-51.76-.45-1.6Z"/><path class="cls-4" d="M792.35,237.84l-20.89,95.42a10.19,10.19,0,0,0,2.51,1.09,8.82,8.82,0,0,0,6.2-.35,7.71,7.71,0,0,0,2.11-1.52l7.56-33.88,13.36-58.12Z"/><path class="cls-4" d="M836.28,244.68l-2.44,28.82a4.27,4.27,0,0,0,1.22,1c2.3,1.29,5-.07,5.34-.26L843,245.48Z"/></g><path class="cls-5" d="M967.7,149.89a7.52,7.52,0,0,0-2.52-2.34c-.75-.42-1.84-.84-4.53-.93a31,31,0,0,0-6.17.47,33.75,33.75,0,0,0-7.08,1.64,28.21,28.21,0,0,0-5.67,2.84,29.07,29.07,0,0,0-6.35,5.64,18.76,18.76,0,0,0-2.48,3.63,16.37,16.37,0,0,0-1.34,3.88c-.23,1.06-.16,1.21-.42,3.36-.09.65-.3,2.31-.63,4.07a36.85,36.85,0,0,1-1.27,5.09,34.83,34.83,0,0,1-2.07,4.81c-1.52,2.91-1.93,2.73-3.4,5.52-1.82,3.47-2,5.25-1.94,6.4a5.18,5.18,0,0,0,.78,2.82,5.41,5.41,0,0,0,2.25,1.84c2.84,1.53,5.23,2.49,5.33,2.54l5.33,2.53,6.86,3.26c.48-.61,1.18-1.53,2-2.7a59.28,59.28,0,0,0,4.18-7.69c1.18-2.44,2.2-4.59,3.21-6.79,1.65-3.57,2.49-5.35,2.85-6.26a70.58,70.58,0,0,0,3-9.64c.92-3.72,1.74-7.91,1.8-8.24a30.93,30.93,0,0,1,2.07-7.51,23,23,0,0,1,1.68-3.11,22,22,0,0,1,3.14-3.82Z"/><path class="cls-6" d="M813.14,178.16c1.77-.24,4.45-.56,7.71-.84,11.49-1,20.06-.15,26.88,0,30.94.68,45.56,3.32,50.71,4.38,7.69,1.59,15.09,3.74,15.09,3.74,4,1.16,7.31,2.27,9.74,3.13,1.13-1.87,2.05-3.45,2.7-4.6a40.71,40.71,0,0,0,2.81-5.41,35.69,35.69,0,0,0,1.39-4.85c.12-.51.43-1.89.72-3.75.49-3.07.32-3.61.67-5.24a16.68,16.68,0,0,1,2.1-5.2,21.72,21.72,0,0,1,6.05-6.47,30.63,30.63,0,0,1,7.69-4.32,31.91,31.91,0,0,1,7.73-2.12,29.56,29.56,0,0,1,4-.26l-1.5-.55a9.39,9.39,0,0,1-1.88-3.25,6.54,6.54,0,0,1,0-2.8,22.24,22.24,0,0,1,1.12-4.34c1-3.18.67-2.65,1.68-5.76.77-2.37,1.07-3,1.65-5.06.33-1.2.56-2.21.71-2.88.52-2.23.81-3.92.9-4.4.68-3.82,1.53-7.61,2.28-11.42,2.31-11.66,5.15-22,6.81-31.83.68-4,.71-5.76,1.42-10.23.21-1.36.24-2.74.38-4.11a6.42,6.42,0,0,0-.11-3.12,4.69,4.69,0,0,0-1.56-2.06,6.21,6.21,0,0,0-3.95-.92c-4.4,0-7.73.23-7.73.23-2.83.24-4.24.35-5.62.52-2.14.26-4,.57-6.9,1.12-4.15.78-6.83,1.38-9.52,1.95-3.74.79-6.29,1.28-11.38,2.26-7.62,1.46-11.51,2.2-15.76,2.7-3.93.45-6.9.62-8.86.72a167.64,167.64,0,0,1-21.81-.31c-1.71-.13-4.46-.33-8.08-.76-3-.36-3.31-.49-7.37-1-3.77-.5-7-.85-9.32-1.08-3.51-.35-6.13-.55-8.09-.7-3.16-.24-4.78-.35-6.49-.39-2.11,0-2,0-6.85.13-4.48.08-4.94,0-6.33.28a10.89,10.89,0,0,0-5.43,2.13,9.61,9.61,0,0,0-2.85,4.42c-.67,1.87-.64,3.81-.55,7.61.08,3.43.36,4.84.31,8.71,0,1-.05,1.86-.07,2.41l-2.18,23.74-1.85,32.22Z"/><path class="cls-7" d="M800.71,179.93a91.55,91.55,0,0,0-13.38,3.63,90.05,90.05,0,0,0-17.63,8.58c-.19.36-.49.92-.91,1.58-1.53,2.34-2.83,3.07-4.88,5.22a15.1,15.1,0,0,0-3.18,4.08,10.42,10.42,0,0,0-1.12,5.54c.09,1,.36,2.28,1.94,5.08a40.34,40.34,0,0,0,4.64,6.64,52.25,52.25,0,0,0,13.46,11.93c.28.17,1.63,1,3.5,1.9a57.56,57.56,0,0,0,11.5,4.23c8.74,2.29,16.86,3.52,17.65,3.64,11.66,1.74,16.83,1.9,32.87,3.76,4.07.47,6.18.79,11.54,1.41,7.2.85,11.2,1.25,17.56,1.87.59.06,7.94.77,16.4.9a21.37,21.37,0,0,0,9.06-1.3c.8-.34,2.69-1.23,4.67-2.26,1.67-.88,1.83-1,3.09-1.69,2.63-1.37,3.49-1.51,6.19-2.74a30.22,30.22,0,0,0,5.83-3.1c.53-.39,1.4-1.08,4.89-5.24a71.19,71.19,0,0,0,5.8-7.42,55.8,55.8,0,0,0,3.44-6.44c1-2.31.91-2.46,1.71-3.94a33.12,33.12,0,0,1,4.15-5.63c1.08-1.28,2.07-2.35,2.88-3.2-2.48-1.22-4.54-2.19-6-2.85-2.82-1.29-5.56-2.75-8.43-3.93-2.67-1.09-4.34-1.62-5.35-3.39a6.33,6.33,0,0,1-.78-2.82,8.71,8.71,0,0,1,1.44-5.4c-1.44-.51-3.52-1.22-6-2a193,193,0,0,0-27.05-6.33c-18.95-3.13-36.43-3.2-51.86-3.26C827.11,176.93,814.16,177.26,800.71,179.93Z"/><path class="cls-8" d="M802.19,179.55a94.4,94.4,0,0,0-14.86,4,93.13,93.13,0,0,0-13.42,6.08c-1.75,1-3.18,1.85-4.21,2.5a8,8,0,0,0,.15-2.87,7.89,7.89,0,0,0-.58-2.1,74.51,74.51,0,0,1-2.19-7.38,77.81,77.81,0,0,1-2.3-11.12,57.81,57.81,0,0,1-.95-8.59,38.47,38.47,0,0,1,.56-8.1c.82-4.5,1.42-7.79,4-10.19,2.29-2.15,5-2.51,8.34-2.95,4.85-.64,7.5.28,14.85,1.18,2.43.29,7.5.71,12,.91Z"/><g id="buttons"><circle class="cls-9" cx="853.5" cy="91.5" r="3"/><circle class="cls-9" cx="892" cy="92" r="2.5"/><ellipse class="cls-9" cx="929" cy="88" rx="2.53" ry="2.47" transform="translate(210.2 683.07) rotate(-45.03)"/><ellipse class="cls-9" cx="924" cy="137.5" rx="3.01" ry="2.48" transform="translate(630.99 1024.53) rotate(-80.18)"/></g><path class="cls-10" d="M961.32,146.6l9.77-73.67c-1.29,5.91-2.4,11.08-3.29,15.28-2.49,11.75-3.74,17.62-4.31,20.78-.65,3.61-1.46,7.19-2.16,10.79-.16.85-.52,2.71-1.21,5.15-.28,1-.37,1.22-1.21,3.86-.54,1.68-1.17,3.79-2.42,8a14,14,0,0,0-.84,4,5.75,5.75,0,0,0,1.23,4.21,4.7,4.7,0,0,0,2.27,1.29Z"/><path class="cls-11" d="M967.5,149.89a22.75,22.75,0,0,0-5.76,7.16c-1.17,2.29-1.6,4.16-2.41,7.82-2.24,10-2.27,10.53-2.71,12.32-1.2,4.84-3,8.54-6.62,15.94-3.47,7.1-5.2,10.65-7.82,13.83s-4.37,4.27-6.62,8.12c-2.09,3.56-1.61,4.31-3.92,8.42a55.89,55.89,0,0,1-6.32,8.72c-2.93,3.58-4.4,5.37-6,6.61-3.25,2.51-5.13,2.53-11.14,5.41-5.83,2.8-4.42,2.9-7.22,3.91-6.26,2.27-12.82,1.84-17.14,1.55-1.1-.07-2-.16-2.62-.22l-7.12-.46,11.33,1.69c1.29.06,15.68.61,22.65-1.47.27-.08,1.78-.54,3.73-1.22a39.29,39.29,0,0,0,12.52-6.24c9.57-6.41,9.7-6.8,12.46-8.32a38,38,0,0,0,3.71-2.29,35.25,35.25,0,0,0,3.57-2.84,38,38,0,0,0,5.14-5.8c4.9-6.75,9.47-17.32,9.71-17.9,1.15-2.67,3-8.37,6.75-19.78,1-3.2,2.39-7.43,2.17-11.64,0-.49-.13-2-.21-4.19-.08-2.49-.08-4.34-.08-5.67,0-3,0-6.32,0-10.48Z"/><path class="cls-12" d="M800.36,115.4c1.6,2.34,1.73,6.2,1.94,13.82.15,5.45-.24,20.32-2.67,31a66.3,66.3,0,0,1-2.18,8.25c-.85,2.3-1.81,4.32-1.22,6.78a6.59,6.59,0,0,0,1.46,2.91c.67.76,2.2,2.08,7.28,2.43a34,34,0,0,0,6.79-.24c2.6-.33,6.1-.38,13.11-.49,5.93-.09,8.21.41,15.77,1,6,.45,10.71.53,20.14.73,13.48.28,16.28-.57,26.68,0a104.22,104.22,0,0,1,11.29.95c2,.62,4.21,1.6,6,.58a5.47,5.47,0,0,0,2.24-3.55c1.16-4.32-1.38-8.26-2.9-11.36-4.81-9.87-4.37-19.92-4.22-23.41,0-.9.62-5.06,1.79-13.38a109,109,0,0,0,1.25-10.88c.24-5.26,1.31-8.07-.36-10.88a6.18,6.18,0,0,0-3.21-2.85c-1.83-.63-3.32.3-5.71,1.07a61.07,61.07,0,0,1-8,1.25,84.13,84.13,0,0,1-11.42.89,74.63,74.63,0,0,1-10-.7c-4.34-.59-5.75-1.16-9.41-1.88a68.45,68.45,0,0,0-21.24-1.07c-4.83.58-4.64,1.23-10.49,1.88a66.79,66.79,0,0,1-12.64.27c-2.07-.17-5.31-1.6-7.36-2-2.68-.46-3,.26-3.93,1.14a3.44,3.44,0,0,0-.54,2.69A10.31,10.31,0,0,0,800.36,115.4Z"/></g></svg>