<svg id="Layer_1" data-name="Layer 1" xmlns="http://www.w3.org/2000/svg" viewBox="0 0 6.78 6.24"><defs><style>.cls-1{fill:#efaec9;}</style></defs><path class="cls-1" d="M4,1.67a1.65,1.65,0,0,1,.2-1,1.13,1.13,0,0,1,.4-.39A1.08,1.08,0,0,1,5.43.21,1.12,1.12,0,0,1,6,.57a1.53,1.53,0,0,1,.31.56,3.51,3.51,0,0,1,.16,1.28,7.42,7.42,0,0,1-.36,2.37,6.39,6.39,0,0,1-.58,1.28"/><path class="cls-1" d="M4,1.67a3.3,3.3,0,0,0-.41-.26,1.52,1.52,0,0,0-.51-.24.7.7,0,0,0-.58,0,.73.73,0,0,0-.34.46,2.1,2.1,0,0,0,0,.84,2.64,2.64,0,0,0,0,.28,1.38,1.38,0,0,0-.91-.22,1,1,0,0,0-.52.19,1.11,1.11,0,0,0-.45.74,1.14,1.14,0,0,0,.1.63,1.59,1.59,0,0,0,.37.52,3.89,3.89,0,0,0,1.09.71A7.66,7.66,0,0,0,4.08,6a7,7,0,0,0,1.41,0"/></svg>