<svg id="Layer_1" data-name="Layer 1" xmlns="http://www.w3.org/2000/svg" viewBox="0 0 1100 250"><defs><style>.cls-1{fill:#c7e6d6;}.cls-2{fill:#fff;}.cls-3,.cls-5,.cls-7,.cls-8,.cls-9{fill:none;}.cls-3{stroke:#dcdbdb;stroke-width:4px;}.cls-3,.cls-5,.cls-6,.cls-7,.cls-8,.cls-9{stroke-miterlimit:10;}.cls-4{fill:#efaec9;}.cls-5,.cls-6{stroke:#c4c2c3;stroke-width:0.75px;}.cls-6{fill:#c4c2c3;}.cls-7,.cls-8,.cls-9{stroke:#c4c4c4;stroke-linecap:round;stroke-width:3px;}.cls-8{stroke-dasharray:0.05 10.01;}.cls-9{stroke-dasharray:0.05 9.83;}</style></defs><rect class="cls-1" y="29.36" width="1100" height="191.28"/><circle class="cls-2" cx="110.35" cy="122.83" r="76.84"/><circle class="cls-3" cx="110.69" cy="122.86" r="67.78"/><path class="cls-4" d="M108.37,86.2a9.17,9.17,0,0,1,1.14-5.42,6,6,0,0,1,2.14-2.13,6.13,6.13,0,0,1,4.74-.46,6.53,6.53,0,0,1,2.9,2A8.47,8.47,0,0,1,121,83.23a19.68,19.68,0,0,1,.91,7,40.78,40.78,0,0,1-2,13,37.68,37.68,0,0,1-3.21,7"/><path class="cls-4" d="M108.37,86.2a19.56,19.56,0,0,0-2.22-1.45,9.9,9.9,0,0,0-2.81-1.27,3.76,3.76,0,0,0-3.13.13,4.29,4.29,0,0,0-1.91,2.53A11.45,11.45,0,0,0,98,90.72q0,.81.15,1.53a7.87,7.87,0,0,0-5-1.17,6,6,0,0,0-2.85,1,6.1,6.1,0,0,0-2.45,4.07,6.39,6.39,0,0,0,.54,3.47,8.24,8.24,0,0,0,2,2.84,20,20,0,0,0,5.94,3.85,41.07,41.07,0,0,0,12.57,3.8,37.75,37.75,0,0,0,7.72.13"/><path class="cls-5" d="M83.57,148.47a34.41,34.41,0,0,0,4.2,6.7c2.28,2.84,5.84,7.3,12,9.24a21.17,21.17,0,0,0,10,.55,22.5,22.5,0,0,0,14-7.82c3.14-3.94,3.9-7.94,4.47-10.91,1.54-8.09-.47-14.65-1.68-18.45a46.35,46.35,0,0,0-10.36-17.53"/><path class="cls-6" d="M122.84,119.27a78.21,78.21,0,0,1,5.57,13.89,32.12,32.12,0,0,1,.87,12.31,29.17,29.17,0,0,1-1.05,4.6,20.92,20.92,0,0,1-2.34,5.46,20.25,20.25,0,0,1-3,3.66,21.5,21.5,0,0,1-5.18,3.64,23.4,23.4,0,0,1-8.39,2.38,29.6,29.6,0,0,1-6.47-.1,27.74,27.74,0,0,0,9.08.21c1.21-.21,10.48-2,15.4-10.26a23.41,23.41,0,0,0,2.93-10.27,33.85,33.85,0,0,0-1.61-14.08,53.06,53.06,0,0,0-5.4-10.7Z"/><path class="cls-5" d="M138.18,115.71a11.66,11.66,0,0,0-5.26,2.53,12.25,12.25,0,0,0-3.62,5.62,14.7,14.7,0,0,0-.65,6.85,9.82,9.82,0,0,0,2.12-.41,10.92,10.92,0,0,0,7-6.81,19.81,19.81,0,0,0,.66-5.18c0-.71,0-1.29,0-1.7Z"/><path class="cls-5" d="M128.08,147a8.88,8.88,0,0,0-3.18-4.22,9.47,9.47,0,0,0-4.77-1.19,28.93,28.93,0,0,0-5.16.26c-1,.1-1.73.2-2.25.27a16.53,16.53,0,0,0,1.72,2.91,12.22,12.22,0,0,0,4.9,4.37,11.92,11.92,0,0,0,4.9.93,4.46,4.46,0,0,0,3.26-.83Z"/><polyline class="cls-7" points="1098.48 248.48 1098.48 248.5 1098.45 248.5"/><line class="cls-8" x1="1088.44" y1="248.5" x2="6.65" y2="248.5"/><polyline class="cls-7" points="1.64 248.5 1.62 248.5 1.62 248.48"/><line class="cls-9" x1="1.62" y1="238.65" x2="1.62" y2="6.43"/><polyline class="cls-7" points="1.62 1.51 1.62 1.49 1.64 1.49"/><line class="cls-8" x1="11.65" y1="1.49" x2="1093.45" y2="1.49"/><polyline class="cls-7" points="1098.45 1.49 1098.48 1.49 1098.48 1.51"/><line class="cls-9" x1="1098.48" y1="11.35" x2="1098.48" y2="243.56"/></svg>