<?xml version="1.0" encoding="UTF-8"?><svg id="Birthday_Cake" xmlns="http://www.w3.org/2000/svg" viewBox="0 0 285.81 269.68"><defs><style>.cls-1{fill:#f6eee8;}.cls-1,.cls-2{stroke-width:0px;}.cls-3{fill:#be4133;stroke-width:.75px;}.cls-3,.cls-4,.cls-5,.cls-6,.cls-7,.cls-8,.cls-9,.cls-10,.cls-11,.cls-12{stroke:#000;stroke-miterlimit:10;}.cls-4{fill:#dd4f3d;stroke-width:1.3px;}.cls-5{fill:#e0a99e;stroke-width:1.5px;}.cls-6{fill:#fff;stroke-width:2px;}.cls-7{fill:#d5aea6;}.cls-8{fill:#f7dcd5;}.cls-9{fill:#ebb547;}.cls-9,.cls-10,.cls-11{stroke-width:1.2px;}.cls-10{fill:#fadc82;}.cls-11{fill:#67504b;}.cls-12{fill:none;}.cls-13{opacity:.9;}.cls-2{fill:#ededed;}</style></defs><polygon id="candle" class="cls-9" points="145.88 50.06 145.88 96.45 156.49 96.63 156.49 50.06 145.88 50.06"/><path id="cake_icing" class="cls-6" d="M64.03,167.87c-.73-.33-4.4-2-6.09-5.6-2.04-4.34-.15-9.36,0-9.98.6-2.45,1.27-3.39,1.7-6.33.28-1.87.26-3.26.24-5.11-.06-5.38-.88-6.61-.49-9.98.33-2.85,1.23-4.85,1.46-5.36,1.49-3.3,4.87-6.33,4.87-6.33,6.17-5.55,12.66-9.01,12.66-9.01,2.36-1.58,4.48-2.26,6.82-3.17,2.8-1.08,4.97-1.81,6.82-2.43,2.98-1,5.27-1.7,6.09-1.95,3.08-.93,5.56-1.68,8.77-2.43,3.23-.76,5.57-1.13,8.71-1.63,2.81-.45,6.86-1.09,12.23-1.53,3.86-.32,6.53-.38,11.2-.49,8.62-.19,15.78,0,20.94.24,2.34.11,4.95.23,8.28.49,5.13.4,13.35,1.05,21.67,2.92,8,1.8,13.48,4.23,23.86,8.77,5.13,2.24,9.36,3.55,14.37,6.82,3.84,2.51,5.96,3.72,8.04,6.33,3.48,4.38,4.41,9.21,5.36,14.12.68,3.53.82,6.23.97,9.5.2,4.21-.08,6.31-.24,13.39-.05,2.01.25,4.67-.1,8.37-.25,2.66-.63,4.34-1.67,6-.34.53-1.15,1.7-3.21,3.21-1.04.76-4.19,2.91-9.63,4.05-3.62.76-6.94,1.45-10.88.28-3.43-1.02-5.54-2.9-8.37-5.44-2.88-2.58-6.08-6.3-7.81-9.49-.28-.51-1.17-2.2-2.65-4.33-.82-1.17-1.02-2.19-1.67-2.23-.58-.03-.97.65-1.95,1.95-1.41,1.88-.83.81-2.51,3.07-1.04,1.39-2.73,3.68-4.6,6.98-1.87,3.29-1.32,3-2.37,4.6-2.38,3.62-5.5,5.6-8.37,7.4-2.53,1.58-4.09,2.55-6.42,3.21-5.23,1.48-9.75.11-11.44-.42-1.67-.52-7.83-2.45-11.3-7.67-.98-1.48-1.65-3.06-3.63-4.33-1.62-1.03-2.75-.98-5.02-1.95-2.33-1-3.87-2.25-4.74-2.93-2.07-1.61-3.3-3.13-5.16-5.44-2.63-3.26-2.66-3.99-4.74-6-2.57-2.47-4.18-2.95-4.6-3.07-2.12-.58-3.93-.13-5.02.14-2.75.68-4.52,2.15-5.44,2.93-2.49,2.1-3.64,4.45-4.19,5.58-.87,1.8-1.24,3.37-1.67,5.16-.57,2.39-.4,2.71-.98,4.88-.47,1.75-.85,3.2-1.81,4.88-1.39,2.45-3.13,3.89-4.19,4.74-1.46,1.18-2.6,2.12-4.46,2.65-.7.2-2.9.8-5.44,0-1.98-.62-3.15-1.77-4.6-3.21-2.13-2.1-3.32-4.29-3.63-4.88-.98-1.87-.87-2.44-1.95-3.91-.43-.58-1.35-1.81-2.93-2.79-1.15-.71-1.93-.85-3.77-1.4-.52-.16-3.57-1.07-5.26-1.84Z"/><path id="strawberry" class="cls-3" d="M115.81,104.81c-.69-1.29-.56-3.62-.41-4.87.35-2.92.84-4.52,1.45-5.86,1-2.21,2.42-3.52,3.11-4.15.96-.88,2.19-1.96,4.04-2.31.53-.1,1.18-.21,1.96,0,.41.11,1.38.46,2.77,2.42,1.11,1.57,1.68,3.01,1.96,3.81.79,2.22,1.48,4.07,1.38,6.58-.07,1.85-.16,4.23-1.96,5.77-.91.77-1.87.94-3.81,1.27,0,0-2.69.46-6.71-.3-.28-.05-.81-.16-1.45-.42-.46-.18-.88-.35-1.32-.69,0,0-.61-.48-1.01-1.25Z"/><path id="strawberry-2" class="cls-4" d="M84.11,107.94c-.08-.41-.35-1.82-.12-3.73.06-.52.29-2.14,1.2-4.1,1.3-2.77,3.12-4.38,5.66-6.63,1.28-1.13,2.18-1.76,3.13-2.29,2.11-1.17,3.52-1.3,3.86-1.33.88-.07,1.77-.14,2.65.36,1.03.58,1.45,1.59,1.93,2.77.4.99.37,1.34.84,3.49.36,1.65.57,2.64.96,3.86.3.93.72,2.26,1.57,3.86.9,1.69,1.32,1.88,1.69,3.13.17.57.5,1.68.24,3.01-.45,2.34-2.39,3.64-2.89,3.98-1.43.96-2.81,1.14-4.22,1.33-.88.12-2.03.08-4.34,0-1.66-.06-2.51-.09-3.61-.24-1.71-.24-2.51-.51-3.45-1-.99-.52-1.63-.99-2.82-2.26-1.1-1.17-1.46-1.84-1.57-2.05-.45-.86-.61-1.6-.72-2.17Z"/><path id="strawberry-3" class="cls-4" d="M148.51,91.09c-2.93,2.61-6.39,7.79-6.39,7.79-2.81,4.21-2.83,3.39-4.59,6.39-2.35,3.99-2.98,6.56-3.2,7.59-.52,2.44-.43,4.17-.4,4.59.11,1.78.24,3.8,1.6,5.59,1.2,1.58,2.76,2.19,4.79,3,.95.37,2.21.79,5.79,1.4,5.6.95,8.83,1.01,10.39,1,2.8-.02,4.01-.26,5.19-.8.74-.34,2.48-1.16,3.6-3,.38-.62,1.6-1.82,1.62-6.04.02-3.35-.58-5.73-.99-7.16-.45-1.57-1.56-3.65-3.03-5.97-1.56-2.45-2.15-2.68-3.8-5.19-1.57-2.4-1.63-3.57-3.2-5.99-1.22-1.88-1.63-3.06-2.92-3.75-.35-.19-1.25-.65-2.37-.5-1.03.14-1.73.73-2.1,1.06Z"/><path id="strawberry-4" class="cls-3" d="M170.71,103.29c-.21-.44-.67-1.54-.25-4.79.27-2.07.84-3.22,1.42-4.54.69-1.58.98-1.98,2.39-3.82,2.46-3.2,3.59-3.58,4.3-3.81.53-.17,1.44-.45,2.46-.12,1.31.42,2.02,1.6,2.46,2.33.6,1.01.37,1.16,1.11,2.7.44.91.85,1.54,1.6,2.7,1.19,1.83,1.25,1.65,1.6,2.33.22.43,1.19,2.35.61,4.55-.56,2.12-2.26,3.29-3.19,3.93-.37.25-.97.66-1.84.98-1.54.56-1.62.54-5.02.58-1.77.02-2.88-.21-4.07-.45-1.34-.27-1.97-.68-2.33-.98-.14-.11-.76-.64-1.23-1.6Z"/><path id="strawberry-5" class="cls-4" d="M190.62,116.43c-.28-.37-.88-1.38.12-5.04.68-2.49,1.58-4.3,1.97-5.04.96-1.84,1.84-3.06,3.19-4.92,1.21-1.67,2.05-2.65,3.56-4.42,2.27-2.66,2.96-3.21,3.93-3.56,1.47-.54,2.79-.33,3.32-.25,2.31.38,3.79,1.82,5.04,3.07,1.42,1.42,2.18,2.72,2.95,4.06,1.43,2.47,2.02,4.52,3.19,8.6.91,3.15,1.08,4.44.37,5.41-.32.43-.81.95-1.82,1.56-1.51.91-3.03,1.55-3.46,1.72-2.82,1.13-4.04,1.38-6.16,1.71-1.41.22-2.95.14-6.04,0,0,0-2.84-.13-6.36-.89-.51-.11-1.46-.33-2.5-.97-.46-.28-.96-.59-1.31-1.05Z"/><path id="cake" class="cls-11" d="M64.03,167.87c-.33,16.27-.66,32.55-.99,48.82.84.53,2.06,1.26,3.56,2.02,4.27,2.17,7.89,3.12,10.62,3.79,7.88,1.93,14.34,2.98,14.66,3.03,7.36,1.18,13.82,2.21,23.51,3.29,9.5,1.05,16.9,1.57,19.97,1.77,0,0,15.41,1.01,35.14,1.01.91,0,3.01,0,6.57,0,5.02,0,5.61.03,7.08,0,.74-.01,4.39-.08,9.1-.51,3.31-.3,7.39-.68,12.64-1.77,3.7-.77,6.3-1.54,9.61-2.53,4.77-1.42,7.59-2.27,11.12-4.04,2.43-1.22,4.31-2.43,5.56-3.29v-40.06c-1.1.4-2.64.89-4.51,1.32-2.55.58-4.9,1.11-7.64.86-3.52-.32-6.01-1.78-7.76-2.81-4.17-2.46-6.66-5.7-8.71-8.36-1.49-1.93-2.45-3.46-2.45-3.46-1.57-2.49-2.36-3.74-2.94-4.88-.71-1.41-1.17-2.56-1.9-2.56-.32,0-.57.22-.96.64-1.07,1.13-1.6,1.69-2.12,2.68-.92,1.75-1.13,1.22-3.38,4.49-.46.67-1.86,2.74-3.36,5.57-1.2,2.27-1.27,2.75-2.19,4.04-.34.48-1.21,1.65-3.19,3.37-1.62,1.41-4.07,3.55-7.94,5.18-1.81.77-4.23,1.79-7.58,1.9-3.01.1-5.27-.58-6.96-1.08-1.53-.46-3.92-1.2-6.56-3.04-.97-.68-2.77-1.97-4.43-4.2-1.47-1.96-1.64-3.07-3.3-4.31-.63-.47-.91-.54-3.23-1.55-2.98-1.3-4.46-1.95-5.45-2.51-1.99-1.13-3.13-2.38-4.94-4.36-2.93-3.22-3.22-4.72-6.69-8.36-1.15-1.2-2.17-2.15-3.75-2.75-1.86-.71-3.53-.58-4.26-.51-2.13.19-3.63.99-4.61,1.53-2.9,1.58-4.47,3.76-5.14,4.7-1.19,1.69-1.77,3.17-2.18,4.25-1.21,3.19-.75,4.13-1.97,8.41-.6,2.12-.9,3.18-1.61,4.5-.44.82-1.96,3.49-5.12,5.71-1.56,1.1-2.98,2.09-5.11,2.36-3.18.41-5.68-1.07-6.6-1.63-3.61-2.2-5.37-6.02-5.7-6.76-.61-1.39-1.07-3-2.64-4.77-.37-.42-.96-1.07-1.9-1.69-.91-.6-1.98-.95-4.12-1.63-1.17-.38-1.72-.51-3.05-.98-.67-.24-1.22-.45-1.58-.59l-.64-.27Z"/><path id="candle-2" class="cls-10" d="M149.78,54.51c-.69-.58-1.22-1.12-1.61-1.54-.42-.46-.98-1.09-1.54-2.02-.52-.87-.78-1.31-.84-1.9-.12-1.36.81-2.35.9-2.44.56-.58,1.16-.74,2.18-1.03.76-.21,1.91-.52,3.41-.32,1.09.14,2.21.29,3.15,1.22.14.14,1.2,1.24,1.16,2.83-.02.6-.19,1.32-1.25,2.75-.74,1-1.96,2.42-3.87,3.8l-1.69-1.34Z"/><path id="icing_outline" class="cls-2" d="M124.54,132.27c16.37,2.7,33.2,3.73,50.16,2.81-4.06,4.58-42.62,3.57-50.16-2.81Z"/><path id="icing_outline-2" class="cls-2" d="M186.84,135.18c16.84-2.46,33.44,1.15,47.15-10.32-2.53,8.87-33.47,15.81-47.15,10.32Z"/><path id="icing_outline-3" class="cls-2" d="M70.3,118.97c13.72,4.39,27.45,8.79,40.92,13.1-5.49,2.6-34.55-5.74-40.92-13.1Z"/><path id="plate" class="cls-8" d="M63.04,216.69l.21-10.32c-1.1-.01-3.28.03-4.51.13-1.35.12-5.22.55-11.17,2.93-3.24,1.3-8.27,3.35-10.88,6.76-1.45,1.89-1.58,3.44-1.6,3.87-.06,1.18.27,2.1.52,2.76.83,2.23,2.34,3.56,3.01,4.16,4.29,3.83,12.82,6.46,14.11,6.87,0,0,6.88,2.18,12.92,3.82,5.4,1.47,11.46,2.61,23.59,4.9,4.77.9,7.16,1.35,9.21,1.67,7.41,1.16,13.16,1.62,19.32,2.1,6.55.51,11.64.74,13.75.83,10.92.46,19.1.33,27.45.18,13.52-.24,20.28-.39,27.4-1.03,9.37-.84,18.59-2.59,37.03-6.1,2.09-.4,5.69-1.1,10.26-2.67,2.23-.77,4.83-1.66,7.81-3.25,5.71-3.04,8.81-4.44,10.34-7.79.44-.97,1.44-2.94.88-5.14-.3-1.2-.96-2.07-1.74-3.1-1.09-1.44-2.16-2.32-3.16-3.13-1.11-.9-2.26-1.6-4.55-3.01-2.06-1.27-3.13-1.82-3.45-1.99-1.54-.79-2.68-1.27-3.03-1.41-1.03-.42-1.85-.69-2.48-.9-1.09-.36-1.43-.46-2.16-.66l.07,8.54c-.55.41-1.72,1.43-2.75,2.1-2.68,1.75-6.5,3.85-14.9,6.58-3.45,1.12-7.43,2.41-13.03,3.56-1.83.38-7.45,1.48-21.67,2.28-6.69.38-11.52.42-18.33.61-9.36.26-16.81.67-24.99.05-8.3-.63-12.44-1.33-16.91-1.63-3.39-.23-8.31-1.06-12.92-1.51,0,0-8.81-1.4-20.26-3.22-.64-.1-3.47-.73-6.63-1.42-2.58-.56-4.59-1.01-6.97-1.84-2.28-.79-3.4-1.21-4.27-1.64-.8-.39-3.62-1.83-4.12-2.11l-1.39-.84Z"/><path id="plate-2" class="cls-7" d="M63.25,206.37l.2-9.76c-.7,0-3.22.03-4.3.1-2.81.18-5.03.55-6.23.78-3.17.6-6.45,1.38-8.77,2.24-4.78,1.77-6.05,2.24-8.69,3.8-2.31,1.36-4.58,2.74-6.28,5.51-.56.91-1.42,2.31-1.71,4.35-.56,4.04,1.64,7.07,2.04,7.62,1.03,1.37,2.12,2.11,3.52,3.05,2.03,1.38,3.93,2.15,5.23,2.59-.35-.31-.81-.77-1.29-1.39-.56-.74-1.4-1.85-1.71-3.51-.09-.49-.31-1.69.11-3.12.09-.3.34-1.07,1.14-2.2.42-.58,1.44-1.89,3.87-3.51,1.49-.99,2.66-1.53,4.4-2.33.52-.24,2.38-1.09,4.94-1.98,1.18-.41,2.57-.89,4.46-1.34,2.11-.5,3.59-.68,3.95-.72,1.03-.12,1.91-.16,2.58-.18l2.54-.02Z"/><path id="plate-3" class="cls-7" d="M232.11,207.18l.06-11.36c.58-.06.33-.02,1.33,0,2.19.06,3.83.48,5.1.82,1.79.48,3.08,1,4.21,1.47,2.8,1.15,4.75,2.3,5.17,2.55,1.3.77,2.73,1.63,4.38,3.08,1.12.99,2.28,2.02,3.39,3.73,1.29,1.99,1.77,3.76,1.88,4.19.1.38.68,1.79.58,4.45-.05,1.25-.4,3.1-1.34,5.01-1.18,2.41-2.9,3.67-3.23,3.91-.61.43-1.16.73-1.57.91.2-.4.39-.87.53-1.43.49-2.01-.09-3.68-.3-4.22-.41-1.05-.96-1.67-1.91-2.74-.49-.55-1.44-1.56-3.3-2.97-1.67-1.26-2.98-2.01-4.94-3.13-1.9-1.09-3.03-1.74-4.71-2.45-.35-.15-1.81-.76-3.81-1.4-.61-.19-1.12-.34-1.51-.45h0Z"/><path id="plate-4" class="cls-5" d="M27.79,217.53c.2,1.57.64,3.88,1.8,6.45.51,1.14,1.16,2.16,2.42,4.16.8,1.27,2.26,3.51,5.4,7.88.83,1.16,2,2.77,3.44,4.69,1.22.53,2.99,1.27,5.16,2.08,5.41,2.01,9.78,3.11,14.22,4.15,5.94,1.39,10.2,2.24,18.29,3.85,10.57,2.11,15.88,3.16,16.86,3.34,8.07,1.46,14.05,2.55,22.1,3.42,9.79,1.07,17.42,1.26,23.3,1.39,8.28.19,14.52.01,16.44-.05,8.58-.27,14.98-.86,19.66-1.3,10.13-.95,19.99-1.88,32.58-4.62,6.14-1.34,10.79-2.66,14.32-3.66,9.67-2.74,17.7-5.56,23.67-7.83,1.03-1.27,2.08-2.67,3.1-4.23.81-1.22,3.17-4.91,5.29-10.26.88-2.23,1.41-4.27,1.91-6.5.12-.54.32-2.21.19-2.27-.18-.09.25.54-1.57,3.85-.48.87-.57.7-3.32,4.06-.61.75-1.14,1.4-2.02,2.18-.33.3-.66.54-1.32,1.04-.89.67-1.86,1.4-3.04,2.14-.58.36-.99.59-2.47,1.37-2.33,1.23-3.5,1.85-4.12,2.15-2.87,1.41-5.54,2.28-7.39,2.87-4.12,1.32-7.85,2.04-15.33,3.49-1.53.3-2.85.54-5.11.96-3.02.56-6.84,1.26-8.93,1.62-4.32.75-10.93,1.91-19.24,2.56-3.12.24-5.41.33-9.99.51-3.14.12-6.62.18-13.44.3-8.69.15-14.2.21-19.64.12-1.28-.02-2.43-.05-2.55-.05-1.86-.04-5.72-.14-10.67-.4-.97-.05-4.82-.25-10.04-.65-5.07-.39-8.1-.62-12.36-1.14-2.12-.26-5.56-.72-9.75-1.43-.98-.17-1.52-.27-7.1-1.33-6.27-1.19-9.42-1.79-10.34-1.97-4.83-.97-7.47-1.5-11.13-2.42-4.97-1.25-8.71-2.43-10.96-3.15-3.81-1.21-6.27-1.99-9.66-3.34-6.62-2.65-9.77-4.69-11.58-5.98-.65-.46-1.3-.97-2.59-2.01-1.82-1.45-2.42-2.02-2.99-2.84-.49-.71-.83-1.43-.89-1.55-.29-.62-.49-1.18-.63-1.64Z"/><g id="strawberry_seeds" class="cls-13"><path class="cls-1" d="M153.13,106.82c-.13-.02-.31.32-.68,1.11-.14.3-.16.47-.14.65.02.18.12.45.34.49.23.04.45-.19.54-.4.07-.17.11-.47.09-.85-.05-.74-.08-.99-.15-1Z"/><path class="cls-1" d="M157.71,113.66c-.13-.02-.31.32-.68,1.11-.14.3-.16.47-.14.65.02.18.12.45.34.49.23.04.45-.19.54-.4.07-.17.11-.47.09-.85-.05-.74-.08-.99-.15-1Z"/><path class="cls-1" d="M150.38,115.06c-.13-.02-.31.32-.68,1.11-.14.3-.16.47-.14.65.02.18.12.45.34.49.23.04.45-.19.54-.4.07-.17.11-.47.09-.85-.05-.74-.08-.99-.15-1Z"/><path class="cls-1" d="M143.74,100.27c-.13-.02-.31.32-.68,1.11-.14.3-.16.47-.14.65.02.18.12.45.34.49.23.04.45-.19.54-.4.07-.17.11-.47.09-.85-.05-.74-.08-.99-.15-1Z"/><path class="cls-1" d="M137.45,115.45c-.13-.02-.31.32-.68,1.11-.14.3-.16.47-.14.65.02.18.12.45.34.49.23.04.45-.19.54-.4.07-.17.11-.47.09-.85-.05-.74-.08-.99-.15-1Z"/><path class="cls-1" d="M143.11,108.66c-.13-.02-.31.32-.68,1.11-.14.3-.16.47-.14.65.02.18.12.45.34.49.23.04.45-.19.54-.4.07-.17.11-.47.09-.85-.05-.74-.08-.99-.15-1Z"/><path class="cls-1" d="M163.89,120.34c-.13-.02-.31.32-.68,1.11-.14.3-.16.47-.14.65.02.18.12.45.34.49.23.04.45-.19.54-.4.07-.17.11-.47.09-.85-.05-.74-.08-.99-.15-1Z"/><path class="cls-1" d="M144.49,123.31c-.13-.02-.31.32-.68,1.11-.14.3-.16.47-.14.65.02.18.12.45.34.49.23.04.45-.19.54-.4.07-.17.11-.47.09-.85-.05-.74-.08-.99-.15-1Z"/><path class="cls-1" d="M155.92,124.15c-.13-.02-.31.32-.68,1.11-.14.3-.16.47-.14.65.02.18.12.45.34.49.23.04.45-.19.54-.4.07-.17.11-.47.09-.85-.05-.74-.08-.99-.15-1Z"/><path class="cls-1" d="M158.67,101.41c-.13-.02-.31.32-.68,1.11-.14.3-.16.47-.14.65.02.18.12.45.34.49.23.04.45-.19.54-.4.07-.17.11-.47.09-.85-.05-.74-.08-.99-.15-1Z"/><path class="cls-1" d="M151.94,96.05c-.13-.02-.31.32-.68,1.11-.14.3-.16.47-.14.65.02.18.12.45.34.49.23.04.45-.19.54-.4.07-.17.11-.47.09-.85-.05-.74-.08-.99-.15-1Z"/></g><g id="strawberry_seeds-2" class="cls-13"><path class="cls-1" d="M208.88,106.51c-.13-.02-.31.32-.68,1.11-.14.3-.16.47-.14.65.02.18.12.45.34.49.23.04.45-.19.54-.4.07-.17.11-.47.09-.85-.05-.74-.08-.99-.15-1Z"/><path class="cls-1" d="M213.45,111.96c-.13-.02-.31.32-.68,1.11-.14.3-.16.47-.14.65.02.18.12.45.34.49.23.04.45-.19.54-.4.07-.17.11-.47.09-.85-.05-.74-.08-.99-.15-1Z"/><path class="cls-1" d="M206.13,114.75c-.13-.02-.31.32-.68,1.11-.14.3-.16.47-.14.65.02.18.12.45.34.49.23.04.45-.19.54-.4.07-.17.11-.47.09-.85-.05-.74-.08-.99-.15-1Z"/><path class="cls-1" d="M200.88,99.96c-.13-.02-.31.32-.68,1.11-.14.3-.16.47-.14.65.02.18.12.45.34.49.23.04.45-.19.54-.4.07-.17.11-.47.09-.85-.05-.74-.08-.99-.15-1Z"/><path class="cls-1" d="M193.2,113.75c-.13-.02-.31.32-.68,1.11-.14.3-.16.47-.14.65.02.18.12.45.34.49.23.04.45-.19.54-.4.07-.17.11-.47.09-.85-.05-.74-.08-.99-.15-1Z"/><path class="cls-1" d="M198.86,108.35c-.13-.02-.31.32-.68,1.11-.14.3-.16.47-.14.65.02.18.12.45.34.49.23.04.45-.19.54-.4.07-.17.11-.47.09-.85-.05-.74-.08-.99-.15-1Z"/><path class="cls-1" d="M213.03,101.1c-.13-.02-.31.32-.68,1.11-.14.3-.16.47-.14.65.02.18.12.45.34.49.23.04.45-.19.54-.4.07-.17.11-.47.09-.85-.05-.74-.08-.99-.15-1Z"/><path class="cls-1" d="M207.69,95.74c-.13-.02-.31.32-.68,1.11-.14.3-.16.47-.14.65.02.18.12.45.34.49.23.04.45-.19.54-.4.07-.17.11-.47.09-.85-.05-.74-.08-.99-.15-1Z"/></g><g id="strawberry_seeds-3" class="cls-13"><path class="cls-1" d="M179.9,94.89c-.1.02-.14.33-.19,1.01-.02.26.01.39.09.51.07.13.23.29.41.26.19-.03.29-.27.3-.45,0-.14-.06-.37-.19-.64-.26-.53-.36-.7-.42-.68Z"/><path class="cls-1" d="M172.82,96.77c-.1.02-.14.33-.19,1.01-.02.26.01.39.09.51.07.13.23.29.41.26.19-.03.29-.27.3-.45,0-.14-.06-.37-.19-.64-.26-.53-.36-.7-.42-.68Z"/><path class="cls-1" d="M183.91,101.86c-.1.02-.14.33-.19,1.01-.02.26.01.39.09.51.07.13.23.29.41.26.19-.03.29-.27.3-.45,0-.14-.06-.37-.19-.64-.26-.53-.36-.7-.42-.68Z"/><path class="cls-1" d="M175.43,92.69c-.1.02-.14.33-.19,1.01-.02.26.01.39.09.51.07.13.23.29.41.26.19-.03.29-.27.3-.45,0-.14-.06-.37-.19-.64-.26-.53-.36-.7-.42-.68Z"/><path class="cls-1" d="M173.22,102.47c-.1.02-.14.33-.19,1.01-.02.26.01.39.09.51.07.13.23.29.41.26.19-.03.29-.27.3-.45,0-.14-.06-.37-.19-.64-.26-.53-.36-.7-.42-.68Z"/><path class="cls-1" d="M177.18,99.7c-.1.02-.14.33-.19,1.01-.02.26.01.39.09.51.07.13.23.29.41.26.19-.03.29-.27.3-.45,0-.14-.06-.37-.19-.64-.26-.53-.36-.7-.42-.68Z"/><path class="cls-1" d="M184.31,96.45c-.1.02-.14.33-.19,1.01-.02.26.01.39.09.51.07.13.23.29.41.26.19-.03.29-.27.3-.45,0-.14-.06-.37-.19-.64-.26-.53-.36-.7-.42-.68Z"/><path class="cls-1" d="M179.43,87.61c-.1.02-.14.33-.19,1.01-.02.26.01.39.09.51.07.13.23.29.41.26.19-.03.29-.27.3-.45,0-.14-.06-.37-.19-.64-.26-.53-.36-.7-.42-.68Z"/></g><g id="strawberry_seeds-4" class="cls-13"><path class="cls-1" d="M124.07,99.37c-.1,0-.19.3-.35.96-.06.25-.05.39,0,.52.05.14.18.32.36.32.19,0,.33-.22.37-.4.03-.14,0-.38-.08-.66-.17-.56-.25-.74-.3-.74Z"/><path class="cls-1" d="M128.38,104.05c-.1,0-.19.3-.35.96-.06.25-.05.39,0,.52.05.14.18.32.36.32.19,0,.33-.22.37-.4.03-.14,0-.38-.08-.66-.17-.56-.25-.74-.3-.74Z"/><path class="cls-1" d="M121.44,93.65c-.1,0-.19.3-.35.96-.06.25-.05.39,0,.52.05.14.18.32.36.32.19,0,.33-.22.37-.4.03-.14,0-.38-.08-.66-.17-.56-.25-.74-.3-.74Z"/><path class="cls-1" d="M121.44,103.67c-.1,0-.19.3-.35.96-.06.25-.05.39,0,.52.05.14.18.32.36.32.19,0,.33-.22.37-.4.03-.14,0-.38-.08-.66-.17-.56-.25-.74-.3-.74Z"/><path class="cls-1" d="M128.38,96.65c-.1,0-.19.3-.35.96-.06.25-.05.39,0,.52.05.14.18.32.36.32.19,0,.33-.22.37-.4.03-.14,0-.38-.08-.66-.17-.56-.25-.74-.3-.74Z"/><path class="cls-1" d="M118.09,99.99c-.1,0-.19.3-.35.96-.06.25-.05.39,0,.52.05.14.18.32.36.32.19,0,.33-.22.37-.4.03-.14,0-.38-.08-.66-.17-.56-.25-.74-.3-.74Z"/><path class="cls-1" d="M125.81,90.17c-.1,0-.19.3-.35.96-.06.25-.05.39,0,.52.05.14.18.32.36.32.19,0,.33-.22.37-.4.03-.14,0-.38-.08-.66-.17-.56-.25-.74-.3-.74Z"/></g><g id="strawberry_seeds-5" class="cls-13"><path class="cls-1" d="M96.2,98.86c-.13-.02-.31.32-.68,1.11-.14.3-.16.47-.14.65.02.18.12.45.34.49.23.04.45-.19.54-.4.07-.17.11-.47.09-.85-.05-.74-.08-.99-.15-1Z"/><path class="cls-1" d="M104.18,109.25c-.13-.02-.31.32-.68,1.11-.14.3-.16.47-.14.65.02.18.12.45.34.49.23.04.45-.19.54-.4.07-.17.11-.47.09-.85-.05-.74-.08-.99-.15-1Z"/><path class="cls-1" d="M94.72,111.13c-.13-.02-.31.32-.68,1.11-.14.3-.16.47-.14.65.02.18.12.45.34.49.23.04.45-.19.54-.4.07-.17.11-.47.09-.85-.05-.74-.08-.99-.15-1Z"/><path class="cls-1" d="M90.08,97c-.13-.02-.31.32-.68,1.11-.14.3-.16.47-.14.65.02.18.12.45.34.49.23.04.45-.19.54-.4.07-.17.11-.47.09-.85-.05-.74-.08-.99-.15-1Z"/><path class="cls-1" d="M91.92,106.48c-.13-.02-.31.32-.68,1.11-.14.3-.16.47-.14.65.02.18.12.45.34.49.23.04.45-.19.54-.4.07-.17.11-.47.09-.85-.05-.74-.08-.99-.15-1Z"/><path class="cls-1" d="M88.26,103.67c-.13-.02-.31.32-.68,1.11-.14.3-.16.47-.14.65.02.18.12.45.34.49.23.04.45-.19.54-.4.07-.17.11-.47.09-.85-.05-.74-.08-.99-.15-1Z"/><path class="cls-1" d="M98.9,104.58c-.13-.02-.31.32-.68,1.11-.14.3-.16.47-.14.65.02.18.12.45.34.49.23.04.45-.19.54-.4.07-.17.11-.47.09-.85-.05-.74-.08-.99-.15-1Z"/><path class="cls-1" d="M101.9,97.73c-.13-.02-.31.32-.68,1.11-.14.3-.16.47-.14.65.02.18.12.45.34.49.23.04.45-.19.54-.4.07-.17.11-.47.09-.85-.05-.74-.08-.99-.15-1Z"/><path class="cls-1" d="M98.41,91.64c-.13-.02-.31.32-.68,1.11-.14.3-.16.47-.14.65.02.18.12.45.34.49.23.04.45-.19.54-.4.07-.17.11-.47.09-.85-.05-.74-.08-.99-.15-1Z"/></g><line id="candle_wix" class="cls-12" x1="151.46" y1="36.1" x2="151.45" y2="48.24"/></svg>