<?xml version="1.0" encoding="UTF-8"?><svg id="Me" xmlns="http://www.w3.org/2000/svg" viewBox="0 0 284.72 356.76"><defs><style>.cls-1,.cls-2,.cls-3,.cls-4,.cls-5,.cls-6,.cls-7,.cls-8,.cls-9,.cls-10,.cls-11{stroke-miterlimit:10;}.cls-1,.cls-3,.cls-4,.cls-5,.cls-7,.cls-8,.cls-9,.cls-10{stroke:#000;}.cls-1,.cls-7{fill:#2b2b2b;}.cls-2,.cls-5,.cls-8,.cls-10,.cls-11{fill:none;}.cls-2,.cls-11{stroke:#282726;}.cls-3,.cls-4,.cls-7,.cls-11{stroke-width:2px;}.cls-3,.cls-6{fill:#f8e6da;}.cls-4{fill:#fff;}.cls-12{fill:#eba89f;}.cls-12,.cls-13{stroke-width:0px;}.cls-13{fill:#f1d6cc;}.cls-5{stroke-width:1.2px;}.cls-6{stroke:#020202;}.cls-9{fill:#f2f9f9;}.cls-10{stroke-width:1.5px;}</style></defs><path id="face_skin" class="cls-3" d="M137.7,104.99c-1.5,1.28-3.67,2.03-3.67,2.03-.47.16-2.71,1.14-7.19,3.08-2.12.92-3.55,1.66-5.89,2.86-1.92.99-4.67,2.41-7.93,4.4-4.35,2.66-7.69,5.17-9.73,6.78-2.32,1.83-6.1,4.85-9.99,9.07-1.35,1.46-5.13,5.71-6.87,7.74-.21.24-.62.73-1.22,1.39-1.37,1.53-1.67,1.73-2.48,2.67-.26.3-1.19,1.4-2.2,2.96-.7,1.09-1.16,1.82-1.53,2.91-.33.96-.44,1.76-.51,2.41-.27,2.45-.09,3.76-.08,6.6,0,1.68,0,3.51-.28,5.84-.15,1.18-.26,2.14-.58,3.4-.48,1.85-.89,2.35-2.24,5.54-1.02,2.42-1.53,3.62-1.98,5.28-.63,2.33-.78,4.17-.81,4.55-.06.8-.25,3.92.81,7.85.52,1.92,1.33,4.96,3.74,7.85.52.63,1.16,1.24,2.43,2.45,1.04,1,2.59,2.42,4.95,4.33,2.48,2.01,5.38,4.36,9.56,6.92.4.24,2.23,1.36,4.76,2.69,3.66,1.92,6.64,3.14,10.18,4.59,1.64.67,3.25,1.32,5.46,2.13,5.3,1.92,8.2,2.57,9.5,2.84,1.05.22,1.91.36,2.47.45v13.43l-.89,1.11-.3,22,.05,2.4c.09.22.32.65.75.78.45.14.88-.13,1.36-.45,1.19-.79,1.78-1.19,2.19-1.65,1.9-2.08,7.84-6.19,11.89-8.98,1.75-1.21,3.32-2.22,5.86-3.86,2.11-1.36,3.93-2.5,4.88-3.1,0,0,1.85-1.16,3.94-2.44,1.08-.66,2.18-1.34,2.27-1.39.32-.19.59-.36.78-.48l-1.43-.19c-.59-.1-1.25-.26-1.96-.52-.44-.16-2.23-.86-3.96-2.58-.37-.37-.65-.7-.84-.92l-.24-10.86c.29,0,.7,0,1.21,0,6.41,0,9.61,0,12.48-.15,1.83-.1,4.7-.26,8.35-.89,2.98-.51,6.85-1.21,11.37-3.12,4.81-2.03,7.93-4.44,10.91-6.72,4.42-3.38,6.12-5.62,6.85-6.64,1.25-1.76,2.07-3.37,2.59-4.55h.86c.1.26.27.63.53,1.03.35.54,1.23,1.67,4.1,2.76,1.32.5,3.21,1.22,5.86,1.22,3.25,0,5.62-1.07,6.98-1.71,2.57-1.2,4.2-2.68,5.34-3.72,1-.92,3.47-3.35,5.47-7.26.65-1.27,1.94-4.06,2.55-7.85.26-1.65.56-3.5.24-5.95-.15-1.19-.56-4.04-2.53-6.97-1.42-2.1-2.99-3.27-3.37-3.55-.37-.27-1.43-1.01-2.98-1.62-.97-.38-3.08-1.22-5.61-.99-2.02.18-3.2.37-3.2.37-.33.05-.9.15-1.66.12-.45-.02-.8-.07-1.38-.17-.44-.07-1.01-.17-1.68-.33-.03.33-.08.79-.16,1.33-.16,1.11-.38,2.67-.97,4.33-.24.66-.7,1.93-1.69,3.37-.54.78-1.78,2.39-3.91,3.73-.48.3-2.37,1.64-2.69,1.3-.16-.17.16-.69,1.03-2.18.39-.66,1.36-2.32,1.69-2.93.68-1.23,1.69-3.47,1.88-6.24.09-1.27-.02-2.18-.12-2.98-.32-2.57-.98-3.27-1.18-3.46-.5-.49-1.02-.66-1.39-.79-.85-.31-2.4-1.3-5.49-3.27-1.21-.77-2.46-1.7-4.96-3.57-5.89-4.39-7.53-5.96-8.49-6.93-.94-.95-1.1-1.29-2.12-2.29-1.47-1.45-2.99-2.68-5.05-4.11-3.27-2.27-3.64-2.08-6.33-3.9-2.17-1.47-3.66-2.8-6.64-5.45-1.64-1.46-3.8-3.46-6.31-6.01-.74-.76-3.72-3.8-7.84-8.69-2.43-2.88-5.91-6.99-9.92-12.77,0,0-1.42-1.79-2.74-4.09-.06-.11-.22-.39-.39-.74-.29-.58-.39-.87-.42-.96-.08-.25-.05-.4-.17-.64-.03-.07-.13-.32-.34-.39-.24-.08-.51.14-.72.31-.14.11-.15.15-.38.37,0,0-.17.17-.49.44Z"/><path id="neck_shadow" class="cls-13" d="M149.98,228.15c.04,2.1.07,6.98.12,8.9l-22.95,1.26v-12.37c2.37.41,4.42.66,5.88.86,4.79.64,8.6.93,11.41,1.13,1.77.13,3.25.21,4.26.27l1.29-.04Z"/><g id="cheek_blush"><ellipse id="cheeks" class="cls-12" cx="99.71" cy="187.1" rx="7.48" ry="11.44" transform="translate(-103.99 245.88) rotate(-78.04)"/><ellipse id="cheeks-2" class="cls-12" cx="183.29" cy="196.94" rx="11.57" ry="7.83"/></g><path id="glasses" class="cls-1" d="M78.64,152.15c1.26.07,2.52.15,3.78.22-.02-.07-.03-.2,0-.35.02-.08.06-.27.2-.38.13-.1.29-.1.38-.1.35,0,.79,0,1.33.02l21.72-.02c.24,0,.63,0,1.12,0,3.13.03,8.64.33,14.49,2.15,1.21.37,2.33.78,3.6,1.49.89.49,2.04,1.15,3.23,2.36.59.6,2.14,2.22,2.86,4.84.3,1.09.37,2.03.37,2.7l17.67.53c.27-.4.66-1.37,1.16-1.8,0,0,1.48-1.25,3.87-1.54,5.29-.63,34.84,1.97,36.45,1.96.09,0,.65-.01,1.41.07.75.08,1.33.21,1.62.28.18.04.98.24,2.04.71.82.35,1.74.75,2.75,1.55.44.35,1,.85,1.55,1.55l7.33.1.72.87c.21.5.43,1.09.6,1.77.12.46.19.9.25,1.3h-9.39c.01.61,0,1.45-.14,2.45-.08.57-.33,2.26-1.34,4.65-1.24,2.95-2.77,4.98-4.02,6.63-2.02,2.67-3.03,4-4.65,5.15-2.37,1.67-4.63,2.18-7.12,2.75-2.75.63-4.9.69-7.55.78-2.63.08-4.76-.04-6.56-.14-2.79-.16-4.18-.21-5.08-.42-1.19-.28-4.57-1.11-7.19-3.95-.99-1.07-1.54-2.08-2.54-3.88-.33-.59-1.16-2.14-1.97-4.3-.28-.74-1.18-3.2-1.76-6.56-.18-1.05-.56-3.48-.56-6.63,0-.97.03-1.79.07-2.4l-17.91-.49c0,.69-.05,1.42-.14,2.19-.34,2.86-1.23,5.22-2.12,6.98-.76,1.84-2.2,4.55-4.87,6.98-2.29,2.09-4.46,3.04-4.94,3.24-1.9.81-3.44,1.04-5.08,1.27-2.82.4-5.56.2-10.93-.21-2.8-.21-3.84-.37-5.08-.71-2.17-.59-3.74-1.44-4.87-2.04-1.66-.9-3.17-1.72-4.72-3.31-1.25-1.29-1.94-2.47-2.54-3.53-1.91-3.35-2.51-6.36-3.1-9.31,0,0-.64-3.16-.78-6.06-.01-.26-.06-1.41-.07-2.89,0-.35,0-.65,0-.85l-3.57-.07v-5.59Z"/><g id="glasses_lens"><path id="lense" class="cls-9" d="M84.91,160.46c.64-1.83.59-1.77,1.11-2.94.48-1.08,1.23-1.67,2.04-2.4.61-.54,1.42-1.25,2.68-1.76.97-.39,1.79-.5,2.4-.56,3.11-.32,3.98-.46,7.21-.64,2.04-.11,5.96-.1,8.01-.06,2.33.05,1.95.05,2.56.06,5.5.14,9.38,1.12,9.38,1.12,2.81.7,4.61,1.83,6.62,3.46.75.61,2.5,2.06,3.53,4.65,1.02,2.58.95,5.52.69,7.33-.68,4.7-2.09,7.52-3.47,9.42-1.24,1.71-2.61,3.3-3.36,4.06-1.7,1.71-2.97,2.37-4.94,3.24-1.7.76-3.14,1.21-6.35,1.3-4.55.12-8.84-.15-9.66-.24-2.48-.27-4.77-.52-7.66-1.61-1.69-.64-3.54-1.36-5.42-3.05-1.41-1.27-2.2-2.52-3-3.8-.62-.99-1.71-2.74-2.47-5.29-.18-.6-.63-2.23-.78-4.37-.03-.4-.02-1.27,0-3.03.01-1.21.07-1.88.28-2.75.13-.52.22-1.09.59-2.14Z"/><path id="lense-2" class="cls-9" d="M194.6,172.82c-.23-1.11-.61-1.93-1.47-3.11-.03-.04-.06-.08-.07-.1-.23-.29-.82-1.11-2.46-2.23-1.05-.72-1.82-1.21-3.29-1.88-3.1-1.41-3.43-1.77-11.46-2.13-.57-.03-4.35-.39-9.11-.57-3.42-.13-4.41-.11-7.48-.23-1.6-.07-3.7-.21-5.81.37-1.85.51-2.62,1.34-2.94,1.67-.6.62-1.02,1.49-1.22,3.57-.15,1.58-.2,3.79.45,6.77.49,2.22,1.06,4.8,1.5,6.17.65,2.02,3.2,8.67,7.15,11.11,2.47,1.52,5.79,2.17,7.83,2.33,1.93.15,3.5.34,6.63.29,4.45-.07,7.09-.1,10.46-.99,2.72-.71,4.83-1.36,6.3-2.56,2.26-1.84,3.1-3.17,3.94-4.84.55-1.1.8-2.76,1.21-4.92.13-.66.3-2.44.25-5.11-.03-1.47-.2-2.58-.41-3.61Z"/></g><g id="hair"><path class="cls-7" d="M76.17,172.25c-.97.31-5.35-6.2-6.47-14.17-.58-4.12-.04-7.07,1.03-12.97.52-2.83,2.04-10.4,6.14-19.95,1.48-3.44,3.31-7.66,6.52-12.66,4.12-6.41,8.09-10.34,13.81-15.92,4.58-4.47,10.76-10.44,20.14-16.3,7.88-4.93,12.09-6.07,14-6.52,3.78-.88,9.51-.96,13.81-.58,2.11.19,4.22.24,6.33.38,1.99.14,3.08.23,4.6,0,1.9-.29,3.08-.88,4.22-1.34,2.1-.85,4.15-1.14,8.25-1.73,2.82-.4,7.24-1.01,12.85-.58,5.6.43,9.72,1.69,12.27,2.49,2.04.64,11.17,3.61,21.29,11.32,4.05,3.08,6.71,5.75,9.78,8.82,3.6,3.61,7.99,8.04,12.47,14.58,4.53,6.61,6.97,12.2,8.82,16.49,1.98,4.58,4.93,11.55,6.71,21.1,1.2,6.4,1.31,11.01,1.53,19.75.08,3,.21,10.87-.58,21.1-.28,3.66-.57,7.49-1.34,12.66-1.02,6.83-1.88,9.3-3.26,17.07-.47,2.64-.2,1.43-1.92,13.04-1.81,12.26-2.03,12.73-2.88,19.18-.23,1.78-.98,7.55-1.73,15.15-.59,6-.89,10.45-1.34,16.88-.16,2.24-.31,4.6-.46,7.49-.13,2.5-.21,4.61-.26,6.16-.3-.18-.71-.44-1.18-.79-.56-.42-1.81-1.4-3.14-3.14-.85-1.11-1.4-2.18-2.49-4.32-1.34-2.62-2.01-3.93-2.1-4.65-.02-.18-.09-.81-.33-.85-.23-.04-.49.47-.59.65-.59,1.1-1.56,1.94-2.29,2.95-1.25,1.72-3.17,2.59-4.52,3.21-1.65.75-3.39,1.55-5.63,1.24-1.96-.26-3.34-1.24-4.19-1.83-1.54-1.08-2.49-1.75-2.75-2.75-.05-.19-.16-.73-.52-.85-.31-.1-.65.16-.79.26-.09.06-1.03.37-2.93.98-.38.12-2.01.63-3.78.83-1.78.2-3.04,0-5.31-.35-2.98-.47-4.49-.72-5.43-1.77-.68-.77-.9-1.6-1.18-2.72-.56-2.21-.24-3.66-.24-5.08,0-2.37-.9-4.06-2.24-6.61-.46-.87-1.24-2.21-6.85-8.26-2.4-2.59-3.6-3.89-4.49-4.72-4.4-4.14-6.6-6.22-8.26-6.85-.45-.17-2.07-.75-2.12-1.65-.03-.48.41-.65.59-1.42.16-.68.06-1.62-.47-2.24-.76-.88-2.08-.78-2.95-.71-1.03.08-1.8.42-2.72.83-1.12.49-1.19.71-1.77.94-2.95,1.21-6.84-1.83-7.2-2.12-.8-.64-1.35-1.27-1.65-1.65l-.24-10.86c.47,0,1.17,0,2.01,0,6.71-.01,10.06-.02,13.1-.24,2.15-.15,5.83-.43,10.51-1.53,2.48-.59,5.45-1.29,9.09-2.95,5.52-2.52,9.09-5.66,11.21-7.56,3.29-2.94,4.94-4.41,6.02-6.49.78-1.5,1.57-3.65,2.36-3.54.42.06.44.76.94,1.42,1.36,1.76,2.48,2.09,4.6,2.83,1.23.43,3.66,1.25,6.85.94,3.79-.37,6.34-2.11,8.26-3.42,3.31-2.26,5.26-4.85,6.14-6.14,3.48-5.11,4.4-10.35,4.62-13.16.23-3.07-.07-5.37-1.31-8.32-.47-1.12-2.01-4.36-5.55-6.49-2.97-1.79-6.02-2-7.32-2.01-3-.02-4.22.93-6.96.24-1.17-.3-1.95-.73-3.66-1.76-4-2.42-8.88-5.06-9.91-5.77-4.28-2.95-4.28-3.06-8.82-6.38-1.43-1.04-2.68-1.96-4.05-3.29-1.14-1.11-2.54-2.63-2.91-3.04-1.33-1.46-1.66-1.91-2.53-2.66-1.14-.98-2.14-1.54-2.78-1.9,0,0-3.35-1.77-7.09-4.39-.79-.55-3.19-2.35-6.83-5.73-5.3-4.94-8.13-7.76-11.77-12.02-1.67-1.96-3.06-3.72-4.81-5.95-3.37-4.28-2.35-3.2-5.31-6.96-1.92-2.44-3.45-4.28-4.94-7.34-.22-.45-.19-1.25-.63-1.39-.55-.18-.93.73-1.96,1.39-.92.59-2.03,1.22-3.67,1.92-1.49.63-2.59.96-5.54,2.32-3.11,1.43-5.05,2.47-6.48,3.13-3.62,1.67-10.09,5.28-16.48,10.07-6.3,4.73-10.54,9.12-13.74,12.47-4.98,5.2-3.73,4.73-7.38,8.4,0,0-2.68,2.69-4.4,5.95-.38.71-.68,1.41-.9,2.26-.15.56-.26,1.23-.3,3.76-.01.73-.01,1.22,0,3.31.02,3.01.02,3.13,0,3.61-.07,1.6-.16,1.27-.3,3.61-.08,1.32-.07,1.72-.3,2.41-.23.68-.42.83-.9,1.96-.63,1.45-.55,1.74-.74,1.8Z"/><path class="cls-7" d="M77.95,201.94c-.02,1.79,1.35,4.72,2.12,11.01.45,3.69.2,6.69,0,8.97-.14,1.69-.47,4.54-1.31,8-.4,1.66-.89,3.32-3.75,10.77-3.14,8.17-3.24,7.96-3.75,9.95-.88,3.43-1.09,6.04-1.47,10.77-.32,3.99-.26,6.28,0,8.49.17,1.43-.3,3.03.65,3.75.71.55,1.94.51,2.74,0,.65-.41.88-1.04,1.09-1.48.88-1.86,2.8-3.76,3.66-3.46.45.15.28.79.99,1.78.2.27.64.82,1.78,1.48,1.3.76,2.41,1.02,5.54,1.78,1.25.3,3.08.75,4.95.99,0,0,1.02.13,2.47,0,.87-.08,1.12-.19,1.29-.3.86-.55.95-1.82.99-2.27.09-.94.92-3.1,2.57-7.42.22-.57,1.07-2.2,2.77-5.44,3.21-6.12,3.81-7.17,4.75-8.61,2.12-3.22,3.4-4.45,4.65-5.34,1.27-.91,2.47-1.46,3.17-1.78.78-.36,3.59-1.65,5.64-1.78.34-.02.94-.03,1.68-.3.6-.22.67-.37,1.19-.49.49-.12.89-.08,1.68,0,1,.1,1.17.23,1.48.1.29-.12.66-.44.89-1.38v-13.16c-.73-.12-1.84-.31-3.17-.59-2.31-.5-5.7-1.38-13.35-4.45-3.19-1.28-4.79-1.92-6.83-2.87-2.59-1.2-6.81-3.19-11.77-6.53-3.08-2.07-4.62-3.11-5.74-4.25-.61-.62-3.16-2.36-6.03-5.24-.73-.74-1.56-1.03-1.56-.7Z"/><path class="cls-7" d="M207.9,168.48c.48.92,1.12,2.42,1.31,4.36.09.98.1,2.38-.41,4.39-1.39,5.44-4.9,8.71-4.39,9.19.16.15.64-.12,1.6-.68,1.23-.71,2.68-1.54,4.16-3.22.64-.73,2-2.3,2.72-4.65.35-1.15.53-2.39.74-3.96.11-.83.19-1.52.23-1.99l-5.96-3.45Z"/></g><g id="hair_outline"><path class="cls-8" d="M217.75,227.59c-1.12,2.03-2.61,5.2-3.54,9.29-.8,3.52-.84,6.24-.89,11.06-.04,4.64.21,8.5.44,11.95.41,5.99.78,7.84.44,11.51-.17,1.88-.15,4.31-1.33,7.08-.68,1.59-1.49,2.78-2.1,3.58"/><path class="cls-8" d="M206.35,276.28c-.3.71-.83,1.74-1.74,2.8-.37.43-1.62,1.81-3.76,2.8-1.27.58-3.43,1.54-4.44,1.65"/><line class="cls-8" x1="231" y1="273.13" x2="231" y2="279.61"/><path class="cls-8" d="M212.93,158.11c-2.71-.14-5.73-.45-8.99-1-3.93-.67-5.97-.98-8.74-2-3.36-1.24-5.95-2.94-7.89-3.95s-3.35-1.64-5.29-2.68"/><path class="cls-8" d="M139.97,82.46c1.31-.36,2.39-.31,3.03-.23.7.09,3.32.51,4.89,2.56.93,1.21.85,2.15,1.63,2.33.76.18,1.08-.65,2.56-1.17.82-.29,1.71-.27,3.5-.23.82.02,1.94.07,3.26.23"/><path class="cls-8" d="M90.57,245.33c.09,1.27.11,3.05-.23,5.13-.57,3.43-1.83,5.84-2.56,7.22-.76,1.42-2.27,3.96-4.89,6.52-1.64,1.6-3.74,3.75-4.95,4.51"/><path class="cls-8" d="M111.76,235.31c.18,1.11.3,2.58.15,4.3-.15,1.76-.55,4.01-.92,5.09"/></g><path id="smile_mouth" class="cls-5" d="M125.18,197.1c.94.67,2.32,1.56,4.08,2.42,1.6.78,3.26,1.59,5.61,2.04,2.32.45,4.19.34,5.1.26,1.06-.1,2.38-.24,3.96-.89,1.25-.52,2.18-1.16,2.81-1.66"/><g id="closed_eyes"><g id="closed_eyes-2"><path class="cls-11" d="M113.04,169.89c-.02-.29-.04-.58-.06-.87-.02-.49-.16-1.77-1.12-2.83-.75-.84-1.63-1.12-2.47-1.39-.75-.24-2.31-.74-4.02-.27-.76.21-1.58.63-2.65.65-.72.02-1.06-.15-1.21-.24-.2-.12-.47-.22-.68-.5-.3-.41-.29-.86-.28-1.03"/><path class="cls-2" d="M102.59,161.77c.13.16.33.39.58.65.37.38.74.73,1.27,1.07.36.24,1.13.77,1.53.9"/></g><g id="closed_eyes-3"><path class="cls-11" d="M175.24,180.29c-.01-.29-.03-.58-.04-.87-.01-.49-.11-1.77-1.04-2.86-.73-.86-1.6-1.16-2.43-1.45-.75-.26-2.29-.8-4.01-.37-.77.19-1.59.59-2.66.59-.72,0-1.06-.18-1.2-.27-.2-.12-.47-.23-.67-.52-.29-.41-.27-.87-.26-1.03"/><path class="cls-2" d="M164.99,171.92c.13.17.32.4.56.67.36.39.72.74,1.24,1.1.36.25,1.11.8,1.51.94"/></g></g><g id="eyebrows"><path id="eyebrow" class="cls-8" d="M106.05,146.11c.45-.36,1.18-.84,2.18-1.15,1.32-.41,2.41-.29,2.69-.26.83.11,1.42.36,2.05.64.71.32,1.73.86,2.82,1.79"/><path id="eyebrow-2" class="cls-8" d="M166.72,156.47c.21-.34.6-.88,1.28-1.28.79-.47,1.54-.49,2.3-.51,1.27-.03,2.31.27,2.94.51,1.5.57,2.45,1.45,3.07,2.05.52.49.9.95,1.15,1.28"/></g><g id="ear_outline"><path id="ear_outline-2" class="cls-8" d="M225.14,188.02c-.98-.12-2.58-.16-4.33.48-1.78.66-2.86,1.72-4.27,3.13-1.04,1.04-2.42,2.63-3.7,4.84"/><path id="ear_outline-3" class="cls-8" d="M223.37,192.92c-1.43-.24-3.24-.37-5.31-.1-.62.08-1.24.13-1.96.37-.67.22-1.19.5-1.54.71"/></g><g id="sweater"><path id="sweater-2" class="cls-4" d="M176.71,318.31c.23.46.52,1.1.82,1.87.34.88.78,2,1.05,3.44.24,1.29.58,3.09-.07,5.09-.26.81-.6,1.39-.72,1.58-.69,1.14-1.57,1.76-1.82,2.03-2.6,2.83-4.82,4.92-5.98,5.98-.48.44-12.13,11.01-18.91,12.39-1.36.28-2.78.43-2.78.43-2.33.25-4.06.15-5.13.11-3.2-.14-1.97.09-8.97,0-3.77-.05-5.33-.13-7.37-.53-.54-.11-1.63-.34-2.99-.75-1.36-.41-3.21-1.08-6.84-2.99-3.8-2.01-6.55-3.8-7.26-4.27-2.96-1.95-5.01-3.57-6.84-5.02-1.72-1.37-3.4-2.78-5.23-4.7-1.6-1.67-2.47-2.84-2.99-4.38-.36-1.06-.61-2.24-.53-3.1.15-1.75.21-2.24.21-2.24.1-.88.15-1.08,0-1.28-.33-.44-1.07-.12-2.78-.21-1.09-.06-1.9-.11-2.24-.64-.19-.29-.11-.54-.11-1.28,0-1.11-.16-1.66-.21-2.24-.18-1.94.91-4.16,1.28-4.91.24-.48,1.14-1.7,2.92-4.15,1.57-2.16,2.12-2.79,2.57-3.27,1.09-1.17,1.64-1.76,1.81-1.87.36-.23.97-.55,1.23-1.23.04-.11.14-.35.12-.64-.05-.76-.78-1.27-1.11-1.52-.31-.24-1.01-1.05-2.18-2.82-.92-1.39-1.81-2.64-2.33-4.5-.73-2.65-.84-3.89-.84-3.89-.05-.66-.04-1.19-.37-1.87-.33-.66-.72-.91-.75-1.49-.02-.37.19-.46.47-1.21.63-1.68,1.02-2.95,1.14-3.34.4-1.29.33-.55,2.94-8.68,1.15-3.59,1.52-4.99,2.57-7.42.25-.58.42-.93,3.01-5.9,2.15-4.12,2.95-5.63,4.23-7.71,1.4-2.28,2.28-3.48,3.59-4.65,1.25-1.13,2.45-1.84,2.99-2.15,1.92-1.13,3.58-1.66,4.18-1.84,1.37-.41,2.06-.62,2.97-.69.47-.04.99-.05,1.68-.3.61-.22.67-.37,1.19-.49.33-.08.55-.07,1.68,0,.59.04,1.1.07,1.48.1-.1,7.11-.21,15.24-.3,22.35,0,.44-.01.89-.02,1.33,0,.35,0,.51.07.72.12.34.41.67.75.78.5.17,1.02-.19,1.67-.67,1.37-1.02,2.06-1.52,2.37-1.86.11-.12,2.32-1.83,6.73-5.26,0,0,5.86-4.55,23.67-15.32.15-.09.58-.35,1.17-.62.56-.26,1.34-.61,2.37-.78.9-.15,1.49-.25,2.2.02.22.08,1.1.42,1.48,1.32.04.09.32.79.09,1.56-.18.59-.51.69-.58,1.31-.02.17-.08.63.17.97.29.39.84.41,1.15.45.58.07,1.27.53,2.67,1.44,1.23.8,2.02,1.58,3.73,3.24,3.53,3.41,2.94,2.77,3.93,3.77,1.19,1.21,2.26,2.38,4.35,4.68,2.22,2.44,3.34,3.68,4.09,4.69,2.24,2.99,2.89,4.78,3.04,5.23.36,1.04.76,2.17.82,3.72.05,1.36-.2,1.86-.03,3.62.12,1.21.18,1.82.57,2.53.26.49.58.85.88,1.64.04.1.22.59.33,1.25.85,5.16.58,8.39.58,8.39-.52,6.2.03,12.44,0,18.65-.03,7.21.17,5.97.29,20.82.05,6.64.03,9.48,0,11.86-.08,5.67-.27,10.39-.43,13.74h-104.3c0-.65,0-1.63,0-2.81-.02-7.09-.14-8.29-.13-12.12,0-2.18.05-1.09.36-10.7.04-1.38.13-3.98.4-7.44.04-.49.19-1.88.22-2.15"/><path id="sweater-3" class="cls-4" d="M89.52,314.5c-1.27.07-2.66.08-4.16,0-2.78-.15-4.8-.54-5.67-.73-2.66-.57-3.92-1.18-4.7-1.62-.64-.36-.8-.77-1.08-.68-.77.24-.35,3.01.24,6.99.04.3.11.65.36,1,.3.4.6.42.9.81.08.1.26.36.38,1.04.16.91.04,1.52,0,2.16,0,0-.05.81.24,2.4.36,1.96,1.76,3.37,3.36,4.98.78.79,2.2,2.19,4.5,3.42,2.02,1.08,3.88,1.57,5.17,1.8.16-4.87.31-8.53.39-9.9.05-.84.11-1.56.11-1.56.11-1.42.16-2.12.2-2.23.1-.29.25-.62.09-.9-.12-.22-.32-.2-.51-.4-.29-.31-.14-.75-.11-1.46.03-.77-.12-.73-.18-1.81-.02-.4-.03-1,.05-1.75l.42-1.58Z"/></g><g id="sweater_outline"><path class="cls-10" d="M175.82,315.92c-1.11-3.51-2.53-6.18-3.67-8.01-.88-1.41-1.86-2.98-3.59-4.71-.91-.92-2.62-2.47-5.09-3.82-1.4-.77-2.56-1.18-4.86-2.02-2.64-.96-4.19-1.4-4.86-1.57-1.13-.29-2.09-.48-2.77-.6"/><path class="cls-10" d="M120.43,241.71c-.1,5-.07,10.2.13,15.57,0,.09-.05,2.61.28,5.95,0,0,.3,3.07,1.35,6.39.27.85.68,2.01,1.68,3.13.27.3.53.69,1.02.95.11.06,1.04.52,2.04.15.16-.06.41-.18.87-.58.92-.81,1.41-1.67,1.46-1.75.78-1.35,3.27-3.38,5.03-4.81,5.02-4.08,14.41-9.42,22.59-14.21.89-.52,2.01-1.2,3.72-2.19,1.59-.91,2.58-1.45,4.74-2.7.83-.48,1.51-.88,1.95-1.13"/><path class="cls-10" d="M161.42,257.06c1.18,1.02,2.75,2.61,4.08,4.89,1.79,3.06,2.19,5.88,2.61,8.65.18,1.22.51,3.84.33,7.18-.26,4.62-1.35,7.96-1.63,8.81-.56,1.65-1.17,2.98-1.63,3.92"/><path class="cls-10" d="M145.75,277.29c-.41,2.56-.71,5.64-.65,9.14.05,3.2.63,6.97.82,8.32.06.46.19.9.56,1.41"/><path class="cls-10" d="M151.14,287.24c-1.25,2.13-2.22,3.97-2.94,5.38-1.1,2.18-1.83,3.62-2.61,5.71-.88,2.35-1.35,4.23-1.63,5.38-.35,1.44-.73,2.99-.98,5.06-.18,1.49-.32,3.56-.16,6.04"/><path class="cls-10" d="M102.35,270.43c-1.83,4.12-3,7.72-3.75,10.44-.93,3.36-1.42,6.08-1.79,8.16-.57,3.21-.92,5.97-1.14,8.12"/><path class="cls-10" d="M98.84,302.14c1.66,1.34,3.32,2.69,4.98,4.03"/><path class="cls-10" d="M101.21,328.03c-.7-.2-1.37-.37-2.61-1.31-2.06-1.56-1.92-1.73-3.51-4.06-.63-.93-.54-1.78-.48-2.09.11-.6.33-.96.66-1.21.49-.37,1.44-.7,2.43-1.27.55-.32.85-.75,1.08-1.08.53-.76.56-1.32.92-2.42.11-.35.38-.96.92-2.17.47-1.06,1.12-2.53,2.08-4.42,1.73-3.39,2.45-4.19,2.83-4.58.47-.48,1.05-1.07,2-1.58.49-.26,1.97-1.03,3.83-.83,1.12.12,1.94.61,3.58,1.58.35.21,1.76,1.06,3.42,2.5.94.82.95.95,2.08,1.92.85.72,1.51,1.29,2.5,1.92.41.26,1.39.86,2.75,1.42,1.16.48,2.06.7,2.25.75.72.18,1.34.28,1.83.33"/><path class="cls-10" d="M125.1,315.59c1.19-1.04,2.12-1.95,2.75-2.58,1.58-1.59,2.75-2.92,2.75-2.92,1.45-1.63,1.54-1.9,2.25-2.33,1.18-.72,2.38-.85,3-.92.51-.05,1.44-.14,2.58.17.98.26,1.66.68,2.17,1,.66.41,1.92,1.56,2.27,1.89"/><path class="cls-10" d="M74.32,319.14c.52.29,1.09.59,1.71.86.31.14,1.47.65,3,1.08,3.31.93,6.35.92,8.1.9,1.16-.01,2.12-.08,2.77-.13"/><line class="cls-10" x1="81.7" y1="321.99" x2="81.7" y2="327.74"/><path class="cls-10" d="M84.26,321.93c0,.95.11,1.75.23,2.33.12.57.35,1.65,1.02,2.88.28.52.57.92.78,1.2"/></g><g id="finger_outline"><path id="finger_outline-2" class="cls-8" d="M77.26,304.79c-.62.1-1.98-.64-3.45-1.43-.85-.46-1.61-.84-2.2-1.05"/><path id="finger_outline-3" class="cls-8" d="M76.72,309.07c-1.32-.55-1.58-.67-2.74-1.38-1.32-.81-1.1-.63-2.09-1.33"/></g><g id="hands"><path class="cls-6" d="M88.92,314.53c-.79.03-1.86.05-3.13,0-2.6-.11-4.51-.44-5.08-.55-1.72-.32-2.91-.54-4.41-1.19-.96-.41-1.32-.66-1.87-.99-1.3-.78-2.12-1.3-2.46-1.57,0,0-.7-.44-1.52-1.05-.5-.37-.55-.82-.46-1.23.06-.28.52-.73.74-.83.28-.12.69-.31,1.49-.18.33.05.47.17.49.1.05-.16-.42-.45-.82-.69-1.91-1.14-2.82-1.7-3.23-2.06-.65-.58-.7-1.09-.7-1.44,0-.08.08-.42.16-.55.19-.32.6-.52,1.01-.61.23-.05.52-.04.85.03.74.14,1.6.65,1.62.59.03-.09-1.3-.49-2.51-1.45-.73-.58-1.2-.79-1.31-1.34-.13-.63-.08-.84.11-1.25.15-.33.92-.89,1.58-.79.71.11,1.83.51,2.73.84,1.16.41,2.67,1.14,4.91,1.82,1.77.53.3-1.63.16-1.79-.93-.98-1.12-1.12-2.55-2.62-.42-.44-1.46-1.41-2.35-2.33,0,0-1.1-.92-1.42-1.71-.12-.29-.14-.76.05-1.11.19-.35.58-.5.69-.53.43-.13.84-.03,1.3.15,1.41.56,2.59,1.39,2.59,1.39,1.9,1.24,2.74,1.48,3.87,2.59.33.33.11,1.07.46,1.41.46.46.64.71.93.78.47.13,1.04.28,1.52,0,.38-.22.31-.48.69-.69.36-.2.66-.08,1.37,0,.95.11,1.47.17,2.06,0,.51-.15.87-.42,1.45-.84.38-.28.57-.42.76-.69.23-.32.37-.7.46-1.45.09-.73.07-1.34,0-2.21-.07-.91-.11-1.49-.23-2.36-.16-1.21-.29-1.69,0-2.29.07-.15.26-.52.69-.76.05-.03.62-.34,1.22-.15.75.24,1.05,1.13,1.33,1.97.19.57.21.86.37,1.87,0,0,.24,1.46.51,2.64.37,1.61,1.04,3.1,1.04,3.1.19.57.83,2,2.29,3.63,2.06,2.3,2.19,2.43,2.19,2.43.06.06.23.24.33.53.17.48.02.93-.02,1.05-.11.31-.29.48-.88,1-.71.63-.96.84-1.19,1.05-.42.38-.69.69-1.21,1.3-.21.25-.71.84-1.76,2.23-.93,1.23-.74,1.05-1.74,2.38-.6.81-.89,1.17-1.32,1.85-.36.57-.61,1.05-.84,1.54-.18.4-.31.75-.4,1.01l-.6.03Z"/><path class="cls-6" d="M83.75,295.23c.55.59,1.43.57,1.9.56.42-.01,1.53-.04,2.26-.94.74-.91.53-2.01.51-2.1-.23-1.11-1.15-1.62-1.39-1.75-.28-.16-1.07-.59-1.9-.29-.64.23-.94.77-1.17,1.17-.05.1-1.25,2.25-.22,3.36Z"/><path class="cls-6" d="M83.67,291.36c-.04-.16-.19-.68-.66-1.02-.68-.49-1.65-.33-2.26.07-.67.44-.88,1.15-1.1,1.9-.1.35-.23.91-.22,1.61.02.82.03,1.65.63,2.16.48.41,1.08.41,1.26.41.17,0,.87-.01,1.4-.53.42-.4.51-.89.63-1.51.11-.55.01-.56.1-1.32.12-1.08.33-1.24.21-1.76Z"/><path class="cls-6" d="M80.31,290.33c-.02-.54-.35-.92-.44-1.02-.53-.62-1.43-.84-2.19-.66-.93.22-1.57,1.01-1.75,1.83-.27,1.24.48,2.54,1.39,2.85.39.13.85.09,1.1.07.49-.04,1.03.03,1.07-.3.06-.44.12-.56.35-1.37.23-.79.5-.88.48-1.39Z"/></g></svg>