<?xml version="1.0" encoding="UTF-8"?><svg id="Mia" xmlns="http://www.w3.org/2000/svg" viewBox="0 0 284.05 355.63"><defs><style>.cls-1{fill:#3a3939;}.cls-1,.cls-2,.cls-3,.cls-4,.cls-5,.cls-6,.cls-7,.cls-8,.cls-9,.cls-10,.cls-11,.cls-12,.cls-13,.cls-14,.cls-15{stroke-miterlimit:10;}.cls-1,.cls-2,.cls-3,.cls-4,.cls-7,.cls-8,.cls-9,.cls-10,.cls-11,.cls-12,.cls-13{stroke:#000;}.cls-1,.cls-7,.cls-11{stroke-width:2px;}.cls-2{fill:#e387b2;}.cls-3{fill:#748258;}.cls-3,.cls-5,.cls-15{stroke-width:.75px;}.cls-16{fill:#eba997;}.cls-4{fill:#f2f9f9;}.cls-5,.cls-6,.cls-14,.cls-15{stroke:#020202;}.cls-5,.cls-9,.cls-10,.cls-11{fill:none;}.cls-6{fill:#bb7952;}.cls-17{fill:#43542c;}.cls-7{fill:#957c68;}.cls-8{fill:#b8dde3;}.cls-8,.cls-14{stroke-width:1.5px;}.cls-10{stroke-width:1.2px;}.cls-18{fill:#f1d6cc;}.cls-12{fill:#e17bab;}.cls-19,.cls-15{fill:#f8e6da;}.cls-13{fill:#f7dcd5;}.cls-14{fill:#d0a474;}</style></defs><ellipse id="face_skin_color" class="cls-19" cx="137.16" cy="151.07" rx="89.36" ry="106.54"/><path id="neck_shadow" class="cls-18" d="M143.52,202.99c.05-.32,3.13.16,5.45.4.54.06,1.75.12,4.18.26,2.12.12,3.58.21,5.5.26.95.03,2.01.04,4.13.07,1.55.02,2.53-.04,3.41-.03-.06.04-.17.2-.26.29-.04.04-.24.25-.34.57q-.09.29-.12.73c-.02.38-.07.49-.08.6-.1,1.02-2.81,1.74-4.42,2.19-.78.22-1.55.51-2.33.71-4.19,1.06-6.28,1.79-7.66,2.11-1.45.33-2.12.54-2.8.74-.04.01-.31.07-.84.19q-.37.08-.69.06c-.29-.02-.82-.08-1.11-.37-.07-.07-.32-.33-.55-.87-.19-.45-.24-.87-.34-1.68-.07-.55-.06-.64-.13-1.26-.09-.76-.12-.69-.18-1.2-.06-.64-.07-.61-.1-1.43,0-.11,0-.63-.07-.95-.05-.23-.08-.49-.22-.73-.23-.38-.12-.24-.23-.38-.2-.27-.21-.22-.2-.27Z"/><path id="hair" class="cls-7" d="M151.7,37.22c-3.95-1.4-9.82-3.14-17.1-4.07-9.72-1.24-25.41-1.46-42.34,5.7-11.16,4.72-18.64,10.86-21.98,13.84-12.42,11.06-18.03,23.16-21.17,30.13-5.71,12.67-7.96,24.76-8.96,30.13-1.49,8.03-1.51,12.18-4.07,21.17-1.09,3.84-2,6.29-2.44,10.58-.12,1.14-.65,6.78.81,14.66,1.44,7.78,3.05,8.17,3.26,13.84.19,5.17-.99,9.43-1.63,11.4-1.71,5.27-3.2,5.31-4.89,10.58-1.49,4.65-1.58,8.53-1.63,11.4-.12,6.86,1.32,11.96,1.63,13.03,1.79,6.18,3.3,5.86,3.26,8.96-.08,5.21-4.35,6.17-6.51,13.84-.83,2.93-1.86,6.6,0,8.96,0,0,.98,1.24,8.96,3.26,3.23-.28,7.4-.42,12.21,0,4.03.35,7.35,1,10.58,1.63,8.55,1.66,8.43,2.41,12.21,2.44,4.41.04,5.56-.97,8.96,0,2.85.82,4.51,2.24,5.7,1.43.93-.63.53-1.91,1.14-4.58.34-1.49.71-2.12,2.29-5.43,3.43-7.21,2.9-6.72,3.72-8.01.67-1.05,2.19-3.22,7.44-6.86,4.45-3.09,8.74-5.06,17.16-8.87,8.77-3.97,6.68-2.55,12.3-5.15,1.42-.66,3.9-1.83,7.44-2.57,1.9-.4,3.05.25,4-.57,1.1-.94.73-2.35.86-6.01.2-5.58,1.25-7.63,0-8.58-.69-.52-1.4-.2-3.43,0-1.35.13-3.29,0-7.15-.29-6.09-.44-13.34-2.31-15.44-2.86-7.44-1.94-11.62-3.04-16.87-5.72-3.38-1.73-6.14-3.86-11.73-8.01-4.91-3.64-7.36-5.46-8.29-6.58-2.09-2.5-3.38-5.06-5.72-5.15-1.09-.04-1.51.5-3.43,1.14,0,0-2.79.88-5.72.86-4.27-.04-7.49-2.05-8.29-2.57-4.11-2.71-5.6-6.68-6.86-10.01-2.05-5.43-1.88-10.07-1.72-13.44.17-3.57.34-6.42,2-9.72.85-1.69,2.54-4.93,6.29-6.86,2.83-1.45,5.44-1.45,6.86-1.43,1.6.02,4.89.07,7.72,2.29.52.41,1.52,1.2,2.29,2.57.87,1.55.73,2.54,1.14,5.15.48,2.97.73,4.59,1.72,6.29,1.36,2.36,2.39,1.91,3.72,4.29,1.18,2.11.47,2.67,1.72,5.72,1,2.44,2.27,4.11,2.86,4.86,2.08,2.68,2.92,2.42,4.29,4.29,2.81,3.82,1.74,8.23,2.57,8.29.73.06,1.69-3.24,2-6.01.24-2.11.49-4.35-.57-6.86-1.13-2.65-3.16-4.26-4.29-5.15-2.09-1.65-2.74-1.34-3.72-2.57-.91-1.15-1-3.07-1.14-6.86-.26-6.92-.28-8.04,0-10.01.37-2.58.56-3.87,1.43-5.15,1.36-2,2.93-2.13,6.29-4,1.28-.71,3.33-2.29,7.44-5.43.61-.47,3.12-2.4,7.15-5.72,5.7-4.7,8.56-7.05,9.72-8.58,1.54-2.01,2.74-4.67,5.15-10.01,2.96-6.56,2.48-6.68,4.29-10.01,3.14-5.78,6.73-9.37,8.01-10.58,2.31-2.21,4.8-4.57,8.87-6.29,4.27-1.8,7.96-1.92,10.58-2,4.5-.14,7.29-.23,10.58,1.14,2.33.97,4.23,2.39,6.58,1.72.35-.1.36-.15,2.86-1.43,2.32-1.19,3.48-1.79,4-2,2.55-1.05,5.08-1,6.29-.86,2.68.32,4.6,1.8,8.29,5.43,5.19,5.1,8.78,9.43,9.72,10.58,4.69,5.7,7.04,8.55,8.87,11.44.96,1.51,3.76,6.09,6.29,12.58,3.11,7.97,4.06,14.36,4.29,16.02.11.78.42,3.16.57,6.29.15,3.19.32,7.37-.57,12.3-.28,1.56-.7,3.31-.86,4-.65,2.76-1.16,4.4-1.43,5.43-.51,1.94-.61,3.23-.86,9.44-.39,9.67-.3,9.94-.57,12.3-.51,4.43-.76,6.64-2,9.15-1.5,3.04-3.45,4.73-6.58,7.44-2.09,1.81-5.9,5.05-11.73,7.44-2.53,1.03-5.21,1.64-10.58,2.86-4.75,1.08-7.12,1.62-9.15,1.72-5.79.29-9.13-1.16-10.3.57-.47.7,0,1.04,0,4,0,3.82-.78,4.76,0,5.72.76.93,2.22.91,5.15.86,3.73-.06,4.84-.79,5.72,0,.91.81.33,2.11.29,5.43-.03,2.46.27,4.21.86,7.72.26,1.52.71,4.14,1.72,7.44.32,1.04.98,2.79,2.29,6.29,1.01,2.7,2.47,6.5,2.47,6.5.81.25,1.84,0,3.25-.21,2.53-.37,4.19-1.97,5.15-2.86,2.61-2.4,5.74-4.17,8.58-6.29,9.84-7.35,9.26-4.74,13.73-8.87,1.04-.96,2.82-2.71,4.58-2.29.52.12.93.41,2.57,2.57,1.65,2.17,2.69,3.78,4.29,5.72,1.92,2.32,2.36,2.34,2.57,2.29.87-.21.88-2.17,1.43-6.01.78-5.44,1.26-5.02,1.43-8.01.06-1.05.19-4.44-.86-8.58-.89-3.52-1.62-3.57-3.72-9.15-1.19-3.18-2.02-5.39-2.57-8.58-.54-3.15-.56-5.79-.57-8.01-.01-1.88-.02-3.65.29-6.01.35-2.71.91-4.74,1.43-6.58.63-2.24.88-2.64,2-6.01,1.12-3.36,1.87-5.96,2.29-7.44.45-1.59,1.4-4.92,2.29-8.87.82-3.65,1.8-8.05,2.29-13.73.53-6.19.2-10.92,0-13.73-.26-3.64-.74-9.72-2.86-17.16-1.02-3.59-2.21-6.4-4.58-12.01-3.62-8.59-6.79-14.71-10.3-21.45-2.62-5.03-3.96-7.59-5.43-9.72-1.53-2.2-4.68-5.39-10.87-11.73-1.6-1.64-4.18-4.26-7.72-7.44-3.34-2.99-4.79-4-6.29-4.86-1.15-.66-3.07-1.4-6.86-2.86-6.5-2.5-7.53-2.72-8.29-2.86-3.47-.62-6.36-.37-7.15-.29-3.58.36-4.49,1.24-7.15,1.14-2.62-.09-4.72-1.05-6.07-1.83"/><g id="hair_strands"><path id="hair_strand" class="cls-9" d="M224.96,152.64c0,4.99.18,10.31.62,15.92.25,3.13.57,6.15.94,9.05"/><path id="hair_strand-2" class="cls-9" d="M150.52,53.7c.61-.08,1.45-.16,2.44-.15.3,0,1.6.01,3.35.3,1.21.2,2.26.48,2.74.61.86.24,1.43.44,2.44.61.76.13,1.14.2,1.52.15,1.09-.13,1.45-.86,2.44-1.52,1.42-.96,2.97-1,5.18-1.07.83-.02,1.58-.05,2.59.15,1.19.24,2.03.64,3.51,1.37.69.34,1.64.84,2.74,1.52"/><path id="hair_strand-3" class="cls-9" d="M98.49,206.73c-.92.88-1.95,2.09-2.82,3.68-.86,1.58-1.21,2.91-1.3,3.25-.33,1.31-.37,2.29-.43,3.9-.07,1.68.06,1.73,0,3.9-.03,1.17-.06,2.07-.22,3.25-.2,1.47-.3,2.23-.65,3.03-.29.67-1.08,2.11-3.25,3.25"/><path id="hair_strand-4" class="cls-9" d="M53.87,215.83c-.78,2.78-1.13,5.09-1.3,6.71-.34,3.25-.05,4.45-1.08,6.06-1.05,1.64-2.12,1.62-3.47,3.47-1.4,1.92-1.66,3.84-1.73,4.33-.22,1.48.03,2.23.22,4.12.1,1.02.72,3.58,0,6.06-.41,1.43-1.12,2.43-2.17,3.9-.96,1.35-1.9,2.36-2.6,3.03"/></g><path id="ear_outline" class="cls-9" d="M55.35,148.77c.45-.42,1.57-1.33,3.16-1.43.5-.03,1.49-.01,3.3,1,3.06,1.72,5.06,4.24,4.88,4.45-.08.09-.48-.32-1.41-.6-.34-.1-.87-.21-2.3-.17-1.49.05-2.24.07-2.94.3-.45.15-1.45.49-2.34,1.41-.41.42-.68.84-.85,1.15"/><g id="eyebrows"><path id="eyebrow" class="cls-10" d="M122.63,121.52c.48-.49,1.17-1.12,2.07-1.73,1.75-1.18,3.32-1.63,3.69-1.73,1.96-.54,3.55-.38,5.18-.23,1.67.16,3.12.52,3.8.69.66.17,1.22.33,1.61.46"/><path id="eyebrow-2" class="cls-10" d="M186.21,120.37c.2-.47.57-1.18,1.27-1.84,1.03-.98,2.15-1.28,2.99-1.5.42-.11,2-.49,4.03-.12.28.05,1.59.31,3.11,1.15,1.37.76,2.31,1.67,2.88,2.3"/></g><g id="cheek_blush"><ellipse id="cheeks" class="cls-16" cx="120.44" cy="166.07" rx="13.65" ry="6.55"/><ellipse id="cheeks-2" class="cls-16" cx="200.03" cy="163.64" rx="12.16" ry="6.82"/></g><path id="glasses" class="cls-6" d="M88.84,131.31c3.69.27,7.39.55,11.08.82.72.05,1.4-.27,1.82-.85.17-.23.35-.46.55-.69.61-.71,1.23-1.45,2.21-2.06.55-.34,1.58-.88,3.09-1.03h37.84c1.34,0,2.66.24,3.91.73.13.05.26.1.39.15,1.54.63,2.56,1.04,3.68,1.92,1.06.82,1.7,1.63,1.92,1.92.34.44.61.88.82,1.28.36.67,1.05,1.08,1.81,1.08h9.32c.55,0,1.08-.22,1.47-.61,2.35-2.35,2.43-2.44,2.63-2.63.42-.41,1.9-1.8,3.39-2.65,1.05-.6,2.17-.96,5.16-1.33,2.07-.25,4.87-.48,8.25-.44h26.53c.28,0,.56.05.82.16.52.23,1.09.52,1.67.87.92.56,1.68,1.16,2.3,1.72.42.38.66.91.67,1.48l.33,12.66c0,.12,0,.23-.02.35-.11.72-.29,1.8-.62,3.09-.68,2.64-2.05,8-6.49,11.93-1.95,1.73-3.7,2.48-4.12,2.65-1.97.81-3.73,1-4.86,1.03h-20.59c-.12,0-.23,0-.35-.03-.83-.14-1.97-.42-3.22-1-2.78-1.31-4.32-3.31-5.16-4.42-1.59-2.12-2.38-4.04-2.65-5.3-.58-2.71-.53-3.38-1.03-6.48-.17-1.06-.36-2.03-1.03-3.09-.35-.55-.93-1.84-2.36-2.21-.49-.13-.5-.18-3.39-.29-2.11-.08-2.53-.07-3.09,0-.73.1-1.47.19-2.36.59-.42.19-1.85.85-2.8,2.36-.44.69-.6,1.3-.88,2.65-.54,2.6-.71,4.14-.88,5.16-.49,2.78-1.62,4.81-2.06,5.6-1.43,2.52-3.07,3.89-6.19,6.48-2.22,1.84-3.38,2.44-4.57,2.8-1.43.44-2.69.48-3.54.44h-20.76c-1.52,0-3.01-.37-4.34-1.11-.36-.2-.73-.42-1.12-.66-1.42-.89-3.26-2.04-4.71-3.83-1.35-1.67-1.88-3.57-2.95-7.37-.91-3.24-1.21-4.88-1.47-6.48-.21-1.29-.21-1.04-.66-3.31-.18-.88-.76-1.7-1.28-2.28-.33-.38-.79-.63-1.29-.69l-13.67-1.84c-1.17-.16-2.02-1.27-1.76-2.43,0,0,0-.02,0-.03.35-1.5,1.19-2.5,1.69-3,.1-.1.2-.17.31-.25l1.47-.96,1.13-.55Z"/><g id="glasses_lens"><path id="lens" class="cls-4" d="M106.24,137.79c.53-1.75,1.77-2.8,2.94-3.78.65-.54,2-1.57,4.19-2.52,1.47-.63,3.82-1.44,6.92-1.66.14-.01.28-.01.42-.01h16.39c.26,0,.51.02.76.06.86.15,1.96.38,3.19.78,1.24.4,2.83.92,4.61,2.1.63.41,1.78,1.19,2.94,2.52,1.72,1.98,2.38,3.97,2.94,5.66.28.85,1.42,4.48,1.08,9.11-.16,2.25-1.09,4.38-2.52,6.13-.37.46-.8.96-1.29,1.54-2.33,2.75-3.78,4.42-6.29,5.45-1.52.62-2.89.79-3.78.84h-21.37c-1.84-.18-1.88-.39-3.03-1.1-.47-.29-.89-.76-1.4-1.2-1.79-1.56-2.7-2.36-3.36-3.15-1.49-1.78-2.13-3.54-2.52-4.61-.73-2.04-.84-3.81-1.05-7.34-.12-2.04.06-.95,0-6.29-.01-1.18-.03-1.73.21-2.52Z"/><path id="lens-2" class="cls-4" d="M173.67,139.9c-.07-1.06.16-2.11.72-3.02.43-.7.98-1.47,1.7-2.24,1.35-1.46,2.66-2.26,3.78-2.94.98-.6,2.47-1.49,4.61-2.1,1.59-.45,2.98-.59,3.99-.63h16.22c.97,0,1.93.15,2.86.47.33.11.68.24,1.06.37,2.64.94,3.67,1.37,4.51,2.1.89.77,1.2,1.07,1.83,2.42.22.48.84,2.71,1.01,5.75.16,2.85.08,1.24,0,5.66-.04,2.33-.23,3.48-.63,5.03-.33,1.29-.94,3.57-2.73,5.87-.59.76-1.52,1.93-3.15,2.94-.79.49-1.74.95-2.61,1.3-1.07.44-2.22.66-3.38.66h-21.2c-1.31-.31-.99-.28-1.64-.6-1.64-.79-2.6-1.89-3.29-2.69-1.12-1.31-1.79-2.6-2.17-3.51-.66-1.57-.79-2.77-1.05-5.08-.16-1.4-.21-2.95-.3-5.98-.04-1.23-.06-2.24-.07-2.92l-.06-.88Z"/></g><g id="opened_eyes"><ellipse id="eyes" class="cls-17" cx="132.01" cy="147.62" rx="6.98" ry="7.25"/><ellipse id="eyes-2" class="cls-17" cx="190.24" cy="146.04" rx="6.76" ry="6.91"/></g><path id="smile_mouth" class="cls-10" d="M150.06,172.11c.42.81,1.45,2.54,3.51,3.79,2.3,1.4,4.61,1.32,6.47,1.26,2.8-.08,4.78-.82,5.2-.98,1.75-.69,2.99-1.65,3.79-2.25.9-.68,1.61-1.33,2.11-1.83"/><g id="cardigan"><path class="cls-1" d="M201.46,337.8c.99.09,2.36-.03,3.79-.92.53-.33,1.22-.77,1.9-1.74.83-1.18,1.36-1.6,1.87-2.79,1.09-2.56,1.04-2.58,1.51-5.74.13-.87-.29-3.56-.75-4.2-1.1-1.55-6.03,1.62-9.68,5.5l1.35,9.9Z"/><path id="cardigan-2" class="cls-1" d="M169.59,271.41c.52-4.48.91-9.38,1.05-14.65.08-3.1.12-7.92-.21-13.81-.34-5.95-.91-10.39-1.46-14.65-.64-4.89-1.32-9.03-1.88-12.14v-.57l.22-.33c.14.04.35.1.61.14.52.1.93.1,1.33.1.82,0,1.23,0,1.69,0,1.06-.02,1.6-.04,2.13-.08.93-.07,1.39-.11,1.99-.21.64-.1.98-.19,1.46-.06.19.05.64.18.93.59.15.21.23.45.28.93.07.73-.02,1.17-.1,1.98-.06.55-.07.93-.1,1.6,0,.15-.04,1.02,0,2.07.02.47.07,1.38.4,3.67.15,1.05.37,2.52.77,4.49.23,1.13.44,2.17.8,3.55.44,1.65.86,2.87,1.28,4.08.3.86.48,1.32,1.41,3.78.73,1.93,1.22,3.23,1.38,3.64.39,1.02.62,1.52.99,2.57.23.66.42,1.28.19,1.96-.13.39-.42.72-.51.82-.36.41-.74.62-.82.67-1.22.7-2.97,3.9-2.97,3.9-1.7,3.1-2.61,5.96-2.69,6.23-.32,1.04-.87,2.97-1.59,7.78-.35,2.37-.76,5.52-1.06,9.29-.24-.14-.6-.35-1.01-.64-1.45-1.02-2.33-2.12-2.79-2.7-.53-.67-.92-1.28-1.46-2.11q-.29-.45-.31-.86l.06-1.05Z"/><path id="cardigan-3" class="cls-1" d="M200.17,329.05c.71,4.42,1.06,8.13,1.25,10.88.34,4.9.36,9.52.38,14.34,0,1.27,0,2.09,0,2.83h-17.07l-.4-26.69,15.83-1.35Z"/><path id="cardigan-4" class="cls-1" d="M102.13,333.81c-.02,1.12-.03,4.15,0,5.99.04,2.49.09,5.67.46,9.68.15,1.58.38,5.15.76,7.6h67.34v-13.96l-68.57-9.32Z"/><path id="cardigan-5" class="cls-1" d="M92.71,309.29c1.7-1.4,3.3-2.2,4.43-2.66,3.56-1.46,6.71-1.33,8.13-1.25,1.03.05,1.84.19,3.45.45,1.23.2,3.43.57,6,1.35,1.85.56,3.08,1.09,5.4,2.1,4.26,1.85,4.61,1.99,7.32,2.93,2.89,1.01,4.06,1.35,7.68,2.32,7.32,1.97,10.56,3.31,18.15,5.4,3.19.88,5.84,1.52,7.65,1.95,0,0,3.47.73,6.59,2.58.32.19.82.52,1.18,1.11.09.15.31.54.46,1.38.19,1.07-.11,11.55,0,16.31,0,.28.03,1.04-.46,1.51-.51.49-1.16.44-1.26.43-1.53-.02-3.74-.08-6.39-.24-5.07-.3-8.95-.79-13.49-1.42-7.9-1.09-13.45-1.87-21.54-3.31-5.13-.92-8.94-1.72-16.57-3.31-8.37-1.75-12.21-2.68-17.04-4.5-4.4-1.66-7.97-3.41-11.12-6.63-1.08-1.11-2.6-2.68-3.79-5.21-1.31-2.79-1.46-5.16-1.66-8.76-.21-3.85.13-6.81.47-9.7.11-.9.41-3.35,1.42-8.28,1.15-5.67,2.3-10.07,2.84-12.07,1.25-4.66,2.68-9.38,4.4-15.06,0,0,.59-1.89,1.68-6.02.34-1.28.52-2.01.7-2.92.34-1.68.29-1.91.52-2.82.18-.72.67-1.74,1.63-3.77,1.71-3.6,1.75-3.68,1.96-4.15.64-1.45.76-1.82,1.32-2.98.61-1.24.94-1.92,1.46-2.69.8-1.17,1.55-1.84,3-3.11,1.52-1.34,2.81-2.23,3.91-2.99,1.06-.73,2.02-1.34,2.87-1.85,3.07-1.85,5.75-3.09,7.12-3.72,5.05-2.32,8.26-3.75,10.93-4.95,1.27-.57,4.96-2.07,12.35-5.06.39-.16,3.46-1.38,4.91-1.14.31.05.91.24,1.6,0,.36-.12.54-.3.9-.29.45,0,.75.32.99.47.83.51,1.27,1.14,1.83,1.95,1.22,1.77,1.83,2.65,2.07,3.04.36.58.91,1.46,1.55,2.66.56,1.05,1.37,2.7,2.15,4.81.46,1.26.65,2.05,1.04,3.26,1.22,3.79,2.01,6.25,3.07,9.12,1.08,2.94,2.01,5.15,2.28,5.78,1.68,3.95,3.16,6.84,4.34,9.13.58,1.14.3.56,4.59,8.34,2.62,4.76,3.56,6.49,5.54,8.64,1.24,1.36,2.4,2.34,3.21,2.98l.59.36-1.1,50.03h-4.5"/></g><path id="cardigan_outline" class="cls-11" d="M110.62,243.33c1.17.94,2.83,2.49,4.26,4.79,2.24,3.6,2.59,6.95,3.19,12.59.25,2.32.59,5.77.18,10.28-.3,3.24-.86,5.58-1.6,8.69-.97,4.09-1.99,7.09-2.84,9.57-1.11,3.24-1.84,5.37-3.19,8.16-1.32,2.73-2.52,4.66-3.19,5.67-.47.72-.89,1.31-1.2,1.73"/><path id="tank_top" class="cls-14" d="M169.6,273.09c.06-.7.09-2.27.2-3.58.45-5.5.81-9.72.88-14.82.02-1.76.02-3.48,0-5.17h-13.75c.31.72.76,1.76,1.33,3,1.18,2.56,2.33,4.81,4.97,9.67,1.2,2.2,2.7,4.93,4.47,8.06l1.91,2.83Z"/><g id="flower_wrapper"><path id="flower_wrapper-2" class="cls-8" d="M179.24,257.86c-.38-.06-1.08,2.37-1.44,3.66-1.27,4.53-1.7,8.17-1.79,8.9-.46,4.05-.88,9.07-1.11,16.61-.01.41,0,.29-.13,5.77-.11,4.87-.21,9.74-.32,14.61-.11,4.89-.22,9.79-.32,14.68-.05,2.24-.1,4.48-.15,6.72.39,0,.99,0,1.72,0,1.95.01,2.95.02,4.16.15.23.03,1.01.09,2,.3.78.17,1.23.34,1.64.69.4.34.53.57.57.67.18.44.05.87-.03,1.12-.13.46-.44.61-.37.75.06.13.33.12.73.08,1.17-.13,2.05-.43,2.2-.48.71-.24,1.18-.45,1.18-.45,1.5-.64,2.58-1.11,3.82-1.94,0,0,1.58-1.06,2.72-1.45.12-.04.35-.11.65-.08.1,0,.41.04.7.25.47.33.57.86.6,1.04.09.47-.07.88-.17,1.17-.15.44-.32.59-.26.67.18.24,1.9-.79,1.9-.79,6.56-3.93,10.53-6.59,10.53-6.59.59-.4,2.01-1.34,3.83-2.7,0,0,.35-.26.71-.53,10.81-8.25,23.91-24.89,23.91-24.89s2.67-3.4,8.01-12.42c.17-.28,1.38-2.37,2.09-5.34.06-.25.82-3.49.23-3.71"/><path id="flower_wrapper-3" class="cls-8" d="M184.16,250.75c-.17.11-.79.52-1.83,1.83-.27.34-.49.65-.91,1.24-.87,1.24-1.31,1.86-1.48,2.21-.57,1.14-.51,2.23-.47,3.15.41,8.71.21,8.76.74,12.02.2,1.23.49,2.95,1.05,5.22,1,4.06,2.2,7.1,3.6,10.66.53,1.36,1.06,2.62,1.65,3.93.69,1.53,1.25,2.66,1.45,3.06.59,1.18,1.1,2.11,1.38,2.63.53.96.98,1.72,1.23,2.14.25.41.39.71.67,1.1.5.7.73,1.08,1.05,1.2.36.14.57,0,1.59-.19.66-.12.67-.08,1.51-.21,1.76-.26,3.71-.74,4.25-.87,1.83-.45,3.29-.89,4.43-1.26,1.2-.38,4.38-1.4,8.77-3.1.88-.34,3.86-1.5,7.72-3.2,1.69-.75,3.26-1.44,5.37-2.48,1.68-.83,3.87-1.91,6.62-3.56,1.17-.7,2.9-1.74,5.08-3.31.9-.65,2.29-1.65,4-3.14.89-.77,2.01-1.8,3.24-3.08.72-.74,1.31-1.41,1.77-1.94l.43-.5c.05-.76.1-1.84.05-3.13-.07-1.74-.21-4.52-1.44-7.73-.47-1.22-1.41-2.71-3.28-5.64-1.32-2.07-3.13-4.87-5.9-8.65-1.55-2.11-1.69-2.19-4.06-5.37-2.69-3.61-2.28-3.21-4.1-5.61-2.52-3.33-4.69-5.95-5.64-7.24-.28-.38-.59-.74-.88-1.12-.27-.35-.47-.61-.81-.91-.27-.24-.45-.4-.75-.51-.4-.15-.75-.12-.99-.09-.26.03-.52.09-.88.24-.75.31-1.26.72-1.43.86-.93.76-1.47,1.29-1.94,1.71,0,0-1.06.95-2.48,1.83-1.1.69-1.73.89-2.78,1.38-1.5.7-2.62,1.45-4.85,2.95-1.99,1.34-1.63,1.24-4.16,3-3.34,2.33-3.61,2.27-5.22,3.63-.91.77-1.78,1.59-2.73,2.29q-1.18.87-1.99,1.28c-1.03.53-1.29.66-2.62,1.16-1.57.59-.49.08-2.14.86-.76.36-1.57,1.02-1.89,1.23Z"/><path id="flower_wrapper-4" class="cls-8" d="M171.14,342.89c.91.25,1.37.35,3.37.74,2.54.49,4.54.75,5.04.81,2.92.38,4.3.39,5.76.18.63-.09,1.15-.21,1.5-.3v.87l1.49,11.89h-23.24l6.07-14.2Z"/></g><g id="leaves"><path class="cls-3" d="M221.29,290.66c-1.13-.76-5.64-3.86-8.3-7.55-1.1-1.53-1.54-2.68-1.94-3.76-.3-.82-1.12-3.01-.48-3.45.09-.06.27-.14,1.33.26,1.37.52,2.25,1.07,2.25,1.07,1.77,1.18,3.14,2.43,3.39,2.67,1.52,1.43,2.47,2.33,3.52,3.82.4.58,1.61,2.36,2.18,4.85.38,1.63.17,2.18-.12,2.36-.31.2-.89.09-1.03.06-.36-.07-.63-.22-.8-.33Z"/><path class="cls-3" d="M223.66,288.39c.38-.82.7-1.52,1.33-2.06.53-.46,1.05-.61,1.82-.85.9-.27,1.22-.2,2.05-.39.88-.2,1.26-.46,2.3-.95,2.03-.94,2.79-1.59,3.22-1.27.22.16.23.48.24.67.01.23-.01.92-1.58,2.24-1.3,1.1-2.48,1.64-2.49,1.64-1.54.92-3.25,1.83-5.15,2.67-.68.3-1.34.58-1.99.83.01-.27.01-.48.01-.63,0-.71-.07-.97.03-1.4.03-.14.08-.27.19-.51Z"/><path class="cls-3" d="M224.89,285.04c-.27.2-.58.5-.85.91-.8,1.21-.64,2.53-.57,2.94"/><path class="cls-3" d="M200.26,298.92c-.24-.27-.22-.57-.08-3.83.1-2.3.11-4.28.71-4.42.87-.21,0,0,1.11-.32.52-.15,1.94-1.03,2.39-1.44,1.56-1.41,1.27-1.17,2.54-2.06.68-.48.73-.37,1.83-.91,1.07-.53,1.14-.24,2.89-.84,1.53-.53,2.12-.96,2.41-.6.26.33.06,1.06-.2,2.01-.53,1.86-1.25,3.11-1.29,3.18-1.46,2.49-3.1,4.17-3.42,4.49-2.32,2.35-4.3,3.38-5.54,4.02-2.67,1.37-3.19.91-3.34.75Z"/><path class="cls-3" d="M200.41,290.65c-.96-.29-1.87-.31-3.21-.95-1.45-.7-2.38-1.65-2.92-2.15-.64-.59-1.14-1.14-1.51-1.58-.19.12-.45.28-.79.43-1.24.56-2.36.56-2.86.53-.56-.03-1.61-.09-2.65-.77-.88-.57-1.06-.75-1.43-1.1-.26-.25,0,1.51.23,2.24.37,1.2.9,2.02,1.04,2.24,1.67,2.59,3.58,4.55,3.79,4.77,1.58,1.61,2.37,2.41,3.65,3.15.48.28,1.8.99,3.65,1.38,1,.21,1.87.28,2.53.29l.46-8.47Z"/><path class="cls-3" d="M186.02,260.23c-.58-.42-.26-1.34-.32-3.1-.08-2.55-.85-3.85-.38-4.12.3-.17.82.25,1.71.95.68.54,1.52,1.22,2.34,2.41.12.18,1.12,1.64,1.52,3.67.1.5.17,1.06-.06,1.19-.19.11-.45-.19-1-.46-.53-.25-.99-.3-1.91-.4-1.44-.15-1.59.09-1.9-.14Z"/><path class="cls-3" d="M214.63,261.13c-.27-.04-1.14-.22-2.77-2.23-.65-.8-1.52-2.01-2.53-4.12-.74-1.54-2.04-4.25-1.39-4.75.11-.08.24-.08.82.06,1.72.42,2.72.89,2.72.89,1.16.54,1.85.86,2.72,1.52,1.33,1,2.1,2.06,2.34,2.41.66.95.96,1.7,1.52,3.17.08.21.5,1.33.76,2.85.23,1.36.08,1.59-.04,1.65-.24.12-.51-.34-1.44-.77-.46-.21-.86-.31-1.29-.42-.72-.18-1.2-.22-1.42-.25Z"/><path class="cls-3" d="M221.04,265.64c0-.73-.11-.46.76-1.22,1.34-1.17,1.52-1.23,3.54-2.54.9-.58,2.14-1.3,3.67-1.96,1.37-.59,1.88-1.05,2.15-.82.24.2.1.79-.19,1.96-.16.66-.29,1.18-.57,1.9-.11.29-.26.62-1.46,2.72-.86,1.51-1.14,1.94-1.71,2.14-.25.09-.25.02-.92.15-.31.06-1,.2-1.77.51-.49.19-.98.5-1.97,1.1-.67.41-.81.73-1.04.65-.38-.13-.42-1.02-.45-1.67-.02-.47.03-.42.02-1.34,0-.57-.03-1-.05-1.22-.02-.31-.03-.31-.03-.36Z"/><path class="cls-3" d="M204.69,297.58c1.09-.63,2.38-1.51,3.7-2.71.61-.56,1.71-1.64,2.84-3.2,1.2-1.67,1.81-2.51,2.16-3.8.37-1.37.32-2.65.78-2.73.18-.03.32.14.69.53.51.52,1.09.97,1.59,1.5.37.39,1.51,1.18,3.81,2.77.4.28.98.68,1.83,1.05.32.14.6.24.77.3-.31.14-.79.36-1.37.61-3.48,1.54-6.03,2.58-6.58,2.8-1.84.74-1.4.53-2.95,1.16-2.36.96-3.34,1.43-4.99,1.81-.78.18-1.43.26-1.83.31l-.45-.39Z"/><path class="cls-3" d="M210.17,278.59h0c-.06.65-.18,1.46-.42,2.38-.17.64-.35,1.33-.73,2.11-.85,1.74-1.99,2.52-1.75,2.87.09.13.38.1.95.05.69-.07,1.34-.2,2.01-.52s.54-.3,1.23-.56c.85-.33,1.31-.5,1.93-.49.33,0,.03-.64-.03-.73-.31-.47,0,0-.69-.97-.38-.54-.36-.66-.98-1.8-.25-.47-.65-1.16-1.18-2"/><path class="cls-3" d="M214.14,277.23c.03-.33,1.05-.27,2.57-.93.84-.36,1.27-.63,1.82-1.08.62-.51.84-1.23,1.14-1.16.12.03.18.17.28.43.21.53.2.99.2,1.24-.01.66-.07,1.09-.09,1.37-.06.74.02,1.28.16,2.16.18,1.16.27,1.74.49,2.34.13.35.32.77.18.88-.1.08-.33-.05-.54-.17-.52-.29-.81-.68-.85-.72-.14-.18-.7-.63-1.83-1.55-.58-.48-.51-.39-1.26-1-.94-.76-.9-.77-1.29-1.05-.74-.54-1-.59-.98-.76Z"/><path class="cls-3" d="M186.86,290.94c-.4.25,1.78,4.43,2.03,4.9.36.69.7,1.27.7,1.27.16.29.31.52,1,1.72.58,1.01.85,1.81,1.63,2.08.45.15,1.04.13,1.25.12.44-.02.66-.08,1.24-.2.69-.14.51-.07,1.98-.31.93-.15,1.32-.23,1.8-.37,1.22-.36,1.33-.63,1.33-.75.01-.14-.09-.25-.12-.29-.28-.31-.78-.1-1.6-.15-.29-.02-.57-.09-1.14-.24,0,0-.8-.2-1.54-.49-1.99-.78-3.88-2.52-4.27-2.89-.62-.57-1.17-1.09-1.81-1.88-.53-.65-.89-1.1-1.3-1.55-.59-.64-1.03-1.07-1.18-.98Z"/></g><g id="flowers"><ellipse class="cls-2" cx="201.66" cy="259.01" rx="7.75" ry="4.28"/><path class="cls-2" d="M198.17,259.37c.88-.63,1.6-.75,2.05-.75.25,0,.79.11,1.85.34,1.14.25,1.26.29,1.64.34.72.09,1.35.06,1.85,0"/><ellipse class="cls-2" cx="202.26" cy="272.58" rx="8.36" ry="4.35"/><ellipse class="cls-2" cx="187.51" cy="267.71" rx="7.1" ry="7.35" transform="translate(-9.9 7.21) rotate(-2.15)"/><ellipse class="cls-2" cx="189.47" cy="280.96" rx="6.17" ry="5.87"/><ellipse class="cls-2" cx="229.2" cy="271.57" rx="7.71" ry="3.88"/><path class="cls-2" d="M244.6,267.52c1.54,3.89.65,7.89-1.98,8.93-2.13.84-8.23-.51-6.49-3.12.63-.95.89-2.27.44-2.92-.69-1-1.15-1.31-2.19-1.79-2.65-1.23.8-5.68,2.96-5.94,1.97-.24,5.72.96,7.26,4.85Z"/><path class="cls-2" d="M237.52,267.25c1.36.49,2.21,1.23,2.65,1.68.58.59,1.2,1.22,1.4,2.23.24,1.28-.35,2.33-.56,2.65"/><path class="cls-2" d="M225.32,271.05c.77,0,1.42,0,1.9,0,.93.01,1.92.04,3.09.24.91.15,1.22.29,1.44.54.37.41.36.94.33,1.21"/><path class="cls-2" d="M198.54,270.97c.96-.08,1.75-.05,2.34,0,1.22.1,1.51.29,1.67.42.47.38.83,1.09.67,1.84-.17.79-.88,1.41-1.75,1.49"/><path class="cls-2" d="M183.94,266.56c.05.22.3,1.25,1.3,1.92,1,.67,2.05.49,2.53.41.33-.06,2.26-.38,2.81-1.92.25-.72.1-1.38,0-1.71"/><path class="cls-2" d="M187.02,279.08c.36-.08,1.16-.19,2.05.14.38.14.98.36,1.37.96.67,1.02.16,2.25.07,2.46-.24.55-.6.91-.82,1.09"/><path class="cls-2" d="M208.88,263.07c.01-.94,2.15-1.54,2.67-1.69,2.06-.58,3.8-.17,4.5,0,1.67.41,2.74,1.14,3.37,1.69.51.44,1.26,1.09,1.12,1.69-.08.36-.43.44-1.83,1.12-1,.49-1.12.6-2.53,1.26-1.28.6-1.47.65-1.69.56-.63-.26-.41-1.25-1.12-2.11-.64-.77-1.74-.93-1.97-.98-.79-.2-.58-.2-1.3-.53-.67-.3-1.23-.43-1.23-1.02Z"/><path class="cls-2" d="M212.7,263.53c.34-.1.84-.19,1.39-.05.14.03.44.17,1.04.45.67.31.95.45,1.39.5.23.02.43.01.55,0"/><path class="cls-2" d="M208.88,263.07c-.16-.06-.46.29-.67.68-.27.5-.35.98-.34,2.1.05,4.1.06,1.06,0,2.5-.01.36-.04.81.25,1.13.17.19.33.21.63.36.56.28.89.67,1.06.87.26.3.64.73.76,1.4.09.48.11,1.45-.42,1.9-.1.08-.26.19-.28.37-.02.16.09.31.32.54.3.3.44.46.77.68.34.24.8.56,1.45.77.35.11.72.19.94.23.37.07.43.13.51.09.24-.13.15-.64.11-1.57-.02-.43.01-.85,0-1.28-.05-1.62,0-5.64.03-6.38,0-.08.02-.32-.05-.62-.04-.16-.09-.29-.13-.4-.05-.13-.14-.36-.28-.58-.25-.39-.57-.61-.71-.7-.26-.17-.53-.26-1.08-.44-.58-.19-.71-.19-1.1-.33-.5-.18-.42-.24-.94-.44-.31-.12-.45-.15-.59-.31-.2-.24-.13-.5-.26-.54Z"/><path class="cls-2" d="M214.17,267.82c.27-.3.63-.2,1.29-.34.28-.06.77-.3,1.73-.82,1.55-.83,1.87-.96,2.18-1.1.96-.44,1.18-.67,1.39-.58.25.1.28.54.3.78.18,2.55-.07,4.06-.07,4.06-.12.74-.23,1.36-.48,2.2-.32,1.06-.52,1.68-1.04,2.34-.52.66-1.09,1-1.86,1.45-.84.5-1.47.8-2.12.97-.62.16-1.13.28-1.41,0-.19-.19-.1-.45-.06-1.24.03-.52-.02-1.04-.02-1.56,0,0,0-1.03-.03-2.05-.02-1.02.07-2.04.02-3.05-.02-.45-.05-.81.19-1.08Z"/><path class="cls-2" d="M220.7,271.29c-.18.05-.3.35-.43,2.37-.09,1.35-.14,2.03-.13,2.85.02,2.27.03,3.46.52,4.93.5,1.48.9,2.05,1.1,2.27.71.77,1.54,1.07,2.01,1.23,1.12.39,2.06.34,3.31.26,1.11-.07,2.29-.04,3.13-.48,1.17-.61,1.67-1.19,2.05-1.5.29-.23.55-.49.75-.81.56-.9,1.17-2.26,1.51-3.24.41-1.21.44-1.44.89-3.05.26-.94,1.2-3.06,1.01-3.17-.14-.08-.44.55-1.4,1.17-.68.44-1.28.61-2.01.82-.37.11-1.24.34-2.49.45-.74.06-2.01.16-3.61-.12-1.44-.25-2.82-.5-4.04-1.5-1.42-1.16-1.72-2.61-2.16-2.48Z"/><path class="cls-2" d="M227.22,275.23c.2.16.71.61.95,1.39.18.57.12,1.07.03,1.56-.36,1.97-.71,3.33-1.36,4.52-.41.74-1.45,2.33-1.45,2.33"/><path class="cls-2" d="M193.91,273.25c-.41.06-.1,2.79,0,3.11.03.08.06.16.06.16.07.16.17.27.56,1.09.95,1.95,1.05,2.54,1.07,2.75.1.75,0,1.33-.07,1.67-.28,1.45-1.21,2.55-1.27,2.63-.71.84-1.27.85-1.36,1.18-.05.21.11.42.89,1.14.8.73,1.2,1.1,1.71,1.45.56.39,1.32.92,2.43,1.35.88.34,1.55.6,2.43.57.9-.03,1.65-.34,2.69-.98,1.57-.97,3.06-1.89,4.45-3.73,2.73-3.6,2.74-7.62,2.74-9.12,0-.46-.07-.49-.07-1.6,0-.25,0-.47-.12-.53-.19-.1-.58.35-.82.58-.62.6-1.26.84-2.54,1.3-1.17.42-2.13.52-2.94.6-2.13.2-3.78-.07-4.41-.2-1.76-.35-2.8-.89-3.13-1.07-1.05-.57-1.46-1.06-1.57-1.19-.54-.67-.59-1.18-.77-1.15Z"/><path class="cls-2" d="M202.94,276.91c-.54.45-1.33,1.24-1.82,2.43-.26.62-.33,1.16-.48,2.21-.24,1.74-.25,3.11-.26,4.52,0,1.21.03,2.33.04,2.91.02.55.04,1.02.05,1.35"/><path class="cls-2" d="M193.91,259.37c-.21.98-.37,2.09-.41,3.31,0,.23-.11.6-.01,1.07.12.54.35.66.64,1.28.27.58.34,1.06.42,1.61.07.46.1,1.02.06,1.65-.05.62-.08,1.01-.27,1.51-.15.38-.3.6-.22.67.1.1.46-.17,1.08-.49.43-.23.84-.38,1.65-.7.61-.24,1.06-.41,1.67-.58.83-.23,1.47-.31,1.94-.36,1.45-.17,2.62-.1,3.29-.04,1.01.1,1.58.15,2.23.38.41.15.85.25,1.26.4.46.17.64.27.76.18.17-.13,0-.51-.08-1.31-.01-.11,0-.07-.02-1.05-.02-1.46-.04-1.57,0-1.88.05-.37.1-.78.32-1.26.18-.39.48-1.06,1.16-1.43.32-.18.53-.17.67-.4.15-.25.05-.51-.07-.99-.27-1.13-.19-1.67-.35-1.69-.15-.02-.23.44-.54.99-.41.72-.95,1.12-1.44,1.48-.99.73-1.97.98-2.93,1.21-.79.19-2.47.52-4.61.26-1.38-.17-2.33-.48-2.66-.6-1.66-.6-2.37-1.31-2.57-1.51-.29-.31-.51-.63-.51-.63-.15-.22-.22-.38-.24-.42-.09-.21-.15-.4-.18-.54l-.05-.12Z"/><path class="cls-2" d="M200.89,263.07c.39.7.63,1.33.77,1.8.14.48.37,1.26.34,2.29-.01.44-.07.81-.12,1.08"/><path class="cls-2" d="M236.05,274.94c.38.29.74.61,1.56,1.12.49.3,1.01.38,2.03.54.75.11,1.25.19,1.92.07.62-.11,1-.32,1.05-.22.07.12-.59.76-1.21,1.39-.91.93-1.13,1.08-1.83,1.68-1.31,1.11-2.15,1.52-2.82,2.13,0,0-.15.14-1.93,1.19-.08.05-.27.16-.5.13-.2-.02-.25-.15-.45-.23-.41-.18-.73.11-.85-.02-.13-.14.16-.57.54-1.32.18-.36.33-.73.5-1.09.57-1.19.83-2.32.95-2.81.13-.5.36-.99.41-1.5.01-.11,0,0,.24-.69.04-.13.23-.45.37-.35Z"/><path class="cls-2" d="M236.69,262.87c-1.56.48-3.92,1.49-5.72,3.72-.3.37-.56.74-.78,1.1.14.02.35.05.61.08,1.09.15,1.41.22,1.59.26.34.08.5.11.63.16.33.12.47.24.55.17.08-.06.04-.23-.02-.55-.02-.09-.11-.61-.12-.87-.02-.36.1-.61.33-1.12.25-.54.53-.91.73-1.16.33-.42.63-.71.71-.78.32-.29.81-.68,1.5-1.02Z"/><path class="cls-2" d="M180.92,271.28c-.06,1.54.23,2.71.47,3.44.51,1.52,1.36,2.75,1.96,3.61.16.23.3.42.4.55.05-.19.14-.46.29-.77.35-.68.8-1.1,1.17-1.43.17-.15.46-.41.88-.66.21-.12.34-.2.55-.29.36-.16.53-.17.55-.26.04-.2-.8-.41-.96-.46-.6-.19-.81-.3-1.12-.45-.87-.43-1.59-.95-2.4-1.59-.42-.33-.43-.37-.97-1.04l-.82-.64Z"/><path class="cls-2" d="M193.9,271.25c-.18-.07-.46.79-1.49,1.81-.48.48-.83.82-1.4,1.13-.51.28-.92.38-.91.54.01.13.28.15.95.36.27.09.77.25,1.31.5.39.18.69.32,1.04.59.34.26.41.48.5.45.16-.06-.02-.71-.09-1.81-.05-.79-.02-1.45,0-1.77.06-1.22.23-1.76.09-1.81Z"/></g><g id="flower_wrapper_outline"><path id="flower_wrapper_outline-2" class="cls-9" d="M192.3,301.14c.93,1.49,2.09,3.12,3.53,4.8,2,2.34,3.66,3.73,6.27,5.93,2.07,1.74,5.64,4.59,10.48,7.59.65.4.65.4,1.02.62"/><line class="cls-12" x1="181.83" y1="317.12" x2="181.25" y2="329.21"/><line class="cls-12" x1="186.63" y1="325.51" x2="183.69" y2="330.19"/><line class="cls-12" x1="192.68" y1="325.94" x2="184.82" y2="332.47"/><line class="cls-12" x1="175.09" y1="349.99" x2="177.68" y2="344.19"/><line class="cls-12" x1="180.91" y1="349.99" x2="180.3" y2="344.62"/></g><g id="envelope"><polygon class="cls-13" points="194.63 340.27 175.93 336.08 181.57 308.49 200.27 312.68 194.63 340.27"/><path class="cls-9" d="M176.06,335.89l11.31-8.76c1.2-.93,1.6-2.62.96-4.03l-6.67-14.59"/><line class="cls-9" x1="186.52" y1="327.79" x2="194.38" y2="339.99"/><line class="cls-9" x1="199.59" y1="312.9" x2="187.65" y2="320.66"/></g><path id="hand" class="cls-15" d="M169.12,342.32v-13.27c1.84-.02,3.71-.02,5.6,0,5.24.05,4.31.08,4.48.07.45-.03,1.12.02,2.45.11.14.01.54.04,1.02.23.35.14.69.27.97.63.32.4.38.84.41,1.02.09.65-.11,1.16-.2,1.36.3.02.62.02.96,0,.57-.04,1.31-.16,2.6-.68.79-.32.43-.15,1.83-.83,1.67-.89.31-.2,1.07-.57.37-.18,1.14-.61,1.48-.79.3-.16,1.42-.88,2.02-1.14s.75-.33.95-.31c.32.02.47.03.66.11.4.18.61.53.66.63.25.45.22.9.2,1.08-.05.54-.31.91-.51,1.19-.39.56-.76.74-.72.85.04.11.51-.21,1.17-.17.3.02.51.01.72.17.42.32.41.99.41,1.08-.01.46-.23.78-.36.97-.96,1.41-1.86,1.98-1.81,2.06.03.04.15-.1.58-.23.28-.08.16-.11.28-.08.16.04.2.45.21.58.05.57-.13,1.03-.18,1.16-.16.38-.39.67-.74,1-1,.95-1.91,1.15-1.86,1.31.03.1.08-.06.64-.16.26-.05.37.03.44.08.14.09.04.69-.18,1.16-.33.69-.91,1.03-1.21,1.2-2.75,1.5-4.76,1.88-4.76,1.88-3.7.77-3.91.64-7.26.54-2.77-.08-4.9-.57-7.29-1.03-1.42-.28-2.96-.68-2.96-.68-.51-.14-.94-.26-1.22-.34l-.59-.17Z"/><g id="hand-2"><path id="hand-3" class="cls-15" d="M213.02,319.87c-.34-.08-.67-.04-1.66.11-.03,0-.07,0-.13.01-.18.02-.48.07-.82.21-.33.13-.64.26-.9.6-.29.38-.36.81-.38.99-.09.63.1,1.12.18,1.31-.28.02-.58.02-.9,0-.53-.04-1.22-.15-2.43-.66-.74-.31-.4-.15-1.71-.8-1.56-.86-.29-.19-1-.55-.35-.18-1.06-.59-1.38-.77-.28-.16-1.33-.85-1.89-1.1-.55-.24-.7-.32-.88-.3-.29.02-.44.03-.62.11-.38.18-.57.52-.62.6-.23.43-.2.87-.19,1.04.04.52.29.88.48,1.15.36.54.71.71.67.82-.04.1-.48-.2-1.09-.16-.28.02-.48.01-.67.16-.39.31-.38.95-.38,1.04.01.44.22.76.33.93.89,1.36,1.74,1.91,1.68,1.99-.03.04-.14-.09-.54-.22-.26-.08-.15-.11-.26-.08-.15.04-.18.43-.19.56-.05.55.12.99.17,1.12.15.37.36.65.69.97.93.91,1.78,1.11,1.74,1.26-.03.1-.07-.06-.6-.16-.24-.05-.35.03-.41.07-.13.09-.04.67.17,1.12.08.17.41.79,1.13,1.16.26.13.52.27.86.21.05,0,.45-.08.71-.42.16-.21.13-.35.33-.81.16-.36.23-.46.26-.5.17-.22.29-.19.52-.42.19-.2.29-.4.31-.44.17-.36,0-.5.15-.74.08-.14.28-.24.67-.43.33-.17.46-.21.57-.26.2-.09,1-.47,1.18-1.15.13-.47-.13-.76.1-1.02.04-.04.11-.11.57-.23.37-.09.62-.12.81-.15.6-.09,1-.16,1.38-.43.07-.05.39-.29.62-.74.13-.26.18-.52.22-.74.1-.52.03-.67.17-.87.13-.18.29-.22.59-.33.45-.17.85-.32,1.18-.54.15-.09.69-.45.99-1.12.12-.27.17-.52.2-.66.08-.42.16-.71.03-.74Z"/><path id="finger_outline" class="cls-5" d="M206.57,326.54c-.47-.14-1.04-.31-1.73-.53-1.24-.39-2.18-.92-2.58-1.12-.55-.28-.7-.36-2.82-1.78-.15-.1-.77-.61-1.05-.99-.2-.27.2.29-.22-.27"/><path id="finger_outline-2" class="cls-5" d="M198.53,326.54c1.2.81,2.52,1.66,3.29,1.97.71.28,1.3.44,2.16.69"/><path id="finger_outline-3" class="cls-5" d="M200.25,330.18c.67.27,1.51.57,2.62,1.01"/></g><g id="finger_outline-4"><path id="finger_outline-5" class="cls-5" d="M175.71,332.78c1.31.05,2.7.06,4.18,0,1.4-.06,2.72-.16,3.96-.31"/><path id="finger_outline-6" class="cls-5" d="M182.92,336.54c1.76.08,2.12.04,5.73-1.06,1.33-.4,2.34-.95,2.77-1.16.59-.29.75-.37,3.03-1.85.16-.1.83-.63,1.13-1.03.21-.28-.22.3.23-.28"/><path id="finger_outline-7" class="cls-5" d="M183.58,339.58c1.35.08,2.45-.03,3.22-.14.96-.15,1.73-.36,2.77-.64.93-.26,1.56-.43,2.32-.72.83-.32,2.25-1.2,3.53-2.04"/><path id="finger_outline-8" class="cls-5" d="M183.45,341.99c1.56,0,2.88.12,3.84-.07,1.66-.34,1.93-.48,3.11-.93s2.46-.9,3.19-1.18"/></g></svg>