<?xml version="1.0" encoding="UTF-8"?><svg id="Plant_3" xmlns="http://www.w3.org/2000/svg" viewBox="0 0 170.17 234.94"><defs><style>.cls-1{stroke-width:.75px;}.cls-1,.cls-2,.cls-3,.cls-4,.cls-5,.cls-6,.cls-7,.cls-8,.cls-9,.cls-10{stroke-miterlimit:10;}.cls-1,.cls-2,.cls-3,.cls-4,.cls-5,.cls-6,.cls-7,.cls-8,.cls-10{stroke:#000;}.cls-1,.cls-6,.cls-8,.cls-9{fill:none;}.cls-2{fill:#31512d;}.cls-2,.cls-3,.cls-4,.cls-10{stroke-width:1.2px;}.cls-3{fill:#6c8763;}.cls-4{fill:#627a59;}.cls-5{fill:#d3c6af;}.cls-5,.cls-8{stroke-width:1.5px;}.cls-7{fill:#b9947a;}.cls-9{stroke:#686868;stroke-width:1.8px;}.cls-10{fill:#a1b59b;}</style></defs><g id="leaf_vine"><path class="cls-8" d="M26.45,170.88c1.01-1.88,2.33-4.71,3.19-8.34.5-2.1.7-3.82.96-8.02.78-12.63-.01-12.76,1.08-15.12,1.87-4.03,3.79-2.8,7.51-8.94.7-1.15,1.78-3.21,3.93-7.33,1.96-3.75,2.03-4.01,2.8-5.24,1.44-2.32,2.13-2.88,5.09-6.71,3.9-5.05,3.19-4.7,4.29-5.69,3.74-3.35,8.23-4.03,9.7-4.23,2.19-.3,4.04-.18,5.3,0"/><path class="cls-8" d="M99.98,96.4c1.82-.12,5.67-.48,9-.48,8.98,0,13.47,0,17.71,1.96,7.23,3.34,10.25,10.39,10.52,11.01,1.63,3.87.09,3.77,1.78,17.8.27,2.24.51,3.89,0,6.1-.67,2.94-1.97,3.86-4.07,8.39-.67,1.45-1.47,3.18-2.16,5.57-1.11,3.84-1.27,7.09-1.4,10.2-.1,2.44-.03,4.17,0,5.34.11,3.79.33,13.48-1.76,23.61-.77,3.73-1.21,5.79-2.56,8.43-2.14,4.2-5.15,4.93-7.88,9.15-1.89,2.93-2.68,5.78-3.05,7.63"/><path class="cls-8" d="M47.47,108.8c1.14-.69,2.37-1.39,3.7-2.07,2.1-1.08,4.1-1.94,5.96-2.64"/></g><g id="pot"><path id="pot-2" class="cls-5" d="M48.47,126.31c24.15,0,48.38-.18,72.53-.18-.84,5.88-1.49,10.79-1.85,13.87-.45,3.83-1.15,10.28-2.92,18-.43,1.87-1.04,4.37-2.66,7.23-1.05,1.84-2.52,4.38-5.45,6.21-1.67,1.04-3.29,1.54-5.32,2.16-2.2.67-3.9.92-4.56,1.01-1.76.24-3.1.25-3.68.25-5.68.05-9.62.28-21.17.13-.81-.01-2.51-.04-4.68-.51-1.24-.27-3.66-.78-6.07-2.28-.87-.54-3.48-2.26-5.82-6.07-1.83-2.97-1.9-4.62-3.79-13.15-2-9-2.5-9.8-3.29-14.67-.76-4.71-1.26-9.87-1.26-9.87-.06-.65-.11-1.2-.14-1.57l.14-.56Z"/><path id="pot-3" class="cls-5" d="M48.47,126.31h-5.28c-.34.11-.84.2-1.31,0-.88-.37-1.17-1.51-1.41-2.67-.69-3.39-.75-5.81-.75-5.81-.04-1.49-.06-3.4,0-5.62h90.59v11.74c-.14.45-.44,1.21-1.16,1.7-.7.47-1.43.46-2.06.45-1.27-.02-3.63.19-5.62.21h-7.46s-65.53,0-65.53,0Z"/></g><g id="closed_eyes"><path class="cls-8" d="M68.81,152.42c.15-.33.48-.96,1.17-1.44.07-.05,1.46-.99,3.06-.45.3.1,1.06.41,1.61,1.18.15.21.24.4.31.54"/><path class="cls-8" d="M97.23,152.65c.15-.33.48-.96,1.17-1.44.07-.05,1.46-.99,3.06-.45.3.1,1.06.41,1.61,1.18.15.21.24.4.31.54"/></g><g id="legs"><path id="leg" class="cls-7" d="M69.82,174.83l-7.44,13.05c-.61.03-1.61.16-2.67.74-1.76.96-2.48,2.53-2.91,3.44-.32.69-1.84,3.96-.35,6.99.25.5.78,1.56,1.98,2.28,1.56.94,3.17.67,3.62.59,1.91-.35,3.03-1.63,3.48-2.17,1.11-1.32,1.39-2.7,1.57-3.66.5-2.61-.15-4.82-.61-6l8.99-14.95-1.3-.04c-.64,0-1.25-.06-2.54-.15l-1.83-.12Z"/><path id="leg-2" class="cls-7" d="M96.67,174.77l.24,16.69c.33.25.8.63,1.34,1.11,1.19,1.05,1.84,1.63,2.36,2.5.24.4.88,1.49.88,3,.01,2.14-1.25,3.61-1.67,4.06-.51.53-1.45,1.53-3.01,1.7-1.66.18-2.9-.73-3.45-1.13-2.24-1.64-2.6-4.25-2.67-4.87-.08-.75-.16-2.58.93-4.4.47-.78,1.01-1.32,1.41-1.66l-.31-16.89,1.84-.02,2.11-.1Z"/></g><path id="mouth" class="cls-6" d="M79.81,160.06c.79.41,1.88.89,3.23,1.26,2.02.54,3.63.55,4.13.54,1.42-.02,2.45-.03,3.59-.54,1.98-.88,2.98-2.66,3.41-3.59"/><g id="plant_hanger"><polyline class="cls-9" points="39.58 111.98 87.06 50.3 130.31 112.21"/><polyline class="cls-9" points="87.06 111.7 87.06 50.3 87.06 -.52"/><line class="cls-9" x1="91.5" y1="50.3" x2="82.23" y2="50.3"/><line class="cls-9" x1="91.69" y1="45.05" x2="82.42" y2="45.05"/><line class="cls-9" x1="91.5" y1="39.8" x2="82.23" y2="39.8"/></g><g id="leaves"><path class="cls-10" d="M79.16,107.64c-.34-.03-2.12-.21-3.57.96-1.43,1.15-1.64,2.89-1.79,4.12-.31,2.61.56,4.73,1.24,6.32.97,2.27,1.36,1.94,2.2,3.99.43,1.05,1.48,3.7,1.1,6.87-.32,2.63-1.46,4.32-1.1,4.53.15.09.52-.09,2.23-2.03,1.46-1.66,2.36-2.68,3.66-4.57,2.09-3.06,3.12-4.6,3.45-5.89.95-3.66-.42-6.88-1.08-8.43-.51-1.2-1.31-3.03-3.18-4.47-.69-.53-1.68-1.27-3.15-1.41Z"/><path class="cls-4" d="M71.25,88.03c-.27.23.85,1.34,1.22,3.45.29,1.63,0,3.14-.1,3.66-.36,1.98-.94,2.25-1.52,4.06-.45,1.39-1.44,4.48.1,6.9,1.17,1.85,3.18,2.3,3.35,2.34,3.07.64,5.41-1.94,5.58-2.13,2.51-2.86,1.35-7,1.12-7.82-.65-2.32-1.99-3.75-4.47-6.4-.9-.96-1.78-1.66-3.55-3.05-.99-.77-1.55-1.16-1.73-1.02Z"/><path class="cls-2" d="M89.73,89.35c-.46.12-2.03.56-3.15,2.03-1.19,1.56-1.13,3.31-1.08,4.67.02.55.12,2.25,1.08,4.16.38.77,1.05,2.08,2.44,3.15,1.22.95,1.95.89,3.76,1.73,2.13.98,3.17,1.52,3.96,2.54,1.83,2.39.64,5.6,1.42,5.79.63.15,1.67-1.92,2.13-3.05.64-1.58.75-2.87.91-4.77.18-2.13.31-3.72-.1-5.79-.34-1.71-.9-2.94-1.32-3.86-.73-1.58-1.35-2.95-2.74-4.26-.5-.48-1.56-1.45-3.25-2.03-.81-.28-2.28-.78-4.06-.3Z"/><path class="cls-10" d="M122.63,80.51c-1-.77-5.19,3.21-6.09,4.06-3.21,3.04-5.45,5.22-5.89,8.63-.1.78-.33,2.74.71,4.77.33.64,1.1,2.1,2.84,2.94.35.17,2.28,1.11,4.37.3,2.18-.83,2.98-2.97,3.35-3.96.04-.11.08-.22.11-.34.57-2.1.23-3.8-.01-5.24-.05-.3-.42-2.57-.41-4.57.04-4.07,1.69-6.08,1.02-6.6Z"/><path class="cls-4" d="M134.75,103.13c-.38-1.75-1.56-2.46-2.07-2.91-2.32-2.04-5.06-2.27-5.99-2.34-.55-.04-2.48-.13-4.87.71-4.52,1.59-7.02,5.22-10.36,10.05-1.64,2.38-2.67,4.29-2.44,4.47.17.13.83-.77,2.23-1.52,1.42-.76,2.71-.9,3.76-1.02,1.55-.17,2.72.03,4.98.41,3.15.53,3.06.98,4.64,1,.56,0,2.71-.08,5.11-1.41,0,0,1.94-1.07,3.66-3.15.52-.63.81-1.14.91-1.32.29-.53.68-1.92.45-2.98Z"/><path class="cls-10" d="M138.97,109.76c-.92.25-2.39.65-3.52,1.95-1.93,2.24-1.29,5.3-1.17,5.86.53,2.54,2.22,4.05,2.73,4.49.4.35.87.69,5.47,2.54,3.65,1.47,4.14,1.57,5.08,2.34,1.65,1.36,2.16,2.72,2.73,2.54.44-.14.52-1.06.59-3.91.07-3.49.11-5.24,0-5.86-.22-1.2-.86-3.87-2.93-6.44-1.07-1.33-2.29-2.84-4.49-3.52-2.07-.63-3.87-.17-4.49,0Z"/><path class="cls-10" d="M140.34,132.02c-.3-1.44-1.26-2.3-1.95-2.93-3-2.72-7-2.38-7.42-2.34-2.48.24-4.09,1.37-6.05,2.73-2.99,2.08-4.46,4.37-6.15,6.99-1.58,2.45-1.38,2.86-1.27,2.97.3.3,1.23-.46,3.12-1.17.68-.26,2.39-.84,4.3-.98,1.03-.07,2.4.15,5.08.59,3,.49,3.25.66,4.3.59,1.05-.07,2.69-.18,4.1-1.37,1.31-1.1,2.37-3.09,1.95-5.08Z"/><path class="cls-4" d="M134.48,146.28c-.31.03-2.01.19-3.12,1.56-1.16,1.42-.91,3.17-.78,4.1.07.51.41,2.5,2.15,4.1.41.38,1.99,1.82,3.8,1.76.34-.01.71-.08,1.24.07.74.21,1.21.68,1.76,1.24.36.37.86.88,1.24,1.68.52,1.08.42,1.8.66,1.83.37.05.87-1.57,1.17-2.56.62-2.04.93-3.05.95-4.24.01-.75.02-2.4-.88-4.24-.8-1.65-1.92-2.6-2.49-3.07-1.32-1.1-2.58-1.59-3.07-1.76-.89-.31-1.63-.57-2.63-.47Z"/><path class="cls-2" d="M130.58,164.66c-.52,0-2.29.01-3.88,1.23-1.53,1.18-1.98,2.78-2.29,3.88-.28,1.01-.96,3.41.18,5.46.8,1.45,1.62,1.15,3,3,1.2,1.61,1.6,3.22,1.76,3.88.79,3.28-.3,5.5.35,5.81.39.19.99-.51,3.35-3.17,3.42-3.86,3.69-4.15,4.12-5.03.41-.85,1.35-2.86,1.15-5.46-.11-1.38-.49-2.34-1.21-4.19-.87-2.21-1.57-3.01-1.88-3.34-.94-.99-1.87-1.43-2.06-1.52-.31-.14-1.28-.55-2.58-.56Z"/><path class="cls-4" d="M123.7,198.41c.91-.84,1.78-2.01,1.87-3.62.08-1.56-.61-2.66-1.45-3.61-2.62-2.96-6.24-3.32-6.59-3.35-2.6-.22-4.52.68-5.76,1.26-3.09,1.45-5.35,3.92-5.97,6.28-.05.19-.34,1.27,0,1.47.3.17.83-.52,1.88-1.15.22-.13,1.32-.77,2.62-.94,1.9-.25,3.42.63,3.98.94,1.33.76,1.07,1.34,2.72,2.72,1.21,1.01,2.11,1.77,3.35,1.78,1.4.01,2.43-.93,3.35-1.78Z"/><path class="cls-10" d="M114.15,209.54c-1.34.17-2.23.52-3.08,1.19-1.49,1.17-1.66,3.1-1.71,3.64-.15,1.75.5,3.05,1.07,4.17.22.44,1.39,2.68,3.96,4.71,1.84,1.45,2.65,1.41,3.32,2.68.88,1.67.32,3.32.75,3.42.22.05.59-.33,2.03-3.42,1.02-2.18,1.52-3.26,1.71-3.96.31-1.15.88-3.26.21-5.78-.51-1.94-1.51-3.21-2.03-3.85-.82-1.02-1.61-1.99-3-2.46-1.12-.38-2.11-.48-3.23-.33Z"/><path class="cls-2" d="M58.87,103.15c-.33.06-2.4.45-3.57,2.34-1.05,1.69-.68,3.48-.49,4.44.35,1.79,1.25,3,2.22,4.31,1.13,1.53,1.62,1.5,2.22,2.47,1.14,1.83-.25,5.41.49,5.79.7.36,3.15-2.61,4.68-5.67,1.12-2.24,1.4-3.83,1.48-4.31.21-1.32.48-3-.25-4.93-.25-.66-.85-2.2-2.47-3.33-.5-.35-2.13-1.49-4.31-1.11Z"/><path class="cls-10" d="M50.63,102.4c.56.77,2.02,1.21,3.06,1.36.92.13,2.35.34,3.99-.26,2.43-.88,3.6-2.88,3.9-3.44,1.14-2.12.88-4.13.74-5.18-.1-.75-.34-2.44-1.48-4.07-1.54-2.19-3.77-2.92-6.16-3.7-1.49-.49-4.42-1.4-8.14-.86-3.37.49-6.79,2.08-6.66,2.96.03.23.29.32,1.97.99,1.99.79,2.99,1.18,3.08,1.23,2.07,1.1,2.98,3.31,3.45,4.44.44,1.07.19.93,1.11,3.82q.66,2.07,1.13,2.71Z"/><path class="cls-3" d="M49.57,113.21c.11-1.84-1.04-3.25-1.4-3.68-.33-.4-1.54-1.78-3.56-2.16-2.11-.4-3.77.53-5.08,1.27-.82.46-3.15,1.91-4.57,4.83-.7,1.45-.86,2.76-1.14,5.34-.44,3.96-.3,7.94.25,8,.3.04.35-1.16,1.52-2.41.48-.52,1.03-.91,2.56-1.65,2.3-1.13,2.84-1.11,4.18-1.78,1.88-.94,3.9-2.08,4.91-3.08,1.99-1.95,2.23-3.01,2.33-4.67Z"/><path class="cls-10" d="M28.07,144.01c-.27.17-2.1,1.4-2.51,3.76-.47,2.71,1.31,4.7,1.61,5.02,1.37,1.47,2.24.86,4.48,2.33.48.32,3.44,2.31,4.48,5.73.65,2.14.21,3.71.54,3.76.47.08,1.49-3.07,1.97-6.09.32-2.01.6-3.78.18-6.09-.18-1.01-.71-3.74-2.87-6.27-1.08-1.27-2.47-2.9-4.66-3.05-1.63-.11-2.87.66-3.22.9Z"/><path class="cls-4" d="M26.45,170.88c-.59-.23-2.64-1.04-4.48-.18-2.52,1.18-3.18,4.81-2.87,7.17.2,1.46.58,1.04,1.61,4.48,1.02,3.39.93,4.76.9,5.19-.11,1.28-.43,2.01-.18,2.15.41.22,1.43-1.51,3.76-3.76,2.09-2.02,2.41-1.74,3.4-3.05.47-.62,1.98-2.66,1.97-5.55,0-.83,0-2.62-1.25-4.3-1.05-1.41-2.41-1.97-2.87-2.15Z"/></g><g id="leaf_middle_line"><path class="cls-1" d="M76.94,107.88c.82.81,1.93,2.09,2.8,3.9,1.12,2.33,1.28,4.36,1.46,6.89.12,1.72.14,4.08-.27,6.89"/><path class="cls-1" d="M75.37,107.93c.25-1.44.42-2.67.53-3.58.54-4.29.34-5.45.13-6.23-.34-1.24-.9-2.18-1.33-2.78"/><path class="cls-1" d="M56.81,103.96c.76.29,2.24.98,3.44,2.51,1.11,1.4,1.42,2.8,1.59,3.58.38,1.77.18,3.25,0,4.11"/><path class="cls-1" d="M55.48,103.16c.29-.65.71-1.82.66-3.31-.06-1.94-.88-3.3-1.32-4.01-1.44-2.33-3.55-3.43-4.78-4.07-.6-.31-1.11-.53-1.46-.66"/><path class="cls-1" d="M47.47,108.8c-1.04.28-2.76.89-4.41,2.31-2.88,2.49-3.57,5.72-3.75,6.77"/><path class="cls-1" d="M26.92,145.01c1.12.22,2.99.75,4.83,2.17,3.41,2.63,4.19,6.39,4.38,7.42"/><path class="cls-1" d="M27.57,171.43c-.66.8-1.75,2.32-2.31,4.52-.47,1.84-.39,3.41-.27,4.38"/><path class="cls-1" d="M124.89,196.97c-.33-1.03-1.01-2.49-2.45-3.39-1.11-.69-2.25-.78-4.11-.93-1.27-.1-2.33-.06-3.05,0"/><path class="cls-1" d="M129.73,164.71c.58.59,1.38,1.54,1.99,2.89.21.48.65,1.55.93,4.38.13,1.35.24,3.2.13,5.44"/><path class="cls-1" d="M130.69,149.08c1.21.38,2.8,1,4.48,2.08,1.97,1.25,3.35,2.65,4.24,3.71"/><path class="cls-1" d="M140.03,134.85c-.78-.59-2.01-1.37-3.67-1.85-.47-.14-2.9-.82-5.97-.13-1.02.23-1.83.55-2.39.8"/><path class="cls-1" d="M135.1,112.17c1.97.13,3.48.65,4.44,1.07,1.1.48,3.9,1.87,5.83,4.91.37.58.63,1.09.8,1.46"/><path class="cls-1" d="M134.82,103.95c-1.03-.51-2.75-1.2-4.96-1.32-2.26-.12-3.94.43-5.44.93-1.65.55-4.21,1.64-6.89,3.85"/><path class="cls-1" d="M116.03,101.48c-.08-.81-.16-2.03-.09-3.49.12-2.54.61-4.48,1.06-6.23.25-.97.63-2.29,1.19-3.85"/><path class="cls-1" d="M87.33,90.59c1.18.24,3.01.8,4.75,2.22,1.9,1.56,2.75,3.38,3.31,4.64.74,1.64,1.05,3.1,1.19,4.11"/><path class="cls-1" d="M114.99,209.48c-.07.62-.14,1.58,0,2.75.06.47.23,1.71,1.66,5.15.31.74.75,1.77,1.33,2.99"/></g></svg>