<?xml version="1.0" encoding="UTF-8"?><svg id="Plant_2" xmlns="http://www.w3.org/2000/svg" viewBox="0 0 170.23 234.72"><defs><style>.cls-1{fill:#627a59;}.cls-1,.cls-2,.cls-3,.cls-4,.cls-5,.cls-6,.cls-7{stroke:#000;}.cls-1,.cls-2,.cls-3,.cls-4,.cls-5,.cls-6,.cls-7,.cls-8{stroke-miterlimit:10;}.cls-2{fill:#a1b59b;stroke-width:.75px;}.cls-3{fill:#cf5756;stroke-width:1.2px;}.cls-4{fill:#d3c6af;}.cls-4,.cls-7{stroke-width:1.5px;}.cls-5,.cls-7,.cls-8{fill:none;}.cls-6{fill:#b9947a;}.cls-8{stroke:#686868;stroke-width:1.8px;}</style></defs><g id="plant_hanger"><polyline class="cls-8" points="36.61 112.9 83.94 51 127.19 112.9"/><polyline class="cls-8" points="83.94 112.39 83.94 51 83.94 .17"/><line class="cls-8" x1="88.39" y1="51" x2="79.11" y2="51"/><line class="cls-8" x1="88.58" y1="45.74" x2="79.31" y2="45.74"/><line class="cls-8" x1="88.39" y1="40.49" x2="79.11" y2="40.49"/></g><g id="pot"><path id="pot-2" class="cls-4" d="M45.36,127h72.46c-.84,5.88-1.42,10.61-1.77,13.69-.45,3.83-1.15,10.28-2.92,18-.43,1.87-1.04,4.37-2.66,7.23-1.05,1.84-2.52,4.38-5.45,6.21-1.67,1.04-3.29,1.54-5.32,2.16-2.2.67-3.9.92-4.56,1.01-1.76.24-3.1.25-3.68.25-5.68.05-9.62.28-21.17.13-.81-.01-2.51-.04-4.68-.51-1.24-.27-3.66-.78-6.07-2.28-.87-.54-3.48-2.26-5.82-6.07-1.83-2.97-1.9-4.62-3.79-13.15-2-9-2.5-9.8-3.29-14.67-.76-4.71-1.26-9.87-1.26-9.87-.06-.65-.11-1.2-.14-1.57l.14-.56Z"/><path id="pot-3" class="cls-4" d="M45.36,127h-5.28c-.34.11-.84.2-1.31,0-.88-.37-1.17-1.51-1.41-2.67-.69-3.39-.75-5.81-.75-5.81-.04-1.49-.06-3.4,0-5.62h90.59v11.74c-.14.45-.44,1.21-1.16,1.7-.7.47-1.43.46-2.06.45-1.27-.02-2.75-.02-4.74,0l-7.87.22H45.36Z"/></g><g id="closed_eyes"><path class="cls-7" d="M63.78,153.97c.15-.33.48-.96,1.17-1.44.07-.05,1.46-.99,3.06-.45.3.1,1.06.41,1.61,1.18.15.21.24.4.31.54"/><path class="cls-7" d="M92.65,154.21c.15-.33.48-.96,1.17-1.44.07-.05,1.46-.99,3.06-.45.3.1,1.06.41,1.61,1.18.15.21.24.4.31.54"/></g><path id="mouth" class="cls-5" d="M74.53,160.68c.24.69.78,1.91,1.97,2.95,1.3,1.13,2.68,1.43,3.49,1.61.59.13,1.79.38,3.31.09.74-.14,1.95-.38,3.13-1.34,1.27-1.04,1.77-2.33,1.97-2.95"/><g id="legs"><path id="leg" class="cls-6" d="M64.47,174.92l-5.26,14.08c-.59.13-1.56.42-2.51,1.16-1.58,1.23-2.05,2.89-2.32,3.86-.21.73-1.18,4.2.77,6.96.32.46,1.02,1.41,2.32,1.93,1.69.68,3.24.15,3.67,0,1.83-.66,2.72-2.09,3.09-2.71.89-1.48.94-2.89.97-3.86.08-2.66-.92-4.73-1.56-5.83l6.13-14.84-1.37.03c-.92.02-1.84-.11-2.72-.4l-1.21-.39Z"/><path id="leg-2" class="cls-6" d="M86.96,175.63l7.51,16.14c-.2.36-.48.9-.78,1.55-.66,1.45-1.02,2.24-1.15,3.24-.06.46-.2,1.72.41,3.11.85,1.97,2.6,2.8,3.17,3.04.68.28,1.95.81,3.44.34,1.59-.51,2.36-1.84,2.7-2.43,1.39-2.4.66-4.94.47-5.54-.23-.72-.9-2.43-2.63-3.65-.74-.52-1.46-.8-1.96-.95l-6.27-14.93-2.57.03-2.35.04Z"/></g><g id="flower_stems"><polygon id="stem" class="cls-2" points="66.84 86.93 66.84 112.9 70.42 112.9 69.24 86.93 66.84 86.93"/><polygon id="stem-2" class="cls-2" points="98.09 85.07 86.96 112.9 91.47 112.9 99.87 85.96 98.09 85.07"/></g><g id="flowers"><path class="cls-3" d="M94.77,68.33c-.1.5-.42,1.48-.72,5.28-.22,2.79-.2,3.8-.13,4.7.1,1.28.27,1.88.43,2.33.49,1.36,1.26,2.23,1.71,2.73.63.7,1.32,1.52,2.5,1.97,2.54.97,3.07.82,4.67.71.5-.03,1.82-.32,2.55-.76s1.57-.77,2.75-2.3c1.31-1.7,1.78-2.47,2.85-4.37.68-1.21,1.28-2.45,1.89-4.37,0,0,.96-3.07,1.08-4.59.04-.56,0-.7-.15-.97-.19-.33-.43-.33-.59-.38-.28-.09-.79.04-1.21.33-.31.21-.98.98-1.6,1.78-.76.98-.82,1.08-1.19,1.65-.4.61-.64.97-1.24,1.74-.12.15-.35.35-.6.39-.14.02-.66.09-.93-.29-.21-.29-.23-.6-.14-1.27.15-1.24.26-1.42.44-2.95.07-.59.09-1.07.1-1.35.02-.84.12-1.43-.09-1.98-.23-.63-.7-.9-1.01-1-.47-.16-.9.02-1.51.68-.58.64-1.52,2.1-2.15,3.36-.55,1.08-.65,1.47-1.22,2.38-.18.28-.67.44-1.11.22-.26-.13-.43-.4-.53-1.36q-.1-1.11-.22-2c-.13-1.06-.07-1.14-.31-2.21-.14-.62-.28-1.57-.65-2.23-.23-.41-.46-.95-.95-.98-.5-.04-.87.09-1.18.44-.33.37-.51.64-.68,1.2-.24.79-.28.76-.55,1.92-.24,1.02-.21,1.02-.31,1.54Z"/><path class="cls-3" d="M77.78,71.17c-.02.51.05,1.53-.57,5.3-.46,2.76-.72,3.73-1,4.59-.4,1.21-.71,1.76-.97,2.16-.8,1.2-1.76,1.87-2.32,2.24-.78.53-1.64,1.16-2.9,1.31-2.7.33-3.18.06-4.71-.43-.48-.15-1.69-.75-2.3-1.35s-1.34-1.13-2.12-2.89c-.86-1.96-1.14-2.82-1.72-4.92-.37-1.34-.66-2.69-.78-4.7,0,0-.2-3.21.05-4.71.09-.56.17-.68.38-.9.27-.27.5-.21.66-.22.29-.02.76.22,1.09.61.25.28.72,1.19,1.13,2.11.5,1.13.53,1.24.76,1.89.25.69.39,1.1.79,1.99.08.17.26.42.49.52.13.06.62.25.98-.06.28-.24.36-.53.44-1.2.15-1.24.09-1.44.28-2.97.08-.59.17-1.06.23-1.34.18-.82.23-1.41.56-1.9.38-.55.89-.7,1.22-.73.49-.04.87.23,1.3,1.03.41.76.97,2.4,1.29,3.78.27,1.18.28,1.59.62,2.6.1.31.55.59,1.02.48.28-.06.52-.28.84-1.19q.37-1.05.69-1.89c.38-.99.34-1.09.83-2.07.28-.57.65-1.45,1.17-2.01.32-.34.67-.81,1.16-.73.49.08.82.3,1.04.71.23.44.34.74.37,1.33.05.83.08.8.08,2,0,1.05-.05,1.04-.07,1.57Z"/></g><g id="leaves"><path class="cls-1" d="M66.84,112.11c-1.77-4.1-6.82-8.65-8.59-10.21-6.7-5.9-15.72-9.61-19.67-10.37-2.34-.45-4.3-.64-5.59-.73.44,1.41,1.21,3.48,2.54,5.81,4.21,7.37,10.4,10.91,11.69,11.62,1.58.87,4.98,2.56,9.66,3.39,2.52.45,4.71.52,6.35.48h3.6Z"/><path class="cls-1" d="M52.14,69.58c.08.78.51,4.89,1.3,9.4.76,4.29,1.28,7.26,2.5,11.14.87,2.75,2.11,6.62,4.77,11.14,2.15,3.64,4.42,6.36,6.12,8.18v-22.51c-.51-.12-1.25-.35-2.07-.79-2.34-1.27-3.42-3.3-4.2-4.75-.61-1.14-1.46-3.07-1.77-5.67l-.32-2.04c-.62-.59-1.17-1.01-1.55-1.28-.39-.27-.74-.49-2.31-1.38-.64-.37-1.18-.67-1.56-.88l-.93-.56Z"/><path class="cls-1" d="M70.42,112.2c.84.18,2.08.32,3.49,0,2.01-.46,3.54-1.69,5.85-4.48,2.55-3.09,4.22-5.87,5.58-8.3,2.21-3.94,3.43-5.92,4.63-8.98,0,0,.92-1.85,2.04-6.67.18-.77.43-1.94-.02-2.22-.37-.22-1.03.26-1.39.52-3.61,2.65-5.41,3.97-6.02,4.57-1.59,1.55-2.48,2.42-3.94,3.94-2.15,2.24-1.84,2.04-5.04,5.44-1.65,1.76-2.47,2.6-3.7,4.11-.88,1.07-1.56,1.99-2,2.61l.52,9.46Z"/><path class="cls-1" d="M88.1,110.06c-2.97-1.56-4.97-3.35-6.19-4.62-5.58-5.81-6.57-12.87-6.91-15.61-.32-2.53-.26-4.65-.15-6.09l1.2-2.22.79-2.93c.58.33,1.4.83,2.34,1.51,1.45,1.05,2.71,2.18,5.4,5.15,2.76,3.05,4.15,4.57,5.44,6.49,1.34,1.98,2.51,4.48,3.11,5.74l-5.03,12.58Z"/><path class="cls-1" d="M95.51,101.3c.97-1.22,2.31-2.67,4.09-4.09,2.09-1.66,3.9-2.55,5.75-3.45,2.46-1.2,4.51-1.87,8.61-3.22,2.43-.8,3.75-1.15,4.82-1.41,1.78-.42,1.83-.32,4.47-.85,3.79-.76,5.4-1.3,5.63-.85.09.19-.2.38-.8,1.26-.74,1.07-.79,1.49-1.51,2.76,0,0-.51.91-1.56,2.36-2.17,3.02-6.09,6.28-7.16,7.16-2.31,1.9-4.53,3.72-7.9,5.68-2.13,1.24-4.55,2.62-8.02,3.7-4.28,1.33-7.48,1.37-8.52,1.36-.47,0-.86-.02-1.14-.04l3.24-10.38Z"/></g></svg>