<svg id="Layer_1" data-name="Layer 1" xmlns="http://www.w3.org/2000/svg" viewBox="0 0 347.85 464.17"><defs><style>.cls-1,.cls-3{fill:#fff;}.cls-1,.cls-5,.cls-7{stroke:#221f20;stroke-miterlimit:10;}.cls-1,.cls-5{stroke-width:3px;}.cls-2{fill:#c7e4e2;}.cls-4{fill:#d2e9e9;}.cls-5,.cls-7{fill:none;}.cls-6{fill:#221f20;}.cls-7{stroke-linecap:round;stroke-width:4px;}</style></defs><path class="cls-1" d="M6.53,41.72,72.89,455.15h204.9L341.07,42.26A3.09,3.09,0,0,0,338,38.71H9.1A2.6,2.6,0,0,0,6.53,41.72Z"/><path class="cls-2" d="M11,59.76,73.92,453.58h203.3L336.91,59.76a2.91,2.91,0,0,0-3-3.25L13.56,57A2.44,2.44,0,0,0,11,59.76Z"/><ellipse class="cls-3" cx="173.84" cy="40.04" rx="165.92" ry="31.11"/><ellipse class="cls-4" cx="173.88" cy="57.02" rx="163.42" ry="32.44"/><ellipse class="cls-5" cx="173.82" cy="39.79" rx="167.36" ry="32.44"/><circle class="cls-6" cx="119.79" cy="364.85" r="15.11"/><circle class="cls-6" cx="231.33" cy="364.85" r="15.11"/><path class="cls-7" d="M194.54,404.45C190.76,410.11,183,414,174,414s-16.59-3.79-20.42-9.34"/></svg>