<svg id="Layer_1" data-name="Layer 1" xmlns="http://www.w3.org/2000/svg" viewBox="0 0 347.85 464.17"><defs><style>.cls-1{fill:#c7e4e2;}.cls-2{fill:#fff;}.cls-3{fill:#d2e9e9;}.cls-4,.cls-6{fill:none;stroke:#221f20;stroke-miterlimit:10;}.cls-4{stroke-width:3px;}.cls-5{fill:#221f20;}.cls-6{stroke-linecap:round;stroke-width:4px;}</style></defs><path class="cls-1" d="M53.28,328.7,73.92,453.58h203.3l19.35-124.71c.29-.57-1.15-1.08-3-1.08H55.83C54.24,327.79,53,328.23,53.28,328.7Z"/><ellipse class="cls-2" cx="173.84" cy="40.04" rx="165.92" ry="31.11"/><ellipse class="cls-3" cx="174.86" cy="327.79" rx="120.9" ry="12.86"/><ellipse class="cls-4" cx="173.82" cy="39.79" rx="167.36" ry="32.44"/><circle class="cls-5" cx="119.79" cy="364.85" r="15.11"/><circle class="cls-5" cx="231.33" cy="364.85" r="15.11"/><path class="cls-6" d="M194.54,404.45C190.76,410.11,183,414,174,414s-16.59-3.79-20.42-9.34"/><path class="cls-4" d="M6.83,37.36c-.37,2.43-.55,2.78-.3,4.36L72.89,455.15h204.9L341.07,42.26a10.12,10.12,0,0,0-.08-4"/></svg>