<svg width="26" height="16" viewBox="0 0 26 16" fill="none" xmlns="http://www.w3.org/2000/svg">
<path d="M24.3123 3.58047L13.4151 0.232531C12.8213 0.0500938 12.1806 0.0500938 11.5872 0.232531L0.689714 3.58047C-0.229905 3.86291 -0.229905 5.07903 0.689714 5.36148L2.5895 5.94512C2.17267 6.4604 1.91639 7.08897 1.891 7.77731C1.51479 7.99295 1.24992 8.38204 1.24992 8.84654C1.24992 9.26767 1.47182 9.62199 1.79138 9.84857L0.79402 14.3365C0.707293 14.7267 1.0042 15.0971 1.40384 15.0971H3.59585C3.99589 15.0971 4.29279 14.7267 4.20606 14.3365L3.2087 9.84857C3.52826 9.62199 3.75016 9.26767 3.75016 8.84654C3.75016 8.39455 3.4974 8.01639 3.13838 7.79684C3.16807 7.21007 3.4681 6.69128 3.94666 6.36234L11.5868 8.70981C11.9408 8.81841 12.6197 8.95397 13.4147 8.70981L24.3123 5.36187C25.2323 5.07903 25.2323 3.86331 24.3123 3.58047ZM13.782 9.90483C12.6674 10.247 11.7177 10.058 11.2196 9.90483L5.55424 8.16445L5.00028 12.5969C5.00028 13.9778 8.35841 15.0971 12.501 15.0971C16.6436 15.0971 20.0017 13.9778 20.0017 12.5969L19.4477 8.16406L13.782 9.90483Z" fill="#F2ACAC"/>
</svg>
