<svg width="35" height="25" viewBox="0 0 35 25" fill="none" xmlns="http://www.w3.org/2000/svg">
<path d="M10.5021 19.2483H21.0012C23.8994 19.2483 26.2508 16.897 26.2508 13.9988H28.0006C31.8612 13.9988 35 10.86 35 6.99939C35 3.13879 31.8612 0 28.0006 0H6.56498C5.8377 0 5.2526 0.585105 5.2526 1.31239V13.9988C5.2526 16.897 7.60396 19.2483 10.5021 19.2483ZM28.0006 3.49969C29.9309 3.49969 31.5003 5.06909 31.5003 6.99939C31.5003 8.92969 29.9309 10.4991 28.0006 10.4991H26.2508V3.49969H28.0006ZM30.609 24.4979H2.64423C0.0413356 24.4979 -0.691413 20.9982 0.675655 20.9982H32.5721C33.9392 20.9982 33.2173 24.4979 30.609 24.4979V24.4979Z" fill="#F2ACAC"/>
</svg>
