<?xml version="1.0" encoding="utf-8"?>
<!-- Generator: Adobe Illustrator 26.0.3, SVG Export Plug-In . SVG Version: 6.00 Build 0)  -->
<svg version="1.1" id="title_blocks" xmlns="http://www.w3.org/2000/svg" xmlns:xlink="http://www.w3.org/1999/xlink" x="0px"
	 y="0px" viewBox="0 0 138.9 140.7" style="enable-background:new 0 0 138.9 140.7;" xml:space="preserve">
<style type="text/css">
	.st0{fill:none;stroke:#D6ECDF;stroke-width:5;stroke-miterlimit:10;}
	.st1{fill:none;stroke:#C4C2C3;stroke-miterlimit:10;}
	.st2{fill:#C4C2C3;stroke:#C4C2C3;stroke-miterlimit:10;}
	.st3{fill:#EFAEC9;}
</style>
<g id="page_14">
	<circle class="st0" cx="70.4" cy="71.1" r="63.3"/>
	<path class="st1" d="M45,95c1.1,2.2,2.4,4.3,4,6.3c2.1,2.7,5.5,6.8,11.2,8.6c3,0.9,6.3,1.1,9.4,0.5c5.1-0.8,9.7-3.4,13-7.3
		c2.2-3,3.7-6.5,4.2-10.2c1-5.8,0.4-11.7-1.6-17.2c-2-6.1-5.9-12.7-10.3-17.4"/>
	<path class="st2" d="M81.7,67.7c2.2,4.2,3.9,8.5,5.2,13c1,3.7,1.3,7.7,0.8,11.5c-0.2,1.5-0.6,2.9-1,4.3c-0.5,1.8-1.2,3.5-2.2,5.1
		c-0.8,1.2-1.7,2.4-2.8,3.4c-1.4,1.4-3.1,2.5-4.8,3.4c-2.5,1.2-5.1,2-7.8,2.2c-2,0.2-4,0.2-6-0.1c2.8,0.5,5.7,0.6,8.5,0.2
		c1.1-0.2,9.8-1.8,14.4-9.6c1.6-2.9,2.6-6.2,2.7-9.6c0.4-4.4-0.1-8.9-1.5-13.2c-1.3-3.5-3-6.9-5-10L81.7,67.7z"/>
	<path class="st1" d="M96,64.4c-1.8,0.4-3.5,1.2-4.9,2.4c-1.6,1.4-2.7,3.2-3.3,5.2c-0.7,2.1-0.9,4.2-0.6,6.4c0.7-0.1,1.3-0.2,2-0.4
		c3-1,5.4-3.3,6.5-6.4c0.4-1.6,0.6-3.2,0.6-4.8c0-0.7,0-1.2,0-1.6L96,64.4z"/>
	<path class="st1" d="M86.6,93.7c-0.6-1.6-1.6-3-3-4c-1.4-0.8-2.9-1.1-4.5-1.1c-1.6-0.1-3.2,0-4.8,0.2c-0.9,0.1-1.6,0.2-2.1,0.2
		c0.4,1,1,1.9,1.6,2.7c1.1,1.8,2.7,3.2,4.6,4.1c1.4,0.6,3,0.9,4.6,0.9c1.1,0.1,2.1-0.1,3-0.8L86.6,93.7z"/>
	<path class="st3" d="M75.6,59.1l0.2,0c0.6-1.1,1.2-2.4,1.7-3.6c0.3-0.7,0.4-0.8,0.6-1.2c0.3-0.6,0.5-1.2,0.7-1.8
		c1.3-3.9,1.9-8,1.9-12.1c0.2-2-0.1-4.2-0.8-6.3c-0.3-1.1-0.9-2-1.6-2.9s-1.7-1.5-2.7-1.9c-1.5-0.5-3.2-0.4-4.6,0.3
		c-0.8,0.5-2,1.8-2.5,2.6c-0.7,1.3-1,2.5-1.3,4c-0.6-0.6-1.2-0.9-1.5-1.1c-0.9-0.5-1.2-0.7-2.3-1.1c-1.2-0.3-2-0.2-3,0.3
		c-0.9,0.5-1.5,1.4-1.8,2.4c-0.4,1.4-0.6,2.3-0.3,3.7c0.1,0.5,0,0.1,0.1,0.6c-2.5-0.4-2.8-0.5-4.5-0.3c-2.7,0.4-4.7,2.8-5,5.4
		c-0.1,1.1,0,2.2,0.5,3.2c0.4,1,1.1,1.9,1.9,2.6c1.6,1.5,3.5,2.8,5.5,3.6c3.7,1.8,7.7,3,11.7,3.5c2.3,0.3,4.3,0.2,6.9,0.1L75.6,59.1
		"/>
</g>
</svg>
