<svg width="26" height="21" viewBox="0 0 26 21" fill="none" xmlns="http://www.w3.org/2000/svg">
<path d="M20.0077 7.48243L19.6874 8.04296C19.5702 8.25071 19.3201 8.33695 19.0974 8.25463C18.6364 8.08216 18.2145 7.83521 17.8433 7.52555C17.6636 7.3766 17.6167 7.11397 17.7339 6.91014L18.0543 6.34961C17.7847 6.03602 17.5737 5.67148 17.4331 5.27558H16.7884C16.554 5.27558 16.3509 5.10703 16.3118 4.87184C16.2336 4.40146 16.2297 3.90756 16.3118 3.41759C16.3509 3.1824 16.554 3.00993 16.7884 3.00993H17.4331C17.5737 2.61403 17.7847 2.24949 18.0543 1.9359L17.7339 1.37537C17.6167 1.17154 17.6597 0.90891 17.8433 0.759958C18.2145 0.450293 18.6403 0.203345 19.0974 0.0308731C19.3201 -0.0514429 19.5702 0.0347929 19.6874 0.242543L20.0077 0.803075C20.418 0.728599 20.836 0.728599 21.2462 0.803075L21.5666 0.242543C21.6838 0.0347929 21.9339 -0.0514429 22.1565 0.0308731C22.6176 0.203345 23.0395 0.450293 23.4107 0.759958C23.5904 0.90891 23.6373 1.17154 23.5201 1.37537L23.1997 1.9359C23.4693 2.24949 23.6803 2.61403 23.8209 3.00993H24.4655C24.7 3.00993 24.9031 3.17848 24.9422 3.41367C25.0203 3.88405 25.0242 4.37794 24.9422 4.86792C24.9031 5.10311 24.7 5.27558 24.4655 5.27558H23.8209C23.6803 5.67148 23.4693 6.03602 23.1997 6.34961L23.5201 6.91014C23.6373 7.11397 23.5943 7.3766 23.4107 7.52555C23.0395 7.83521 22.6137 8.08216 22.1565 8.25463C21.9339 8.33695 21.6838 8.25071 21.5666 8.04296L21.2462 7.48243C20.8399 7.55691 20.418 7.55691 20.0077 7.48243ZM19.5975 5.17758C21.1017 6.33785 22.8168 4.61705 21.6604 3.10792C20.1562 1.94374 18.4411 3.66846 19.5975 5.17758ZM15.0928 11.2102L16.4095 11.8687C16.8041 12.096 16.976 12.5782 16.8197 13.0094C16.472 13.958 15.7883 14.8282 15.1553 15.5886C14.8662 15.9375 14.3661 16.0237 13.9715 15.7963L12.8346 15.1378C12.2095 15.6748 11.4828 16.1021 10.6897 16.3804V17.6975C10.6897 18.1521 10.3654 18.5441 9.92005 18.6225C8.95895 18.7872 7.95096 18.795 6.9547 18.6225C6.5054 18.5441 6.17331 18.1561 6.17331 17.6975V16.3804C5.38021 16.0982 4.65352 15.6748 4.02841 15.1378L2.89149 15.7924C2.5008 16.0198 1.99681 15.9335 1.70769 15.5847C1.07477 14.8242 0.406687 13.954 0.0589708 13.0094C-0.0973063 12.5821 0.0745985 12.1 0.469198 11.8687L1.7702 11.2102C1.61783 10.3909 1.61783 9.54817 1.7702 8.72501L0.469198 8.06256C0.0745985 7.83521 -0.101213 7.35308 0.0589708 6.92582C0.406687 5.97722 1.07477 5.10703 1.70769 4.34658C1.99681 3.99772 2.49689 3.91148 2.89149 4.13883L4.02841 4.79736C4.65352 4.26035 5.38021 3.83309 6.17331 3.55478V2.23381C6.17331 1.78303 6.49368 1.39105 6.93907 1.31265C7.90017 1.14802 8.91207 1.14018 9.90833 1.30873C10.3576 1.38713 10.6897 1.77519 10.6897 2.23381V3.55086C11.4828 3.83309 12.2095 4.25643 12.8346 4.79344L13.9715 4.13491C14.3622 3.90756 14.8662 3.9938 15.1553 4.34266C15.7883 5.10311 16.4524 5.9733 16.8002 6.9219C16.9564 7.34916 16.8041 7.83129 16.4095 8.06256L15.0928 8.72109C15.2452 9.54425 15.2452 10.387 15.0928 11.2102ZM10.4983 12.0372C12.8112 9.019 9.37699 5.57348 6.36866 7.89401C4.05576 10.9123 7.48995 14.3578 10.4983 12.0372ZM20.0077 19.1987L19.6874 19.7593C19.5702 19.967 19.3201 20.0533 19.0974 19.9709C18.6364 19.7985 18.2145 19.5515 17.8433 19.2419C17.6636 19.0929 17.6167 18.8303 17.7339 18.6264L18.0543 18.0659C17.7847 17.7523 17.5737 17.3878 17.4331 16.9919H16.7884C16.554 16.9919 16.3509 16.8233 16.3118 16.5881C16.2336 16.1178 16.2297 15.6239 16.3118 15.1339C16.3509 14.8987 16.554 14.7262 16.7884 14.7262H17.4331C17.5737 14.3303 17.7847 13.9658 18.0543 13.6522L17.7339 13.0917C17.6167 12.8878 17.6597 12.6252 17.8433 12.4763C18.2145 12.1666 18.6403 11.9197 19.0974 11.7472C19.3201 11.6649 19.5702 11.7511 19.6874 11.9589L20.0077 12.5194C20.418 12.4449 20.836 12.4449 21.2462 12.5194L21.5666 11.9589C21.6838 11.7511 21.9339 11.6649 22.1565 11.7472C22.6176 11.9197 23.0395 12.1666 23.4107 12.4763C23.5904 12.6252 23.6373 12.8878 23.5201 13.0917L23.1997 13.6522C23.4693 13.9658 23.6803 14.3303 23.8209 14.7262H24.4655C24.7 14.7262 24.9031 14.8948 24.9422 15.13C25.0203 15.6004 25.0242 16.0942 24.9422 16.5842C24.9031 16.8194 24.7 16.9919 24.4655 16.9919H23.8209C23.6803 17.3878 23.4693 17.7523 23.1997 18.0659L23.5201 18.6264C23.6373 18.8303 23.5943 19.0929 23.4107 19.2419C23.0395 19.5515 22.6137 19.7985 22.1565 19.9709C21.9339 20.0533 21.6838 19.967 21.5666 19.7593L21.2462 19.1987C20.8399 19.2732 20.418 19.2732 20.0077 19.1987ZM19.5975 16.89C21.1017 18.0502 22.8168 16.3294 21.6604 14.8203C20.1562 13.66 18.4411 15.3808 19.5975 16.89Z" fill="#F2ACAC"/>
</svg>
