<svg width="71" height="70" viewBox="0 0 71 70" fill="none" xmlns="http://www.w3.org/2000/svg">
<path d="M63.1826 0H8.18261C4.04199 0 0.682617 3.35937 0.682617 7.5V62.5C0.682617 66.6406 4.04199 70 8.18261 70H63.1826C67.3232 70 70.6826 66.6406 70.6826 62.5V7.5C70.6826 3.35937 67.3232 0 63.1826 0Z" fill="#E5E5E5"/>
<path d="M34.9272 52H28.9287L20.8428 38.8384L12.7129 52H7.06592L17.7446 35.3447L7.79102 19.876H13.6138L21.0845 32.0488L28.5112 19.876H34.1582L24.1606 35.4985L34.9272 52ZM46.9023 52.4395C44.002 52.4395 41.6729 51.3848 39.915 49.2754C38.1719 47.1514 37.3003 44.0239 37.3003 39.8931C37.3003 35.7183 38.1865 32.5615 39.959 30.4229C41.7461 28.2842 44.0972 27.2148 47.0122 27.2148C48.2427 27.2148 49.3193 27.3833 50.2422 27.7202C51.165 28.0425 51.9561 28.4819 52.6152 29.0386C53.2891 29.5952 53.8604 30.2178 54.3291 30.9062H54.5708C54.4976 30.4521 54.4097 29.8003 54.3071 28.9507C54.2192 28.0864 54.1753 27.2881 54.1753 26.5557V17.8105H59.3608V52H55.3179L54.395 48.6821H54.1753C53.7358 49.3853 53.1792 50.0225 52.5054 50.5938C51.8462 51.1504 51.0552 51.5972 50.1323 51.9341C49.2241 52.271 48.1475 52.4395 46.9023 52.4395ZM48.3525 48.2427C50.5645 48.2427 52.1245 47.6055 53.0327 46.3311C53.9409 45.0566 54.4097 43.145 54.439 40.5962V39.915C54.439 37.1904 53.9995 35.103 53.1206 33.6528C52.2417 32.188 50.6377 31.4556 48.3086 31.4556C46.4482 31.4556 45.0273 32.21 44.0459 33.7188C43.0791 35.2129 42.5957 37.3003 42.5957 39.981C42.5957 42.6616 43.0791 44.7124 44.0459 46.1333C45.0273 47.5396 46.4629 48.2427 48.3525 48.2427Z" fill="white"/>
</svg>
